<svg xmlns="http://www.w3.org/2000/svg" xmlns:xlink="http://www.w3.org/1999/xlink" preserveAspectRatio="xMidYMid" width="53.063" height="60" viewBox="0 0 53.063 60">
  <defs>
    <style>
      .cls-1, .cls-2 {
        fill: #a9914f;
        fill-rule: evenodd;
      }

      .cls-1 {
        stroke: #a9914f;
        stroke-linejoin: round;
        stroke-width: 1px;
      }
    </style>
  </defs>
  <g>
    <path d="M52.970,36.449 C52.914,36.951 52.828,37.455 52.706,37.958 L52.705,37.958 L52.512,38.757 L52.381,39.294 L51.926,39.135 L40.701,35.215 L39.394,24.290 L39.325,23.708 L39.255,23.127 L39.242,23.018 L40.635,23.003 C42.062,22.986 43.487,23.217 44.879,23.703 C50.317,25.601 53.594,30.912 52.970,36.449 ZM51.833,33.926 C51.695,32.671 51.342,31.461 50.797,30.344 C49.706,28.109 47.853,26.250 45.453,25.159 C45.143,25.019 44.825,24.890 44.497,24.775 C43.578,24.455 42.643,24.254 41.706,24.177 C41.354,24.148 41.002,24.134 40.651,24.141 L40.533,24.142 L40.574,24.483 L41.758,34.379 L51.562,37.802 L51.589,37.693 C51.689,37.279 51.761,36.865 51.813,36.453 C51.919,35.600 51.923,34.754 51.833,33.926 ZM48.517,41.742 C48.583,41.880 48.592,42.033 48.541,42.175 C47.512,45.063 45.402,47.384 42.599,48.709 C41.007,49.461 39.303,49.840 37.591,49.840 C36.290,49.840 34.984,49.621 33.722,49.180 C30.800,48.160 28.453,46.069 27.113,43.292 C26.975,43.006 26.852,42.716 26.739,42.423 C26.594,42.048 26.469,41.669 26.365,41.286 C25.760,39.059 25.843,36.707 26.634,34.489 C26.842,33.905 27.098,33.349 27.389,32.818 C27.722,32.208 28.106,31.634 28.537,31.102 C30.404,28.800 33.126,27.269 36.222,26.901 C36.239,26.898 36.261,26.897 36.284,26.897 C36.411,26.897 36.543,26.942 36.645,27.021 C36.760,27.109 36.827,27.240 36.844,27.408 L38.102,37.929 L48.192,41.453 C48.335,41.502 48.450,41.605 48.517,41.742 ZM37.397,38.866 C37.189,38.793 37.044,38.612 37.020,38.395 L35.782,28.076 L35.271,28.190 C32.391,28.834 29.981,30.614 28.537,33.089 C28.214,33.643 27.939,34.231 27.718,34.849 C27.585,35.224 27.477,35.601 27.389,35.979 C27.024,37.544 27.041,39.128 27.389,40.622 C27.532,41.241 27.731,41.843 27.984,42.423 C29.102,44.985 31.248,47.098 34.108,48.096 C35.247,48.494 36.429,48.695 37.622,48.695 C41.632,48.695 45.334,46.375 47.053,42.784 L47.278,42.315 L37.397,38.866 ZM27.389,28.425 C24.842,30.989 23.268,34.501 23.268,38.371 C23.268,39.370 23.374,40.345 23.573,41.286 C23.816,42.432 24.198,43.528 24.703,44.555 C27.029,49.291 31.939,52.565 37.607,52.565 C44.518,52.565 50.303,47.700 51.651,41.248 L52.197,41.439 L52.741,41.629 C51.227,48.522 45.018,53.702 37.607,53.702 C32.227,53.702 27.480,50.970 24.703,46.836 L24.703,59.493 L7.245,59.493 C6.498,59.493 5.889,58.891 5.889,58.151 L5.889,42.423 L2.055,42.423 L2.055,27.041 C2.055,22.468 6.262,18.303 10.882,18.303 L19.710,18.303 C21.304,18.303 22.897,18.786 24.317,19.702 C26.601,21.173 28.125,23.522 28.465,26.005 C30.956,24.195 34.012,23.107 37.317,23.046 L37.385,23.613 L37.453,24.180 C34.075,24.216 30.973,25.411 28.537,27.386 C28.136,27.712 27.753,28.059 27.389,28.425 ZM23.690,20.654 C22.457,19.860 21.081,19.440 19.710,19.440 L10.882,19.440 C6.863,19.440 3.203,23.063 3.203,27.041 L3.203,41.286 L7.038,41.286 L7.038,58.151 C7.038,58.264 7.131,58.356 7.245,58.356 L14.862,58.356 L14.862,42.089 L16.405,42.089 L16.405,58.356 L23.554,58.356 L23.554,44.804 C22.635,42.846 22.119,40.668 22.119,38.371 C22.119,33.793 24.158,29.681 27.382,26.870 C27.311,24.489 25.880,22.066 23.690,20.654 ZM12.384,35.403 L13.471,20.316 L16.591,20.316 L17.816,35.229 L15.192,37.769 L12.384,35.403 ZM15.532,21.453 L14.540,21.453 L13.571,34.910 L15.138,36.231 L16.627,34.790 L15.532,21.453 ZM14.717,17.563 C9.971,17.563 6.100,13.732 6.100,9.022 C6.100,4.323 9.971,0.504 14.717,0.504 C19.464,0.504 23.334,4.323 23.334,9.033 C23.334,13.732 19.476,17.563 14.717,17.563 ZM14.717,1.765 C10.675,1.765 7.387,5.019 7.374,9.033 C7.374,13.047 10.662,16.301 14.717,16.301 C18.773,16.301 22.060,13.035 22.060,9.033 C22.060,5.019 18.760,1.765 14.717,1.765 Z" class="cls-1"/>
    <path d="M0.020,58.817 L-0.001,57.817 L31.105,57.182 L31.126,58.182 L0.020,58.817 Z" class="cls-2"/>
  </g>
</svg>
