<svg 
 xmlns="http://www.w3.org/2000/svg"
 xmlns:xlink="http://www.w3.org/1999/xlink"
 width="39px" height="23px">
<path fill-rule="evenodd"  fill="rgb(255, 255, 255)"
 d="M35.216,1.695 C33.130,1.695 31.433,3.340 31.433,5.362 C31.433,6.247 31.757,7.085 32.341,7.744 C30.582,9.062 28.165,10.361 25.814,9.936 C24.207,9.648 22.794,8.563 21.609,6.711 C22.643,6.037 23.284,4.900 23.284,3.669 C23.284,1.647 21.586,0.002 19.500,0.002 C17.414,0.002 15.716,1.647 15.716,3.669 C15.716,4.929 16.378,6.080 17.444,6.749 C16.428,8.420 14.835,10.261 12.648,10.555 C10.707,10.817 8.533,9.833 6.185,7.631 C7.052,6.942 7.567,5.910 7.567,4.798 C7.567,2.776 5.870,1.131 3.784,1.131 C1.697,1.131 -0.000,2.776 -0.000,4.798 C-0.000,6.811 1.683,8.451 3.757,8.465 L6.225,23.005 L32.775,23.005 L35.116,9.027 C35.150,9.029 35.183,9.029 35.216,9.029 C37.303,9.029 39.000,7.384 39.000,5.362 C39.000,3.340 37.303,1.695 35.216,1.695 ZM4.141,7.310 C4.024,7.325 3.905,7.337 3.784,7.337 C2.339,7.337 1.164,6.198 1.164,4.798 C1.164,3.398 2.339,2.259 3.784,2.259 C5.228,2.259 6.403,3.398 6.403,4.798 C6.403,5.742 5.866,6.603 5.001,7.044 L4.599,7.249 L4.141,7.310 ZM35.216,7.901 C35.074,7.901 34.924,7.887 34.759,7.859 L34.208,7.766 L31.837,20.107 L7.163,20.107 L4.823,7.906 L4.854,7.937 C7.665,10.747 10.342,12.002 12.808,11.672 C15.696,11.284 17.637,8.804 18.755,6.791 L19.058,6.247 L18.472,6.004 C17.505,5.604 16.881,4.688 16.881,3.669 C16.881,2.270 18.056,1.131 19.500,1.131 C20.944,1.131 22.119,2.270 22.119,3.669 C22.119,4.667 21.511,5.576 20.568,5.986 L19.987,6.237 L20.299,6.776 C21.718,9.232 23.503,10.669 25.602,11.046 C28.625,11.589 31.617,9.808 33.591,8.218 L34.140,7.776 L33.583,7.344 C32.956,6.858 32.597,6.136 32.597,5.362 C32.597,3.962 33.772,2.823 35.216,2.823 C36.661,2.823 37.836,3.962 37.836,5.362 C37.836,6.762 36.661,7.901 35.216,7.901 Z"/>
</svg>