<svg 
 xmlns="http://www.w3.org/2000/svg"
 xmlns:xlink="http://www.w3.org/1999/xlink"
 width="24px" height="14px">
<path fill-rule="evenodd"  opacity="0.502" fill="rgb(0, 0, 0)"
 d="M23.568,7.545 C23.320,7.781 18.349,13.579 12.012,13.579 C5.675,13.579 0.705,7.781 0.456,7.545 C0.332,7.427 0.332,7.071 0.456,6.953 C0.657,6.762 3.947,2.936 8.550,1.479 L8.505,1.318 C8.619,1.289 10.981,0.697 13.539,1.099 L13.539,1.031 C19.132,1.833 23.340,6.736 23.568,6.953 C23.693,7.071 23.693,7.427 23.568,7.545 ZM14.501,2.209 L14.441,2.393 C12.585,1.843 10.589,2.034 9.540,2.203 C5.655,3.231 2.502,6.327 1.575,7.308 C2.693,8.491 7.042,12.750 12.012,12.750 C16.983,12.750 21.332,8.491 22.450,7.308 C21.524,6.328 18.378,3.241 14.501,2.209 ZM16.177,8.605 L16.238,8.605 C15.841,9.668 15.011,10.542 13.956,11.035 C13.890,11.066 13.823,11.095 13.756,11.124 C13.735,11.132 13.715,11.141 13.694,11.149 C12.307,11.704 10.675,11.573 9.403,10.753 L9.454,10.705 C8.810,10.277 8.285,9.696 7.944,9.017 L7.886,9.071 C7.092,7.480 7.381,5.500 8.754,4.193 C9.193,3.776 9.703,3.464 10.249,3.257 C10.789,3.035 11.381,2.913 12.001,2.913 C14.177,2.913 16.016,4.425 16.415,6.394 L16.333,6.394 C16.481,7.128 16.429,7.893 16.177,8.605 ZM14.755,5.056 C14.074,4.303 13.072,3.830 12.001,3.830 C10.075,3.830 8.363,5.357 8.363,7.293 C8.363,8.077 8.657,8.822 9.151,9.420 L9.151,9.508 L9.225,9.508 C9.451,9.764 9.715,9.989 10.009,10.176 L10.042,10.146 C11.452,10.909 13.287,10.684 14.429,9.596 C15.678,8.407 15.844,6.431 14.755,5.056 Z"/>
</svg>