<svg 
 xmlns="http://www.w3.org/2000/svg"
 xmlns:xlink="http://www.w3.org/1999/xlink"
 width="88px" height="68px">
<path fill-rule="evenodd"  fill="rgb(189, 166, 86)"
 d="M87.330,67.999 L0.670,67.999 C0.300,67.999 0.000,67.701 0.000,67.332 C0.000,66.964 0.300,66.665 0.670,66.665 L87.330,66.665 C87.700,66.665 88.000,66.964 88.000,67.332 C88.000,67.701 87.700,67.999 87.330,67.999 ZM79.772,58.528 L57.523,58.528 C55.870,58.528 54.525,57.189 54.525,55.543 L54.525,48.484 C54.525,40.728 60.860,34.418 68.648,34.418 C76.434,34.418 82.770,40.728 82.770,48.484 L82.770,55.543 C82.770,57.189 81.424,58.528 79.772,58.528 ZM81.349,48.484 C81.349,41.508 75.651,35.833 68.648,35.833 C61.644,35.833 55.946,41.508 55.946,48.484 L55.946,55.543 C55.946,56.409 56.653,57.113 57.523,57.113 L79.772,57.113 C80.642,57.113 81.349,56.409 81.349,55.543 L81.349,48.484 ZM68.648,33.585 C66.409,33.585 64.276,32.819 62.479,31.373 C60.133,29.485 58.787,26.712 58.787,23.765 C58.787,18.349 63.210,13.943 68.648,13.943 C74.084,13.943 78.508,18.349 78.508,23.765 C78.508,26.711 77.163,29.484 74.817,31.373 C73.020,32.819 70.887,33.585 68.648,33.585 ZM68.648,15.358 C63.994,15.358 60.208,19.129 60.208,23.765 C60.208,26.283 61.361,28.654 63.372,30.273 C64.914,31.514 66.738,32.169 68.648,32.169 C70.559,32.169 72.383,31.514 73.924,30.273 C75.934,28.654 77.087,26.282 77.087,23.765 C77.087,19.129 73.301,15.358 68.648,15.358 ZM50.718,48.484 L50.718,58.528 L31.890,58.528 C30.237,58.528 28.892,57.189 28.892,55.543 L28.892,46.839 C28.892,37.786 36.286,30.423 45.374,30.423 C49.379,30.423 53.247,31.885 56.266,34.540 L56.846,35.049 L56.286,35.582 C52.695,38.996 50.718,43.578 50.718,48.484 ZM45.374,31.838 C37.069,31.838 30.313,38.567 30.313,46.839 L30.313,55.543 C30.313,56.409 31.020,57.113 31.890,57.113 L49.297,57.113 L49.297,48.484 C49.297,43.449 51.225,38.732 54.744,35.114 C52.078,32.996 48.780,31.838 45.374,31.838 ZM51.588,27.354 C49.718,28.558 47.569,29.195 45.374,29.195 C43.180,29.195 41.032,28.558 39.162,27.354 C35.870,25.232 33.905,21.650 33.905,17.771 C33.905,11.472 39.050,6.346 45.374,6.346 C51.699,6.346 56.846,11.472 56.846,17.771 C56.846,21.650 54.880,25.232 51.588,27.354 ZM45.374,7.761 C39.833,7.761 35.326,12.252 35.326,17.771 C35.326,21.167 37.048,24.306 39.933,26.166 C41.573,27.222 43.455,27.780 45.374,27.780 C47.295,27.780 49.177,27.222 50.816,26.166 C53.702,24.306 55.425,21.168 55.425,17.771 C55.425,12.252 50.916,7.761 45.374,7.761 ZM21.121,25.171 C14.154,25.171 8.485,19.526 8.485,12.586 C8.485,5.646 14.154,-0.000 21.121,-0.000 C28.089,-0.000 33.758,5.646 33.758,12.586 C33.758,19.526 28.089,25.171 21.121,25.171 ZM21.121,1.415 C14.937,1.415 9.906,6.426 9.906,12.586 C9.906,18.745 14.937,23.757 21.121,23.757 C27.305,23.757 32.337,18.745 32.337,12.586 C32.337,6.426 27.305,1.415 21.121,1.415 ZM5.928,58.528 C4.275,58.528 2.930,57.189 2.930,55.543 L2.930,44.803 C2.930,34.813 11.091,26.686 21.121,26.686 C25.133,26.686 28.948,27.977 32.152,30.420 L32.847,30.950 L32.183,31.518 C27.672,35.376 25.085,40.960 25.085,46.839 L25.085,58.528 L5.928,58.528 ZM30.591,31.038 C27.787,29.113 24.532,28.100 21.121,28.100 C11.874,28.100 4.351,35.593 4.351,44.803 L4.351,55.543 C4.351,56.409 5.058,57.113 5.928,57.113 L23.665,57.113 L23.665,46.839 C23.665,40.842 26.178,35.134 30.591,31.038 Z"/>
</svg>