<svg 
 xmlns="http://www.w3.org/2000/svg"
 xmlns:xlink="http://www.w3.org/1999/xlink"
 width="46px" height="35px">
<path fill-rule="evenodd"  stroke-width="1px" stroke="rgb(255, 255, 255)" fill="rgb(255, 255, 255)"
 d="M40.573,31.043 L29.954,31.043 C29.165,31.043 28.523,30.412 28.523,29.638 L28.523,26.316 C28.523,22.666 31.547,19.697 35.264,19.697 C38.980,19.697 42.004,22.666 42.004,26.316 L42.004,29.638 C42.004,30.412 41.362,31.043 40.573,31.043 ZM41.325,26.316 C41.325,23.033 38.606,20.362 35.264,20.362 C31.921,20.362 29.201,23.033 29.201,26.316 L29.201,29.638 C29.201,30.045 29.539,30.377 29.954,30.377 L40.573,30.377 C40.988,30.377 41.325,30.045 41.325,29.638 L41.325,26.316 ZM35.264,19.304 C34.195,19.304 33.177,18.944 32.320,18.264 C31.200,17.375 30.557,16.070 30.557,14.683 C30.557,12.135 32.669,10.062 35.264,10.062 C37.858,10.062 39.970,12.135 39.970,14.683 C39.970,16.070 39.327,17.375 38.208,18.264 C37.351,18.944 36.332,19.304 35.264,19.304 ZM35.264,10.727 C33.042,10.727 31.236,12.502 31.236,14.683 C31.236,15.868 31.786,16.984 32.746,17.746 C33.482,18.330 34.352,18.638 35.264,18.638 C36.176,18.638 37.046,18.330 37.782,17.746 C38.741,16.984 39.291,15.868 39.291,14.683 C39.291,12.502 37.484,10.727 35.264,10.727 ZM26.706,26.316 L26.706,31.043 L17.720,31.043 C16.931,31.043 16.289,30.412 16.289,29.638 L16.289,25.541 C16.289,21.282 19.818,17.816 24.156,17.816 C26.067,17.816 27.913,18.505 29.354,19.754 L29.631,19.994 L29.364,20.244 C27.650,21.851 26.706,24.007 26.706,26.316 ZM24.156,18.482 C20.192,18.482 16.967,21.649 16.967,25.541 L16.967,29.638 C16.967,30.045 17.305,30.377 17.720,30.377 L26.028,30.377 L26.028,26.316 C26.028,23.946 26.948,21.727 28.628,20.024 C27.355,19.027 25.782,18.482 24.156,18.482 ZM24.156,17.239 C23.109,17.239 22.083,16.939 21.191,16.372 C19.620,15.374 18.682,13.688 18.682,11.863 C18.682,8.898 21.137,6.486 24.156,6.486 C27.175,6.486 29.631,8.898 29.631,11.863 C29.631,13.688 28.693,15.374 27.121,16.372 C26.229,16.939 25.204,17.239 24.156,17.239 ZM24.156,7.152 C21.511,7.152 19.360,9.266 19.360,11.863 C19.360,13.461 20.182,14.938 21.559,15.813 C22.342,16.311 23.240,16.573 24.156,16.573 C25.073,16.573 25.971,16.310 26.753,15.813 C28.130,14.938 28.953,13.461 28.953,11.863 C28.953,9.266 26.801,7.152 24.156,7.152 ZM12.581,15.345 C9.255,15.345 6.550,12.688 6.550,9.423 C6.550,6.157 9.255,3.500 12.581,3.500 C15.906,3.500 18.612,6.157 18.612,9.423 C18.612,12.688 15.906,15.345 12.581,15.345 ZM12.581,4.166 C9.629,4.166 7.228,6.524 7.228,9.423 C7.228,12.321 9.629,14.679 12.581,14.679 C15.532,14.679 17.933,12.321 17.933,9.423 C17.933,6.524 15.532,4.166 12.581,4.166 ZM12.581,16.058 C14.495,16.058 16.316,16.665 17.845,17.815 L18.177,18.065 L17.860,18.332 C15.707,20.147 14.473,22.775 14.473,25.541 L14.473,31.043 L5.329,31.043 C4.540,31.043 3.898,30.412 3.898,29.638 L3.898,24.584 C3.898,19.883 7.793,16.058 12.581,16.058 ZM4.577,29.638 C4.577,30.045 4.914,30.377 5.329,30.377 L13.794,30.377 L13.794,25.541 C13.794,22.720 14.994,20.033 17.100,18.106 C15.762,17.200 14.208,16.724 12.581,16.724 C8.167,16.724 4.577,20.250 4.577,24.584 L4.577,29.638 Z"/>
</svg>