<svg 
 xmlns="http://www.w3.org/2000/svg"
 xmlns:xlink="http://www.w3.org/1999/xlink"
 width="25px" height="20px">
<path fill-rule="evenodd"  fill="rgb(19, 63, 149)"
 d="M21.750,17.131 L19.516,17.131 L19.516,18.928 C19.516,19.235 19.265,19.486 18.957,19.486 L6.028,19.486 C5.718,19.486 5.467,19.235 5.467,18.928 L5.467,17.131 L3.234,17.131 C1.793,17.131 0.620,15.960 0.620,14.521 L0.620,7.329 C0.620,5.890 1.793,4.719 3.234,4.719 L5.596,4.719 L5.596,1.069 C5.596,0.761 5.847,0.510 6.157,0.510 L18.827,0.510 C19.135,0.510 19.386,0.761 19.386,1.069 L19.386,4.719 L21.750,4.719 C23.191,4.719 24.364,5.890 24.365,7.329 L24.365,14.521 C24.365,15.960 23.192,17.131 21.750,17.131 ZM6.587,18.369 L18.397,18.369 L18.397,11.012 L6.587,11.012 L6.587,18.369 ZM18.268,1.628 L6.716,1.628 L6.716,4.719 L18.268,4.719 L18.268,1.628 ZM23.245,7.329 C23.245,6.505 22.575,5.835 21.750,5.835 L3.234,5.835 C2.409,5.835 1.738,6.505 1.738,7.329 L1.738,7.883 L23.245,7.883 L23.245,7.329 ZM23.245,9.000 L1.738,9.000 L1.738,14.521 C1.738,15.344 2.409,16.014 3.234,16.014 L5.467,16.014 L5.467,10.453 C5.467,10.145 5.718,9.895 6.027,9.895 L18.956,9.895 C19.264,9.895 19.515,10.145 19.515,10.453 L19.515,16.014 L21.750,16.014 C22.575,16.014 23.245,15.344 23.245,14.521 L23.245,9.000 ZM21.876,6.465 C21.980,6.568 22.040,6.713 22.040,6.860 C22.040,7.008 21.980,7.152 21.874,7.255 C21.776,7.354 21.632,7.413 21.481,7.413 L21.480,7.413 C21.329,7.413 21.186,7.355 21.085,7.255 C20.981,7.151 20.921,7.007 20.921,6.860 C20.921,6.712 20.980,6.568 21.084,6.465 C21.297,6.253 21.667,6.256 21.876,6.465 Z"/>
</svg>