<svg 
 xmlns="http://www.w3.org/2000/svg"
 xmlns:xlink="http://www.w3.org/1999/xlink"
 width="63px" height="53px">
<path fill-rule="evenodd"  fill="rgb(169, 145, 79)"
 d="M50.940,47.646 L50.940,45.919 C54.168,45.554 56.686,42.802 56.686,39.468 C56.686,36.134 54.168,33.382 50.940,33.017 L50.940,19.739 L49.481,19.739 L49.481,33.017 C46.253,33.382 43.734,36.134 43.734,39.468 C43.734,42.802 46.253,45.554 49.481,45.919 L49.481,47.646 L31.904,47.646 L31.904,45.887 C35.030,45.427 37.440,42.728 37.440,39.468 C37.440,36.208 35.030,33.509 31.904,33.049 L31.904,32.522 C35.030,32.063 37.440,29.363 37.440,26.104 C37.440,22.843 35.030,20.144 31.904,19.684 L31.904,10.193 L30.446,10.193 L30.446,19.634 C27.117,19.900 24.488,22.697 24.488,26.104 C24.488,29.509 27.117,32.306 30.446,32.572 L30.446,32.999 C27.117,33.265 24.488,36.062 24.488,39.468 C24.488,42.874 27.117,45.671 30.446,45.937 L30.446,47.646 L12.870,47.646 L12.870,45.919 C16.097,45.554 18.616,42.802 18.616,39.468 C18.616,36.332 16.388,33.708 13.437,33.104 C16.388,32.499 18.616,29.876 18.616,26.740 C18.616,23.406 16.097,20.653 12.870,20.288 L12.870,19.957 C16.097,19.592 18.616,16.840 18.616,13.506 C18.616,10.172 16.097,7.420 12.870,7.055 L12.870,0.010 L11.411,0.010 L11.411,7.055 C8.182,7.420 5.664,10.172 5.664,13.506 C5.664,16.840 8.182,19.592 11.411,19.957 L11.411,20.288 C8.182,20.653 5.664,23.406 5.664,26.740 C5.664,29.876 7.892,32.499 10.844,33.104 C7.892,33.708 5.664,36.332 5.664,39.468 C5.664,42.802 8.182,45.554 11.411,45.919 L11.411,47.646 L-0.010,47.646 L-0.010,52.990 L62.996,52.990 L62.996,47.646 L50.940,47.646 ZM49.481,34.568 C49.720,34.532 49.962,34.508 50.211,34.508 C50.459,34.508 50.701,34.532 50.940,34.568 C53.321,34.923 55.155,36.982 55.155,39.468 C55.155,41.954 53.321,44.012 50.940,44.368 C50.701,44.403 50.459,44.428 50.211,44.428 C49.962,44.428 49.720,44.404 49.481,44.368 C47.099,44.012 45.265,41.954 45.265,39.468 C45.265,36.982 47.099,34.923 49.481,34.568 ZM30.446,34.536 C30.616,34.518 30.789,34.508 30.963,34.508 C31.285,34.508 31.600,34.541 31.904,34.601 C34.183,35.043 35.909,37.056 35.909,39.468 C35.909,41.880 34.183,43.893 31.904,44.335 C31.600,44.395 31.285,44.428 30.963,44.428 C30.789,44.428 30.616,44.418 30.446,44.400 C27.962,44.140 26.019,42.027 26.019,39.468 C26.019,36.908 27.962,34.796 30.446,34.536 ZM30.446,21.171 C30.616,21.153 30.789,21.143 30.963,21.143 C31.285,21.143 31.600,21.176 31.904,21.235 C34.183,21.678 35.909,23.691 35.909,26.104 C35.909,28.515 34.183,30.528 31.904,30.970 C31.600,31.030 31.285,31.063 30.963,31.063 C30.789,31.063 30.616,31.053 30.446,31.036 C27.962,30.775 26.019,28.663 26.019,26.104 C26.019,23.544 27.962,21.431 30.446,21.171 ZM11.411,21.840 C11.650,21.804 11.892,21.779 12.140,21.779 C12.389,21.779 12.631,21.804 12.870,21.840 C15.251,22.195 17.085,24.254 17.085,26.740 C17.085,29.225 15.251,31.284 12.870,31.640 C12.631,31.675 12.389,31.699 12.140,31.699 C11.892,31.699 11.650,31.675 11.411,31.640 C9.029,31.284 7.195,29.226 7.195,26.740 C7.195,24.254 9.029,22.195 11.411,21.840 ZM11.411,34.568 C11.650,34.532 11.892,34.508 12.140,34.508 C12.389,34.508 12.631,34.532 12.870,34.568 C15.251,34.923 17.085,36.982 17.085,39.468 C17.085,41.954 15.251,44.012 12.870,44.368 C12.631,44.403 12.389,44.428 12.140,44.428 C11.892,44.428 11.650,44.404 11.411,44.368 C9.029,44.012 7.195,41.954 7.195,39.468 C7.195,36.982 9.029,34.923 11.411,34.568 ZM11.411,8.606 C11.650,8.570 11.892,8.546 12.140,8.546 C12.389,8.546 12.631,8.570 12.870,8.606 C15.251,8.961 17.085,11.020 17.085,13.506 C17.085,15.992 15.251,18.050 12.870,18.406 C12.631,18.442 12.389,18.466 12.140,18.466 C11.892,18.466 11.650,18.442 11.411,18.406 C9.029,18.050 7.195,15.992 7.195,13.506 C7.195,11.020 9.029,8.961 11.411,8.606 ZM61.537,51.527 L1.449,51.527 L1.449,49.110 L61.537,49.110 L61.537,51.527 Z"/>
</svg>