<svg 
 xmlns="http://www.w3.org/2000/svg"
 xmlns:xlink="http://www.w3.org/1999/xlink"
 width="79px" height="62px">
<path fill-rule="evenodd"  fill="rgb(189, 166, 86)"
 d="M69.652,2.265 C67.031,0.760 64.346,-0.005 61.673,-0.005 C57.731,-0.005 54.011,1.640 50.614,4.883 C48.586,6.819 46.408,9.013 44.302,11.135 C42.714,12.735 41.072,14.389 39.564,15.861 C39.453,15.969 39.358,16.090 39.268,16.213 C38.052,15.065 36.805,13.885 35.680,12.822 C33.242,10.517 30.960,8.360 29.665,7.149 C25.631,3.381 20.783,1.306 16.015,1.306 C12.247,1.306 8.729,2.572 5.840,4.967 C1.303,8.727 -0.870,15.326 0.306,21.778 C0.660,23.720 1.573,25.650 3.016,27.515 L4.681,26.214 C3.462,24.627 2.688,23.012 2.397,21.412 C1.352,15.678 3.242,9.847 7.212,6.556 C13.151,1.634 21.585,2.478 28.199,8.657 C29.493,9.865 31.770,12.018 34.205,14.320 C35.730,15.763 37.390,17.332 38.905,18.760 C39.045,19.143 39.260,19.498 39.560,19.791 C40.286,20.504 42.007,22.154 44.672,24.697 C44.733,24.755 44.784,24.807 44.829,24.856 C44.851,25.051 44.837,25.251 44.794,25.453 C43.137,27.085 41.441,27.883 39.614,27.883 C36.359,27.883 33.662,25.355 33.646,25.340 C33.352,25.054 33.009,24.850 32.644,24.717 C32.321,24.409 32.084,24.357 31.938,24.366 L31.777,24.380 L31.630,24.425 C31.532,24.456 31.423,24.510 31.315,24.565 C30.747,24.631 30.194,24.856 29.742,25.261 C27.365,27.389 26.049,28.580 25.831,28.803 L17.895,36.915 C17.769,37.043 17.653,37.177 17.543,37.316 C17.314,37.413 17.050,37.484 16.759,37.484 C16.560,37.484 16.347,37.451 16.125,37.370 C14.986,36.958 12.238,34.369 9.700,31.760 L8.035,33.061 C10.706,35.835 13.775,38.739 15.388,39.324 C15.765,39.460 16.155,39.527 16.549,39.547 C16.499,39.850 16.474,40.157 16.480,40.470 C16.508,41.801 17.064,43.041 18.044,43.962 C18.996,44.857 20.245,45.349 21.563,45.349 C21.811,45.349 22.057,45.332 22.299,45.296 C22.145,46.773 22.660,48.302 23.836,49.408 C24.787,50.302 26.037,50.794 27.354,50.794 C27.564,50.794 27.772,50.781 27.978,50.755 C27.927,51.057 27.905,51.364 27.911,51.675 C27.940,53.006 28.495,54.246 29.475,55.168 C30.426,56.062 31.676,56.554 32.994,56.554 C33.240,56.554 33.486,56.537 33.728,56.502 C33.707,56.706 33.698,56.912 33.703,57.119 C33.731,58.450 34.287,59.691 35.267,60.612 C36.218,61.506 37.468,61.998 38.786,61.998 C40.164,61.998 41.502,61.440 42.446,60.474 C42.703,60.215 68.167,34.436 74.172,28.402 C78.764,23.789 80.134,17.917 78.031,11.870 C76.648,7.897 73.829,4.666 69.652,2.265 ZM72.651,26.948 C66.643,32.985 41.177,58.766 40.920,59.026 C40.341,59.617 39.565,59.916 38.786,59.916 C38.049,59.916 37.310,59.648 36.737,59.109 C36.167,58.573 35.843,57.850 35.827,57.076 C35.810,56.300 36.102,55.566 36.650,55.006 L43.103,48.411 L41.680,46.886 L35.131,53.579 C34.584,54.138 33.847,54.456 33.056,54.472 C32.260,54.495 31.516,54.201 30.945,53.665 C30.375,53.129 30.052,52.407 30.036,51.632 C30.019,50.857 30.311,50.122 30.858,49.563 L37.135,43.148 L35.575,41.600 L29.491,47.818 C28.944,48.377 28.207,48.694 27.416,48.711 C26.635,48.739 25.877,48.440 25.305,47.904 C24.735,47.368 24.411,46.646 24.395,45.871 C24.379,45.096 24.671,44.361 25.218,43.801 L31.429,37.454 L29.949,35.987 L23.700,42.374 C23.153,42.933 22.416,43.251 21.625,43.266 C20.837,43.306 20.086,42.996 19.514,42.460 C18.944,41.923 18.620,41.201 18.604,40.427 C18.592,39.881 18.741,39.360 19.016,38.902 C19.132,38.708 19.265,38.523 19.427,38.357 L27.364,30.244 C27.636,29.967 30.813,27.122 31.174,26.798 L31.670,26.354 L32.149,26.817 C32.182,26.849 35.468,29.980 39.687,29.965 C42.084,29.944 44.342,28.890 46.396,26.831 C46.508,26.720 46.600,26.608 46.688,26.496 C47.045,26.047 47.231,25.598 47.225,25.155 C47.220,24.773 47.067,24.379 46.800,23.976 C46.631,23.722 46.426,23.465 46.154,23.205 C43.495,20.669 41.782,19.025 41.062,18.319 L40.560,17.827 L40.766,17.626 L41.063,17.336 C42.583,15.853 44.230,14.193 45.824,12.588 C47.921,10.475 50.089,8.291 52.096,6.375 C58.463,0.293 64.574,1.761 68.578,4.062 C72.355,6.232 74.789,9.007 76.020,12.542 C77.879,17.885 76.714,22.867 72.651,26.948 Z"/>
</svg>