<svg 
 xmlns="http://www.w3.org/2000/svg"
 xmlns:xlink="http://www.w3.org/1999/xlink"
 width="20px" height="19px">
<path fill-rule="evenodd"  fill="rgb(19, 63, 149)"
 d="M10.005,19.000 C4.485,19.000 0.010,14.747 0.010,9.500 C0.010,4.253 4.485,-0.000 10.005,-0.000 C15.526,-0.000 20.000,4.253 20.000,9.500 C20.000,14.746 15.526,19.000 10.005,19.000 ZM10.005,1.206 C5.186,1.206 1.279,4.919 1.279,9.500 C1.279,14.081 5.186,17.794 10.005,17.794 C14.825,17.794 18.731,14.081 18.731,9.500 C18.731,4.919 14.825,1.206 10.005,1.206 ZM9.419,10.113 L9.400,3.600 L10.630,3.600 L10.630,9.518 L14.495,12.599 L13.733,13.619 L9.419,10.113 Z"/>
</svg>