<svg 
 xmlns="http://www.w3.org/2000/svg"
 xmlns:xlink="http://www.w3.org/1999/xlink"
 width="15px" height="16px">
<path fill-rule="evenodd"  fill="rgb(125, 125, 125)"
 d="M7.497,4.542 C6.986,4.542 6.571,4.954 6.571,5.461 C6.571,5.969 6.986,6.380 7.497,6.380 C8.009,6.380 8.424,5.969 8.424,5.461 C8.424,4.953 8.009,4.542 7.497,4.542 ZM7.497,7.300 C6.986,7.300 6.571,7.712 6.571,8.220 L6.571,10.978 C6.571,11.486 6.986,11.898 7.497,11.898 C8.009,11.898 8.424,11.486 8.424,10.978 L8.424,8.220 C8.424,7.712 8.009,7.300 7.497,7.300 ZM7.497,0.864 C3.412,0.864 0.087,4.164 0.087,8.220 C0.087,12.276 3.412,15.576 7.497,15.576 C11.583,15.576 14.908,12.276 14.908,8.220 C14.908,4.164 11.583,0.864 7.497,0.864 ZM7.497,14.197 C4.177,14.197 1.477,11.515 1.477,8.220 C1.477,4.924 4.177,2.243 7.497,2.243 C10.817,2.243 13.518,4.924 13.518,8.220 C13.518,11.515 10.817,14.197 7.497,14.197 Z"/>
</svg>