<svg 
 xmlns="http://www.w3.org/2000/svg"
 xmlns:xlink="http://www.w3.org/1999/xlink"
 width="17px" height="24px">
<path fill-rule="evenodd"  fill="rgb(19, 63, 149)"
 d="M14.887,14.366 L8.439,23.903 L1.958,14.319 C-0.432,11.060 -0.076,5.660 2.733,2.784 C4.255,1.225 6.281,0.367 8.439,0.367 C10.597,0.367 12.623,1.225 14.144,2.784 C16.953,5.660 17.300,11.071 14.887,14.366 ZM13.331,3.617 C12.026,2.281 10.289,1.545 8.439,1.545 C6.589,1.545 4.851,2.281 3.546,3.617 C1.113,6.108 0.807,10.788 2.891,13.631 L8.439,21.833 L13.954,13.678 C16.061,10.800 15.764,6.108 13.331,3.617 ZM8.509,11.883 C6.715,11.883 5.255,10.389 5.255,8.553 C5.255,6.716 6.715,5.223 8.509,5.223 C10.303,5.223 11.762,6.716 11.762,8.553 C11.762,10.389 10.303,11.883 8.509,11.883 ZM8.509,6.400 C7.349,6.400 6.406,7.366 6.406,8.553 C6.406,9.740 7.349,10.705 8.509,10.705 C9.668,10.705 10.612,9.740 10.612,8.553 C10.612,7.366 9.668,6.400 8.509,6.400 Z"/>
</svg>