<svg 
 xmlns="http://www.w3.org/2000/svg"
 xmlns:xlink="http://www.w3.org/1999/xlink"
 width="63px" height="71px">
<path fill-rule="evenodd"  fill="rgb(189, 166, 86)"
 d="M61.594,11.223 L46.683,42.684 C48.704,45.597 49.894,49.119 49.894,52.915 C49.894,62.891 41.713,71.008 31.658,71.008 C21.602,71.008 13.421,62.891 13.421,52.915 C13.421,49.081 14.638,45.528 16.697,42.598 L16.154,42.588 L0.444,11.223 C-0.047,10.220 -0.114,9.085 0.255,8.028 C0.624,6.971 1.384,6.120 2.396,5.632 L13.208,0.423 C13.782,0.146 14.390,0.004 15.014,0.000 L47.004,-0.001 C47.643,0.004 48.257,0.146 48.832,0.422 L59.643,5.632 C60.655,6.120 61.415,6.971 61.784,8.028 C62.152,9.085 62.086,10.220 61.594,11.223 ZM15.158,52.915 C15.158,61.941 22.560,69.285 31.658,69.285 C40.755,69.285 48.157,61.941 48.157,52.915 C48.157,49.222 46.903,45.822 44.816,43.080 C44.127,42.175 43.350,41.343 42.490,40.597 C41.980,40.155 41.453,39.733 40.891,39.355 C39.637,38.512 38.257,37.844 36.791,37.367 C35.843,37.058 34.856,36.839 33.842,36.705 C33.125,36.611 32.400,36.545 31.658,36.545 C29.316,36.545 27.091,37.038 25.072,37.914 C23.498,38.597 22.059,39.522 20.785,40.633 C20.082,41.247 19.425,41.912 18.835,42.634 C16.540,45.447 15.158,49.022 15.158,52.915 ZM15.781,2.133 C15.229,1.937 14.628,1.969 14.091,2.227 L3.274,7.438 C2.748,7.694 2.353,8.137 2.164,8.683 C1.973,9.232 2.008,9.822 2.263,10.345 L17.650,41.349 C20.998,37.364 26.033,34.822 31.658,34.822 C32.086,34.822 32.506,34.857 32.927,34.886 L17.021,3.227 C16.763,2.707 16.322,2.318 15.781,2.133 ZM31.019,27.238 L36.744,15.537 L25.293,15.537 L31.019,27.238 ZM18.669,2.005 L24.311,13.532 L37.727,13.532 L43.370,2.005 L18.669,2.005 ZM59.874,8.680 C59.681,8.131 59.285,7.690 58.760,7.437 L47.948,2.226 C47.415,1.970 46.821,1.935 46.278,2.125 C45.722,2.314 45.273,2.709 45.014,3.235 L32.280,29.250 L35.623,35.265 C39.427,36.106 42.777,38.132 45.279,40.927 L59.774,10.350 C60.032,9.827 60.067,9.235 59.874,8.680 ZM26.970,44.840 L27.895,44.766 C29.290,44.641 30.409,44.348 31.252,43.886 C31.792,43.587 32.182,43.437 32.421,43.437 L32.798,43.437 C33.414,43.437 33.722,43.730 33.722,44.317 L33.722,61.830 C33.722,62.491 33.515,62.822 33.100,62.822 L31.610,62.822 C31.145,62.822 30.912,62.491 30.912,61.830 L30.912,46.656 C29.730,46.905 28.454,46.992 27.084,46.917 C26.594,46.893 26.348,46.712 26.348,46.375 L26.348,45.570 C26.348,45.121 26.556,44.878 26.970,44.840 Z"/>
</svg>