<svg 
 xmlns="http://www.w3.org/2000/svg"
 xmlns:xlink="http://www.w3.org/1999/xlink"
 width="53px" height="60px">
<path fill-rule="evenodd"  fill="rgb(169, 145, 79)"
 d="M49.850,60.002 L48.320,60.002 L48.320,58.701 L48.482,58.701 C50.059,58.701 51.338,57.429 51.338,55.861 L51.338,47.628 C51.338,46.450 50.616,45.439 49.587,45.009 L49.783,44.847 L49.093,44.547 C48.888,44.458 48.696,44.390 48.505,44.338 L39.069,41.780 L33.957,48.895 C33.653,49.318 33.180,49.602 32.661,49.674 C32.142,49.744 31.607,49.597 31.202,49.274 L29.761,48.130 L29.577,48.814 C29.452,49.281 29.154,49.681 28.740,49.939 L28.488,50.096 L29.508,58.205 L28.125,58.205 L27.122,50.230 L25.876,50.230 L24.873,58.205 L23.489,58.205 L24.509,50.096 L24.257,49.939 C23.843,49.681 23.546,49.281 23.421,48.815 L23.237,48.129 L21.795,49.275 C21.390,49.597 20.857,49.744 20.335,49.674 C19.817,49.603 19.345,49.319 19.041,48.895 L13.928,41.780 L4.492,44.338 C4.298,44.391 4.105,44.460 3.904,44.548 L3.216,44.849 L3.340,44.952 C2.245,45.337 1.459,46.373 1.459,47.593 L1.459,55.896 C1.459,57.043 2.152,58.028 3.144,58.462 L3.144,60.002 C1.412,60.000 0.003,58.599 0.003,56.877 L0.003,48.394 C0.003,45.890 1.701,43.680 4.131,43.022 L13.780,40.406 L15.375,38.029 C15.666,37.594 16.129,37.296 16.645,37.208 C16.691,37.200 16.737,37.197 16.786,37.192 L17.209,37.153 L17.209,33.581 L16.415,32.922 C15.373,32.060 14.682,30.853 14.468,29.524 L14.065,27.022 L12.980,27.022 C11.246,27.022 9.835,25.619 9.835,23.896 L9.835,21.453 C9.835,20.003 10.826,18.753 12.245,18.415 L12.664,18.315 L12.368,16.476 C11.705,12.357 12.886,8.174 15.609,4.999 C18.333,1.825 22.302,0.005 26.499,0.005 C30.696,0.005 34.665,1.825 37.388,4.999 C40.111,8.173 41.293,12.356 40.630,16.476 L40.334,18.315 L40.753,18.415 C42.172,18.753 43.163,20.003 43.163,21.453 L43.163,23.896 C43.163,25.619 41.752,27.022 40.018,27.022 L38.932,27.022 L38.529,29.524 C38.315,30.854 37.624,32.060 36.583,32.922 L35.789,33.581 L35.789,36.731 L35.804,37.155 L36.227,37.193 C36.268,37.197 36.309,37.200 36.352,37.208 C36.869,37.296 37.332,37.595 37.623,38.029 L39.218,40.406 L48.867,43.021 C51.297,43.680 52.995,45.890 52.995,48.394 L52.995,56.877 C52.995,58.600 51.584,60.002 49.850,60.002 ZM24.728,48.326 C24.728,48.624 24.971,48.866 25.270,48.866 L27.728,48.866 C28.027,48.866 28.271,48.624 28.271,48.326 L28.271,46.944 L26.499,45.535 L24.728,46.944 L24.728,48.326 ZM34.416,37.908 L34.416,34.718 L31.651,37.007 C30.867,37.658 29.872,38.015 28.851,38.015 L24.146,38.015 C23.125,38.015 22.131,37.658 21.347,37.007 L18.582,34.718 L18.582,37.908 L26.499,43.809 L34.416,37.908 ZM16.879,38.553 C16.732,38.578 16.605,38.658 16.517,38.785 L15.043,40.984 L20.164,48.110 C20.282,48.268 20.441,48.311 20.525,48.323 C20.550,48.326 20.575,48.328 20.600,48.328 C20.725,48.328 20.846,48.285 20.943,48.206 L25.378,44.679 L17.294,38.653 C17.173,38.562 17.022,38.528 16.879,38.553 ZM12.332,19.815 C11.649,20.082 11.208,20.725 11.208,21.453 L11.208,23.896 C11.208,24.866 12.003,25.656 12.980,25.656 L13.846,25.656 L12.871,19.604 L12.332,19.815 ZM40.018,25.657 C40.995,25.657 41.790,24.867 41.790,23.896 L41.790,21.453 C41.790,20.725 41.348,20.082 40.665,19.815 L40.126,19.604 L39.151,25.657 L40.018,25.657 ZM37.174,29.308 L39.274,16.259 C39.873,12.535 38.805,8.754 36.343,5.885 C33.881,3.015 30.293,1.369 26.499,1.369 C22.705,1.369 19.117,3.015 16.654,5.885 C14.192,8.754 13.124,12.536 13.724,16.259 L15.824,29.308 C15.986,30.312 16.508,31.223 17.293,31.874 L22.225,35.958 C22.764,36.404 23.446,36.650 24.146,36.650 L28.851,36.650 C29.552,36.650 30.234,36.405 30.772,35.959 L35.705,31.874 C36.490,31.223 37.012,30.312 37.174,29.308 ZM36.477,38.780 C36.393,38.658 36.266,38.578 36.125,38.554 C35.977,38.527 35.826,38.562 35.704,38.653 L27.620,44.679 L32.059,48.209 C32.157,48.287 32.274,48.327 32.396,48.327 C32.421,48.327 32.447,48.326 32.473,48.322 C32.626,48.301 32.758,48.220 32.840,48.101 L37.955,40.984 L36.477,38.780 ZM21.324,30.501 L22.036,29.148 C24.999,30.689 28.395,30.689 31.358,29.148 L32.070,30.501 C30.363,31.389 28.530,31.834 26.697,31.834 C24.864,31.834 23.031,31.389 21.324,30.501 Z"/>
</svg>