<svg 
 xmlns="http://www.w3.org/2000/svg"
 xmlns:xlink="http://www.w3.org/1999/xlink"
 width="17px" height="25px">
<path fill-rule="evenodd"  fill="rgb(19, 63, 149)"
 d="M11.836,24.651 C10.391,24.651 9.247,23.921 8.383,23.247 C5.805,21.237 4.171,18.032 3.035,15.465 C1.744,12.544 0.967,9.558 0.847,7.059 C0.760,5.235 0.991,3.895 1.575,2.841 C2.180,1.749 3.235,1.256 4.166,0.821 C4.345,0.737 4.522,0.654 4.692,0.568 C5.335,0.245 6.063,0.259 6.692,0.606 C7.319,0.952 7.752,1.576 7.877,2.318 L8.787,7.730 C8.966,8.798 8.448,9.866 7.526,10.328 L6.568,10.809 C6.835,11.612 7.149,12.425 7.503,13.224 C7.856,14.022 8.244,14.797 8.656,15.532 L9.616,15.051 C10.538,14.589 11.641,14.845 12.300,15.670 L15.639,19.866 C16.097,20.440 16.273,21.191 16.122,21.930 L16.113,21.974 C15.626,23.912 13.303,24.460 12.602,24.584 C12.338,24.629 12.082,24.651 11.836,24.651 ZM5.656,1.467 C5.482,1.467 5.308,1.507 5.145,1.589 C4.966,1.679 4.781,1.766 4.594,1.854 C3.733,2.256 2.920,2.637 2.489,3.415 C2.016,4.270 1.831,5.409 1.907,7.001 C2.020,9.358 2.761,12.192 3.995,14.983 C5.078,17.429 6.626,20.476 9.010,22.336 C10.265,23.314 11.320,23.663 12.429,23.469 C13.547,23.272 14.829,22.713 15.076,21.733 L15.604,21.809 L15.086,21.689 C15.166,21.299 15.072,20.900 14.830,20.597 L11.490,16.402 C11.141,15.963 10.556,15.828 10.067,16.074 L8.940,16.638 C8.546,16.837 8.076,16.689 7.848,16.292 C7.379,15.471 6.940,14.603 6.543,13.705 C6.145,12.806 5.795,11.892 5.502,10.987 C5.360,10.547 5.552,10.069 5.947,9.871 L7.074,9.305 C7.562,9.062 7.837,8.494 7.742,7.929 L6.832,2.516 C6.766,2.124 6.537,1.794 6.204,1.610 C6.031,1.514 5.843,1.467 5.656,1.467 ZM8.487,15.616 C8.487,15.617 8.486,15.617 8.486,15.617 L8.487,15.616 ZM6.399,10.893 L6.398,10.893 C6.399,10.893 6.399,10.893 6.399,10.893 L6.399,10.893 Z"/>
</svg>