<svg 
 xmlns="http://www.w3.org/2000/svg"
 xmlns:xlink="http://www.w3.org/1999/xlink"
 width="15px" height="15px">
<path fill-rule="evenodd"  fill="rgb(0, 0, 0)"
 d="M10.435,10.597 C10.304,10.726 10.192,10.868 10.095,11.018 L5.784,8.438 C5.898,8.156 5.963,7.850 5.963,7.529 C5.963,7.208 5.898,6.902 5.785,6.620 L10.096,4.060 C10.538,4.746 11.315,5.203 12.199,5.203 C13.574,5.203 14.693,4.099 14.693,2.743 C14.693,1.387 13.574,0.283 12.199,0.283 C10.823,0.283 9.705,1.387 9.705,2.743 C9.705,3.052 9.765,3.346 9.871,3.619 L5.554,6.183 C5.108,5.513 4.340,5.069 3.469,5.069 C2.093,5.069 0.974,6.173 0.974,7.529 C0.974,8.885 2.093,9.989 3.469,9.989 C4.340,9.989 5.108,9.545 5.554,8.875 L9.870,11.458 C9.763,11.735 9.704,12.031 9.704,12.336 C9.704,12.993 9.964,13.612 10.435,14.076 C10.921,14.555 11.560,14.795 12.199,14.795 C12.837,14.795 13.476,14.555 13.962,14.076 C14.433,13.611 14.693,12.993 14.693,12.336 C14.693,11.679 14.433,11.062 13.962,10.597 C12.990,9.638 11.408,9.638 10.435,10.597 ZM12.199,0.775 C13.299,0.775 14.194,1.658 14.194,2.743 C14.194,3.828 13.299,4.711 12.199,4.711 C11.099,4.711 10.203,3.828 10.203,2.743 C10.203,1.658 11.098,0.775 12.199,0.775 ZM3.469,9.497 C2.368,9.497 1.473,8.614 1.473,7.529 C1.473,6.444 2.368,5.561 3.469,5.561 C4.569,5.561 5.464,6.444 5.464,7.529 C5.464,8.614 4.569,9.497 3.469,9.497 ZM13.609,13.728 C12.832,14.496 11.566,14.496 10.788,13.728 C10.411,13.356 10.203,12.862 10.203,12.336 C10.203,11.811 10.411,11.317 10.788,10.945 C11.177,10.561 11.688,10.370 12.199,10.370 C12.710,10.370 13.221,10.561 13.610,10.945 C13.987,11.317 14.194,11.811 14.194,12.336 C14.194,12.862 13.987,13.356 13.609,13.728 Z"/>
</svg>