<svg 
 xmlns="http://www.w3.org/2000/svg"
 xmlns:xlink="http://www.w3.org/1999/xlink"
 width="73px" height="71px">
<path fill-rule="evenodd"  fill="rgb(189, 166, 86)"
 d="M72.586,25.868 L72.551,26.541 L71.945,26.833 C71.903,26.853 67.538,28.951 66.026,29.615 L65.836,29.699 C63.001,30.945 59.788,32.357 56.535,32.357 L56.444,32.356 C52.160,32.321 48.962,29.814 45.869,27.389 C44.078,25.985 42.235,24.541 40.289,23.708 C39.447,23.348 38.491,23.051 37.369,22.803 L36.650,23.110 C35.664,23.532 34.140,24.246 32.527,25.001 C27.222,27.488 24.611,28.662 23.601,28.687 L23.425,28.689 C20.484,28.689 19.033,26.928 18.806,26.627 C18.451,26.785 18.116,26.929 17.812,27.056 L17.705,27.100 C16.177,27.733 14.596,28.389 13.023,28.389 C11.377,28.389 10.060,27.696 9.001,26.271 C6.248,27.852 5.711,28.089 5.549,28.128 C4.000,28.502 2.420,28.032 1.322,26.873 C0.430,25.930 -0.064,24.625 0.001,23.382 C0.035,22.727 0.035,22.727 4.952,19.172 C7.864,17.068 11.550,14.445 15.068,11.975 C20.653,8.052 30.331,1.336 32.402,0.435 C34.785,-0.602 38.410,0.186 43.176,2.775 C44.449,3.467 45.732,4.286 46.974,5.079 C49.967,6.992 53.056,8.965 56.354,9.419 C56.924,9.497 57.540,9.536 58.182,9.536 C62.254,9.536 66.994,7.989 70.802,6.745 L72.721,6.120 L72.845,7.544 C73.277,12.510 72.592,25.739 72.586,25.868 ZM23.563,27.049 C24.341,27.030 28.855,24.914 31.842,23.514 C32.744,23.091 33.619,22.681 34.389,22.327 C32.443,22.093 29.955,21.853 28.894,21.752 L28.759,21.745 L20.527,26.074 C21.045,26.518 22.013,27.085 23.563,27.049 ZM17.080,25.587 L17.185,25.542 C19.470,24.595 23.549,22.552 25.676,21.469 C24.652,21.317 23.837,21.106 23.146,20.815 C22.688,20.622 22.255,20.338 21.860,19.968 C21.619,19.764 21.414,19.541 21.251,19.307 C19.574,20.226 13.181,23.953 10.524,25.559 C12.263,27.580 14.604,26.611 17.080,25.587 ZM71.262,8.318 C66.621,9.833 60.883,11.693 56.131,11.041 C52.478,10.539 49.236,8.468 46.100,6.464 C44.828,5.650 43.627,4.883 42.396,4.215 C38.154,1.912 34.922,1.124 33.054,1.939 C29.502,3.482 3.598,22.224 1.632,23.678 C1.657,24.531 2.096,25.429 2.769,25.990 C3.445,26.552 4.296,26.745 5.166,26.535 C5.666,26.375 13.426,21.812 20.504,17.579 C20.499,17.472 20.494,17.346 20.489,17.244 C20.475,16.968 20.469,16.763 20.474,16.708 C20.641,14.730 21.989,12.326 27.470,12.094 C28.878,12.035 30.316,12.108 31.587,12.172 L31.687,12.177 C32.287,12.206 32.887,12.235 33.486,12.252 L34.484,12.281 C36.735,12.342 39.063,12.406 41.353,12.652 C43.915,12.925 46.339,13.765 48.765,15.219 C48.823,15.253 48.909,15.300 49.011,15.354 C49.847,15.799 50.598,16.251 50.622,16.886 C50.644,17.509 50.344,17.757 50.163,17.850 C49.603,18.143 48.859,17.714 47.923,16.984 L47.801,16.890 C45.639,15.314 43.342,14.535 40.124,14.287 C37.992,14.123 35.814,14.095 33.708,14.068 C32.437,14.052 31.130,14.035 29.829,13.989 L29.663,13.983 C29.161,13.965 28.603,13.945 28.020,13.945 C26.390,13.945 24.076,14.087 22.803,15.321 C22.244,15.864 22.013,16.573 22.154,17.320 C22.196,17.548 22.277,17.781 22.396,18.013 C23.830,19.735 25.589,19.842 27.452,19.956 L31.674,20.215 L31.514,20.298 C31.566,20.304 31.619,20.310 31.670,20.317 C32.101,20.371 32.535,20.423 32.969,20.474 C33.996,20.596 35.097,20.734 36.192,20.915 L36.476,20.958 L40.274,21.562 L39.787,21.769 C40.201,21.907 40.579,22.050 40.932,22.201 C43.080,23.121 45.008,24.634 46.874,26.096 C49.755,28.355 52.731,30.687 56.456,30.718 C56.458,30.718 56.462,30.718 56.464,30.718 C59.441,30.718 62.621,29.322 65.177,28.200 L65.368,28.116 C66.585,27.581 69.837,26.027 70.967,25.485 C71.050,23.770 71.547,13.070 71.262,8.318 ZM33.338,44.523 C29.050,44.523 25.561,41.029 25.561,36.734 C25.561,32.439 29.050,28.945 33.338,28.945 C34.194,28.945 35.037,29.086 35.844,29.362 C36.605,27.629 38.295,26.519 40.199,26.519 C41.726,26.519 43.132,27.264 44.019,28.468 L44.070,28.432 C44.207,28.624 44.328,28.835 44.430,29.061 C44.474,29.157 44.514,29.256 44.551,29.359 L44.566,29.394 C44.828,29.997 44.961,30.634 44.961,31.288 C44.961,33.574 43.302,35.555 41.072,35.972 C41.101,36.237 41.115,36.488 41.115,36.734 C41.115,41.029 37.626,44.523 33.338,44.523 ZM35.438,31.288 C35.438,31.213 35.440,31.140 35.444,31.067 C34.768,30.812 34.060,30.684 33.338,30.684 C30.007,30.684 27.297,33.398 27.297,36.734 C27.297,40.070 30.007,42.784 33.338,42.784 C36.669,42.784 39.379,40.070 39.379,36.734 C39.379,36.484 39.362,36.235 39.327,35.975 C37.065,35.559 35.438,33.610 35.438,31.288 ZM41.289,34.097 C41.694,33.940 42.047,33.712 42.339,33.419 L42.383,33.381 L42.533,33.504 L42.393,33.372 C42.930,32.807 43.225,32.067 43.225,31.288 C43.225,30.281 42.726,29.342 41.890,28.776 C41.390,28.437 40.806,28.258 40.199,28.258 C39.930,28.258 39.653,28.301 39.355,28.389 C39.269,28.414 39.186,28.444 39.103,28.477 C38.831,28.585 38.590,28.716 38.389,28.868 C38.130,29.063 37.905,29.295 37.719,29.559 C37.607,29.721 37.504,29.917 37.407,30.157 L37.375,30.233 C37.347,30.301 37.317,30.370 37.296,30.444 C37.263,30.559 37.237,30.679 37.218,30.802 C37.196,30.931 37.184,31.061 37.179,31.195 L37.176,31.253 C37.175,31.960 37.419,32.656 37.864,33.203 C37.999,33.371 38.172,33.534 38.395,33.702 C38.770,33.985 39.178,34.172 39.607,34.258 C39.734,34.284 39.862,34.297 39.992,34.307 C40.087,34.313 40.148,34.315 40.202,34.316 C40.233,34.316 40.261,34.315 40.292,34.313 L40.293,34.313 L40.354,34.309 C40.655,34.294 40.960,34.224 41.289,34.097 ZM0.432,44.446 L1.040,44.155 C1.073,44.138 5.457,42.030 6.958,41.372 L7.148,41.288 C9.983,40.042 13.195,38.630 16.448,38.630 L16.540,38.631 C20.822,38.666 24.022,41.174 27.116,43.599 C28.902,44.999 30.747,46.445 32.696,47.279 C33.538,47.640 34.493,47.937 35.614,48.184 L36.333,47.877 C37.283,47.471 38.808,46.757 40.283,46.066 L40.456,45.985 C45.763,43.498 48.375,42.325 49.381,42.300 L49.558,42.298 C52.507,42.298 53.924,44.018 54.178,44.360 C54.533,44.202 54.868,44.057 55.172,43.931 L55.277,43.887 C56.806,43.254 58.387,42.598 59.961,42.598 C61.608,42.598 62.925,43.290 63.983,44.716 C66.738,43.134 67.273,42.898 67.435,42.859 C68.985,42.486 70.565,42.956 71.661,44.114 C72.554,45.057 73.048,46.361 72.982,47.605 C72.947,48.261 72.947,48.261 68.031,51.815 C65.154,53.895 61.467,56.518 57.916,59.012 C52.333,62.934 42.655,69.649 40.582,70.552 C39.899,70.848 39.110,70.998 38.236,70.998 C36.048,70.998 33.212,70.061 29.808,68.213 C28.537,67.523 27.264,66.709 26.032,65.923 C23.015,63.995 19.926,62.022 16.630,61.569 C16.059,61.491 15.443,61.451 14.802,61.451 C10.735,61.451 5.996,62.997 2.188,64.240 L0.262,64.867 L0.137,63.445 C-0.292,58.511 0.391,45.254 0.397,45.121 L0.432,44.446 ZM49.421,43.939 C48.644,43.957 44.132,46.071 41.145,47.471 C40.235,47.898 39.362,48.307 38.595,48.659 C40.543,48.895 43.030,49.134 44.090,49.235 L44.225,49.242 L52.456,44.913 C51.938,44.469 50.957,43.895 49.421,43.939 ZM55.904,45.401 L55.797,45.445 C53.520,46.389 49.437,48.435 47.307,49.518 C48.331,49.670 49.146,49.880 49.838,50.172 C50.297,50.365 50.729,50.650 51.124,51.019 C51.364,51.222 51.569,51.445 51.733,51.681 C53.410,50.761 59.803,47.033 62.460,45.427 C60.718,43.406 58.379,44.374 55.904,45.401 ZM1.722,62.670 C5.639,61.390 10.495,59.811 14.783,59.811 C15.509,59.811 16.205,59.856 16.853,59.946 C20.504,60.448 23.746,62.519 26.882,64.522 C28.159,65.338 29.363,66.107 30.588,66.772 C34.829,69.074 38.059,69.863 39.930,69.048 C43.528,67.485 69.361,48.782 71.351,47.309 C71.327,46.455 70.888,45.557 70.214,44.997 C69.541,44.435 68.688,44.240 67.819,44.452 C67.321,44.611 59.561,49.174 52.481,53.407 C52.484,53.492 52.487,53.588 52.491,53.674 L52.496,53.782 C52.505,53.969 52.516,54.207 52.509,54.284 C52.343,56.258 50.995,58.660 45.513,58.893 C44.126,58.950 42.739,58.882 41.397,58.816 C40.764,58.784 40.130,58.752 39.498,58.734 L38.499,58.706 C36.232,58.643 33.911,58.580 31.631,58.335 C29.071,58.062 26.646,57.223 24.219,55.768 C24.160,55.733 24.073,55.686 23.971,55.633 C23.136,55.187 22.385,54.735 22.363,54.099 C22.340,53.478 22.640,53.230 22.822,53.137 C23.387,52.845 24.098,53.253 25.061,54.003 L25.183,54.096 C27.346,55.672 29.642,56.452 32.860,56.701 C35.003,56.864 37.178,56.892 39.282,56.919 C40.546,56.935 41.854,56.952 43.154,56.997 L43.320,57.004 C45.426,57.080 48.602,57.196 50.179,55.666 C50.739,55.124 50.970,54.415 50.830,53.667 C50.786,53.435 50.704,53.201 50.587,52.971 C49.153,51.254 47.394,51.145 45.532,51.031 L41.306,50.772 L41.468,50.688 C41.416,50.682 41.365,50.676 41.314,50.670 C40.883,50.615 40.450,50.564 40.015,50.513 C39.051,50.399 37.915,50.257 36.805,50.075 L32.711,49.426 L33.198,49.218 C32.781,49.078 32.403,48.936 32.052,48.786 C29.905,47.867 27.975,46.355 26.110,44.892 C23.230,42.633 20.254,40.299 16.527,40.268 L16.448,40.268 C13.541,40.268 10.495,41.607 7.806,42.787 L7.616,42.872 C6.399,43.406 3.147,44.960 2.016,45.502 C1.934,47.217 1.436,57.918 1.722,62.670 Z"/>
</svg>