<svg xmlns="http://www.w3.org/2000/svg" width="29.813" height="36.906" viewBox="0 0 29.813 36.906">
  <metadata><?xpacket begin="﻿" id="W5M0MpCehiHzreSzNTczkc9d"?>
<x:xmpmeta xmlns:x="adobe:ns:meta/" x:xmptk="Adobe XMP Core 5.6-c142 79.160924, 2017/07/13-01:06:39        ">
   <rdf:RDF xmlns:rdf="http://www.w3.org/1999/02/22-rdf-syntax-ns#">
      <rdf:Description rdf:about=""/>
   </rdf:RDF>
</x:xmpmeta>
                                                                                                    
                                                                                                    
                                                                                                    
                                                                                                    
                                                                                                    
                                                                                                    
                                                                                                    
                                                                                                    
                                                                                                    
                                                                                                    
                                                                                                    
                                                                                                    
                                                                                                    
                                                                                                    
                                                                                                    
                                                                                                    
                                                                                                    
                                                                                                    
                                                                                                    
                                                                                                    
                           
<?xpacket end="w"?></metadata>
<defs>
    <style>
      .cls-1 {
        fill: #fff;
        fill-rule: evenodd;
      }
    </style>
  </defs>
  <path class="cls-1" d="M20.558,31.658a13.886,13.886,0,0,0,6.948-20.926c-3.7-5.81-11.091-7.385-16.982-5.36A14.345,14.345,0,0,0,3.981,9.937Q2.657,5.282,1.328.628A0.655,0.655,0,0,0,.524.094a0.619,0.619,0,0,0-.41.849Q1.579,6.09,3.049,11.236A13.335,13.335,0,0,0,1.949,23.6,14.789,14.789,0,0,0,14.936,32.5v3.289H14.581q-1.972,0-3.944,0A0.613,0.613,0,1,0,10.631,37q4.954,0,9.907,0a0.96,0.96,0,0,0,.337-0.051,0.591,0.591,0,0,0,.379-0.659,0.631,0.631,0,0,0-.661-0.492c-1.325,0-2.651,0-3.976,0H16.236V32.5A14.806,14.806,0,0,0,20.558,31.658ZM23.776,8.663c1.026,0.4,2.6,2.815,2.958,3.4a13,13,0,0,1,1.619,4.01c0.149,0.686.746,3.576-.051,3.89l-0.788.31q-2.7,1.062-5.393,2.135Q19.1,23.6,16.086,24.8a1.739,1.739,0,0,1-2.541-1.432,1.558,1.558,0,0,1,1.109-1.673q1.976-.786,3.954-1.568l2.789-1.1q0.563-.223,1.126-0.448a2.833,2.833,0,0,0,1.595-3.6,3.067,3.067,0,0,0-3.783-1.492,7.009,7.009,0,0,1-1.125.383,1.64,1.64,0,0,1-1.939-1.242,1.492,1.492,0,0,1,.854-1.921c1.728-.714,3.473-1.391,5.218-2.067A0.593,0.593,0,0,1,23.776,8.663ZM3.184,16.585c1.109-.372,2.185-0.836,3.268-1.279a1.747,1.747,0,0,1,2.538,1.509,1.464,1.464,0,0,1-.93,1.512c-1.809.74-3.628,1.451-5.446,2.164a0.472,0.472,0,0,1-.1.006,14.876,14.876,0,0,1-.181-2.771A1.039,1.039,0,0,1,3.184,16.585Zm9.127,14.168a12.614,12.614,0,0,1-7.977-5.589,13.763,13.763,0,0,1-1.373-2.841c-0.1-.288-0.032-0.394.254-0.5L3.793,21.6q1.87-.727,3.73-1.473,0.47-.189.94-0.381a3.18,3.18,0,0,0,1.669-4.289A3.488,3.488,0,0,0,6.092,13.9c-0.981.36-1.946,0.761-2.919,1.144l-0.309.123L2.8,15.093a13.664,13.664,0,0,1,.786-1.977,12.21,12.21,0,0,1,.871-1.5h0a12.394,12.394,0,0,1,4.769-4.1A13.538,13.538,0,0,1,21.893,7.5l0.023,0.1c-0.1.043-.191,0.09-0.288,0.128-1.282.509-2.566,1.013-3.846,1.527a3.17,3.17,0,0,0-1.708,4.363,3.535,3.535,0,0,0,3.979,1.526c0.3-.1.585-0.226,0.878-0.338a1.263,1.263,0,0,1,1.765.663,1.167,1.167,0,0,1-.687,1.733c-1.032.428-2.078,0.828-3.117,1.24l-1.45.573q-1.389.548-2.778,1.1l-0.58.234A3.181,3.181,0,0,0,12.4,24.664a3.49,3.49,0,0,0,4.164,1.5c1.725-.668,3.441-1.357,5.161-2.039l5.6-2.215,0.614-.243c0.084-.034.173-0.06,0.322-0.11-0.031.145-.045,0.247-0.074,0.346a12.137,12.137,0,0,1-5.4,7.07A13.432,13.432,0,0,1,12.311,30.754Z" transform="translate(-0.094 -0.094)"/>
</svg>
