<svg 
 xmlns="http://www.w3.org/2000/svg"
 xmlns:xlink="http://www.w3.org/1999/xlink"
 width="26px" height="25px">
<path fill-rule="evenodd"  fill="rgb(20, 64, 149)"
 d="M25.499,24.461 L1.280,24.461 C1.227,24.461 1.170,24.449 1.108,24.427 C0.988,24.380 0.893,24.289 0.842,24.171 C0.791,24.053 0.788,23.923 0.834,23.804 L3.814,16.215 C3.883,16.033 4.062,15.911 4.259,15.911 L8.843,15.911 C8.975,15.911 9.098,15.964 9.188,16.060 C9.280,16.156 9.326,16.282 9.318,16.413 C9.299,16.667 9.081,16.864 8.822,16.864 L4.563,16.865 L1.955,23.508 L24.769,23.508 L21.673,16.864 L17.426,16.864 C17.294,16.864 17.171,16.812 17.081,16.716 C16.990,16.620 16.943,16.494 16.950,16.363 C16.970,16.109 17.188,15.911 17.447,15.911 L21.962,15.911 C22.149,15.911 22.320,16.019 22.398,16.187 L25.935,23.773 C25.965,23.838 25.980,23.907 25.980,23.979 C25.980,24.245 25.764,24.461 25.499,24.461 ZM13.482,19.268 C13.399,19.356 13.275,19.408 13.143,19.410 C13.141,19.410 13.138,19.410 13.136,19.410 C13.004,19.410 12.879,19.361 12.795,19.276 C12.135,18.575 6.341,12.286 6.341,7.277 C6.341,3.387 9.390,0.222 13.137,0.222 C16.885,0.222 19.933,3.387 19.933,7.277 C19.933,12.477 13.746,18.993 13.482,19.268 L13.482,19.268 ZM13.137,1.186 C9.920,1.186 7.303,3.919 7.303,7.277 C7.303,11.170 11.272,16.104 12.979,18.045 L13.137,18.224 L13.295,18.045 C15.002,16.105 18.971,11.172 18.971,7.277 C18.971,3.919 16.354,1.186 13.137,1.186 ZM9.877,7.541 C9.877,5.739 11.340,4.274 13.137,4.274 C14.934,4.274 16.397,5.739 16.397,7.541 C16.397,9.343 14.934,10.808 13.137,10.808 C11.340,10.808 9.877,9.343 9.877,7.541 ZM15.435,7.541 C15.435,6.271 14.404,5.238 13.137,5.238 C11.870,5.238 10.839,6.271 10.839,7.541 C10.839,8.811 11.870,9.845 13.137,9.845 C14.404,9.845 15.435,8.811 15.435,7.541 Z"/>
</svg>