<svg 
 xmlns="http://www.w3.org/2000/svg"
 xmlns:xlink="http://www.w3.org/1999/xlink"
 width="24px" height="34px">
<path fill-rule="evenodd"  fill="rgb(20, 64, 149)"
 d="M20.352,16.452 L20.352,16.452 C22.520,17.220 23.445,18.238 23.445,19.855 C23.445,21.472 22.254,22.644 20.337,22.913 L20.228,22.928 L20.228,24.852 L19.220,24.852 L19.220,22.973 L19.095,22.971 C17.881,22.951 16.761,22.514 16.129,22.125 L16.551,20.950 C17.246,21.387 18.343,21.821 19.499,21.821 C21.071,21.821 22.010,21.147 22.010,20.016 C22.010,18.802 20.834,18.213 19.562,17.756 C17.235,16.962 16.287,16.023 16.287,14.514 C16.287,13.006 17.416,11.903 19.233,11.637 L19.341,11.621 L19.341,9.758 L20.370,9.758 L20.370,11.575 L20.493,11.579 C21.721,11.619 22.544,11.969 22.968,12.208 L22.527,13.375 C22.034,13.114 21.189,12.709 19.968,12.709 C18.312,12.709 17.722,13.538 17.722,14.314 C17.722,15.337 18.497,15.782 20.352,16.452 ZM20.910,5.145 C20.906,5.157 20.903,5.171 20.897,5.182 C20.892,5.193 20.886,5.203 20.868,5.231 L20.843,5.274 C20.822,5.304 20.798,5.330 20.772,5.354 L17.272,8.580 C17.164,8.680 17.023,8.741 16.877,8.727 C16.729,8.723 16.593,8.662 16.492,8.557 C16.284,8.339 16.295,7.995 16.517,7.790 L19.054,5.451 L3.493,5.319 L3.585,4.238 L19.074,4.368 L16.707,1.891 C16.607,1.786 16.554,1.648 16.558,1.503 C16.563,1.359 16.625,1.225 16.732,1.126 C16.840,1.027 16.986,0.970 17.127,0.979 C17.274,0.984 17.411,1.044 17.512,1.150 L20.797,4.588 C20.822,4.614 20.844,4.643 20.874,4.694 L20.895,4.736 C20.900,4.746 20.906,4.756 20.911,4.769 C20.915,4.779 20.917,4.790 20.925,4.823 L20.939,4.870 C20.951,4.941 20.948,5.012 20.925,5.103 L20.910,5.145 ZM8.140,14.214 L8.140,18.282 L7.309,18.282 L7.309,14.995 C7.309,13.255 6.586,12.949 5.068,12.949 L1.530,12.949 L1.530,23.079 L0.450,23.079 L0.450,11.531 L5.794,11.531 C7.614,11.531 8.140,12.132 8.140,14.214 ZM11.729,11.531 L11.729,23.079 L6.203,23.079 C4.281,23.079 3.971,22.157 3.971,19.950 L3.991,16.461 L4.823,16.461 L4.823,19.837 C4.823,21.660 6.323,21.660 7.316,21.660 L10.627,21.660 L10.627,11.531 L11.729,11.531 ZM3.528,29.862 C3.532,29.850 3.538,29.840 3.554,29.810 L3.575,29.767 C3.594,29.737 3.616,29.708 3.642,29.682 L6.926,26.243 C7.035,26.130 7.182,26.073 7.329,26.073 C7.464,26.073 7.600,26.121 7.707,26.219 C7.928,26.424 7.939,26.767 7.731,26.985 L5.365,29.462 L20.853,29.332 L20.946,30.413 L5.384,30.546 L7.922,32.884 C8.029,32.983 8.091,33.117 8.095,33.262 C8.100,33.407 8.047,33.544 7.946,33.650 C7.846,33.755 7.709,33.816 7.562,33.821 C7.417,33.827 7.274,33.773 7.167,33.674 L3.666,30.447 C3.640,30.423 3.616,30.396 3.582,30.344 L3.560,30.308 C3.553,30.297 3.547,30.288 3.541,30.275 C3.536,30.263 3.532,30.250 3.522,30.218 L3.507,30.176 C3.490,30.106 3.488,30.034 3.506,29.940 L3.518,29.896 C3.521,29.884 3.524,29.873 3.528,29.862 Z"/>
</svg>