<svg 
 xmlns="http://www.w3.org/2000/svg"
 xmlns:xlink="http://www.w3.org/1999/xlink"
 width="27px" height="27px">
<path fill-rule="evenodd"  fill="rgb(20, 64, 149)"
 d="M25.910,11.727 L25.899,11.620 C25.580,8.467 24.044,5.640 21.687,3.864 L21.602,3.800 L22.229,2.902 L22.320,2.970 C24.940,4.934 26.642,8.056 26.989,11.533 L27.000,11.645 L25.910,11.727 ZM22.796,19.366 L25.351,21.926 C25.454,22.030 25.511,22.167 25.511,22.314 L25.511,23.673 C25.511,23.975 25.266,24.221 24.965,24.221 L16.643,24.221 L16.599,24.398 C16.517,24.721 16.413,24.952 16.383,25.015 L16.371,25.045 C16.005,26.091 15.115,26.839 14.049,26.992 C14.023,26.995 13.997,26.997 13.972,26.997 L13.429,26.997 C11.899,26.997 10.558,25.908 10.241,24.408 L10.201,24.221 L1.893,24.221 C1.591,24.221 1.346,23.975 1.346,23.673 L1.346,22.314 C1.346,22.167 1.403,22.030 1.506,21.926 L4.061,19.366 L4.061,12.111 C4.061,7.909 6.659,4.399 10.681,3.168 L10.847,3.117 L10.847,2.588 C10.847,1.186 12.029,0.000 13.429,0.000 C14.828,0.000 16.010,1.186 16.010,2.588 L16.010,3.117 L16.176,3.168 C20.198,4.399 22.796,7.909 22.796,12.111 L22.796,19.366 ZM11.445,24.608 C11.794,25.394 12.573,25.902 13.429,25.902 L13.962,25.897 C14.605,25.784 15.130,25.315 15.354,24.644 L15.512,24.277 L11.299,24.277 L11.445,24.608 ZM21.704,19.593 L21.704,12.111 C21.704,8.225 19.145,4.995 15.336,4.073 C15.090,4.014 14.918,3.795 14.918,3.541 L14.918,2.588 C14.918,1.793 14.222,1.096 13.429,1.096 C12.635,1.096 11.939,1.793 11.939,2.588 L11.939,3.541 C11.939,3.794 11.767,4.013 11.521,4.073 C7.712,4.995 5.153,8.225 5.153,12.111 L5.153,19.593 C5.153,19.739 5.097,19.876 4.993,19.980 L2.439,22.540 L2.439,23.126 L24.418,23.126 L24.418,22.540 L21.863,19.980 C21.760,19.876 21.704,19.738 21.704,19.593 ZM1.101,11.620 L1.090,11.727 L0.000,11.645 L0.012,11.533 C0.364,8.016 2.117,4.890 4.823,2.957 L4.916,2.890 L5.521,3.802 L5.434,3.864 C2.966,5.632 1.427,8.387 1.101,11.620 Z"/>
</svg>