<svg 
 xmlns="http://www.w3.org/2000/svg"
 xmlns:xlink="http://www.w3.org/1999/xlink"
 width="25px" height="29px">
<path fill-rule="evenodd"  fill="rgb(19, 63, 149)"
 d="M23.983,25.320 L18.707,25.320 C18.463,25.320 18.265,25.120 18.265,24.874 L18.265,8.053 C18.265,7.807 18.463,7.607 18.707,7.607 L23.983,7.607 C24.226,7.607 24.424,7.807 24.424,8.053 L24.424,24.874 C24.424,25.120 24.226,25.320 23.983,25.320 ZM23.541,8.498 L19.148,8.498 L19.148,24.429 L23.541,24.429 L23.541,8.498 ZM20.310,4.250 C20.045,4.287 19.836,4.131 19.798,3.877 L19.557,2.276 L12.725,10.226 C12.642,10.323 12.511,10.375 12.383,10.375 C12.310,10.375 12.237,10.358 12.175,10.323 L3.815,5.551 C3.603,5.429 3.529,5.157 3.649,4.943 C3.700,4.850 3.801,4.776 3.917,4.743 C4.031,4.710 4.156,4.722 4.250,4.776 L12.294,9.367 L18.443,2.212 L17.390,2.280 C17.380,2.280 17.370,2.280 17.360,2.280 C17.156,2.280 16.973,2.138 16.925,1.939 C16.899,1.822 16.918,1.702 16.981,1.600 C17.043,1.500 17.141,1.429 17.256,1.402 L19.752,0.815 C19.860,0.790 20.004,0.817 20.095,0.879 C20.198,0.949 20.267,1.060 20.286,1.182 L20.671,3.744 C20.689,3.862 20.660,3.979 20.590,4.075 C20.521,4.169 20.419,4.233 20.310,4.250 ZM7.105,12.524 L7.105,24.874 C7.105,25.120 6.907,25.320 6.664,25.320 L0.965,25.320 C0.722,25.320 0.524,25.120 0.524,24.874 L0.524,12.524 C0.524,12.279 0.722,12.079 0.965,12.079 L6.664,12.079 C6.907,12.079 7.105,12.279 7.105,12.524 ZM6.222,12.970 L1.407,12.970 L1.407,24.429 L6.222,24.429 L6.222,12.970 ZM9.941,25.320 C9.698,25.320 9.500,25.120 9.500,24.874 L9.500,17.848 C9.500,17.602 9.698,17.403 9.941,17.403 L15.217,17.403 C15.461,17.403 15.659,17.602 15.659,17.848 L15.659,24.874 C15.659,25.120 15.461,25.320 15.217,25.320 L9.941,25.320 ZM14.776,18.293 L10.382,18.293 L10.382,24.429 L14.776,24.429 L14.776,18.293 ZM1.394,27.843 L23.976,27.843 C24.219,27.843 24.417,28.043 24.417,28.288 C24.417,28.533 24.219,28.733 23.976,28.733 L1.394,28.733 C1.150,28.733 0.952,28.533 0.952,28.288 C0.952,28.043 1.150,27.843 1.394,27.843 Z"/>
</svg>