<svg 
 xmlns="http://www.w3.org/2000/svg"
 xmlns:xlink="http://www.w3.org/1999/xlink"
 width="28px" height="28px">
<path fill-rule="evenodd"  fill="rgb(255, 193, 14)"
 d="M19.284,27.523 L19.284,24.897 C19.284,23.249 20.739,22.783 21.598,22.767 L25.204,22.767 C26.066,22.786 27.523,23.256 27.523,24.897 L27.523,27.523 L19.284,27.523 ZM26.336,24.897 C26.336,24.322 25.908,23.970 25.190,23.954 L21.581,23.954 C21.080,23.975 20.470,24.156 20.470,24.897 L20.470,26.336 L26.336,26.336 L26.336,24.897 ZM23.403,21.581 C21.971,21.581 20.807,20.424 20.807,19.002 C20.807,17.580 21.971,16.423 23.403,16.423 C24.835,16.423 26.000,17.580 26.000,19.002 C26.000,20.424 24.835,21.581 23.403,21.581 ZM23.403,17.610 C22.626,17.610 21.994,18.234 21.994,19.002 C21.994,19.770 22.626,20.394 23.403,20.394 C24.181,20.394 24.813,19.770 24.813,19.002 C24.813,18.234 24.181,17.610 23.403,17.610 ZM19.111,15.140 L16.698,15.140 L16.698,20.270 L10.259,15.140 L2.573,15.140 C1.417,15.140 0.476,14.202 0.476,13.049 L0.476,2.568 C0.476,1.415 1.417,0.477 2.573,0.477 L19.111,0.477 C20.267,0.477 21.207,1.415 21.207,2.568 L21.207,13.049 C21.207,14.202 20.267,15.140 19.111,15.140 ZM20.022,2.568 C20.022,2.069 19.613,1.664 19.111,1.664 L2.573,1.664 C2.071,1.664 1.663,2.069 1.663,2.568 L1.663,13.049 C1.663,13.539 2.080,13.953 2.573,13.953 L10.673,13.953 L15.511,17.806 L15.511,13.953 L19.111,13.953 C19.604,13.953 20.022,13.539 20.022,13.049 L20.022,2.568 ZM10.358,8.783 L17.339,8.783 L17.339,9.790 L10.358,9.790 L10.358,8.783 ZM6.903,5.808 L17.339,5.808 L17.339,6.815 L6.903,6.815 L6.903,5.808 ZM4.345,5.808 L5.422,5.808 L5.422,6.815 L4.345,6.815 L4.345,5.808 Z"/>
</svg>