<svg 
 xmlns="http://www.w3.org/2000/svg"
 xmlns:xlink="http://www.w3.org/1999/xlink"
 width="34px" height="34px">
<path fill-rule="evenodd"  fill="rgb(255, 193, 14)"
 d="M23.606,33.903 L23.606,30.621 C23.606,28.562 25.424,27.978 26.498,27.958 L31.005,27.958 C32.082,27.982 33.903,28.570 33.903,30.621 L33.903,33.903 L23.606,33.903 ZM32.420,30.621 C32.420,29.903 31.884,29.462 30.987,29.442 L26.476,29.442 C25.849,29.469 25.088,29.695 25.088,30.621 L25.088,32.420 L32.420,32.420 L32.420,30.621 ZM28.754,26.476 C26.964,26.476 25.508,25.030 25.508,23.253 C25.508,21.475 26.964,20.029 28.754,20.029 C30.544,20.029 32.000,21.475 32.000,23.253 C32.000,25.030 30.544,26.476 28.754,26.476 ZM28.754,21.512 C27.783,21.512 26.992,22.293 26.992,23.253 C26.992,24.212 27.783,24.993 28.754,24.993 C29.726,24.993 30.517,24.212 30.517,23.253 C30.517,22.293 29.726,21.512 28.754,21.512 ZM23.388,18.425 L20.372,18.425 L20.372,24.837 L12.324,18.425 L2.716,18.425 C1.271,18.425 0.096,17.253 0.096,15.811 L0.096,2.710 C0.096,1.269 1.271,0.096 2.716,0.096 L23.388,0.096 C24.833,0.096 26.009,1.269 26.009,2.710 L26.009,15.811 C26.009,17.253 24.833,18.425 23.388,18.425 ZM24.527,2.710 C24.527,2.087 24.016,1.580 23.388,1.580 L2.716,1.580 C2.089,1.580 1.579,2.087 1.579,2.710 L1.579,15.811 C1.579,16.424 2.099,16.941 2.716,16.941 L12.841,16.941 L18.888,21.758 L18.888,16.941 L23.388,16.941 C24.005,16.941 24.527,16.424 24.527,15.811 L24.527,2.710 ZM12.448,10.479 L21.174,10.479 L21.174,11.738 L12.448,11.738 L12.448,10.479 ZM8.129,6.760 L21.174,6.760 L21.174,8.019 L8.129,8.019 L8.129,6.760 ZM4.931,6.760 L6.278,6.760 L6.278,8.019 L4.931,8.019 L4.931,6.760 Z"/>
</svg>