<svg 
 xmlns="http://www.w3.org/2000/svg"
 xmlns:xlink="http://www.w3.org/1999/xlink"
 width="23px" height="22px">
<path fill-rule="evenodd"  fill="rgb(20, 64, 149)"
 d="M21.324,5.472 L21.324,5.489 L20.653,5.489 L20.653,5.472 L2.141,5.472 L2.141,19.425 L1.468,19.425 L1.468,5.472 L0.037,5.472 L0.037,2.045 L2.713,2.045 L2.713,0.243 L20.369,0.243 L20.369,2.045 L22.756,2.045 L22.756,5.472 L21.324,5.472 ZM22.083,2.726 L7.852,2.726 L7.852,2.045 L19.697,2.045 L19.697,0.958 L3.386,0.958 L3.386,2.045 L3.453,2.045 L3.453,2.726 L0.709,2.726 L0.709,4.791 L22.083,4.791 L22.083,2.726 ZM7.629,8.365 L7.629,14.163 L3.963,14.163 L3.963,8.365 L7.629,8.365 ZM4.565,13.553 L7.027,13.553 L7.027,11.564 L4.565,11.564 L4.565,13.553 ZM4.565,10.954 L7.027,10.954 L7.027,8.975 L4.565,8.975 L4.565,10.954 ZM18.617,8.365 L18.617,14.163 L14.951,14.163 L14.951,8.365 L18.617,8.365 ZM15.554,13.553 L18.015,13.553 L18.015,11.564 L15.554,11.564 L15.554,13.553 ZM15.554,10.954 L18.015,10.954 L18.015,8.975 L15.554,8.975 L15.554,10.954 ZM2.141,21.297 L9.180,21.383 L9.180,17.328 L13.565,17.243 L13.565,21.301 L20.547,21.197 L20.586,21.196 L20.644,7.390 L21.324,7.390 L21.324,21.863 L1.468,21.977 L1.468,21.207 L2.141,21.207 L2.141,21.297 ZM11.570,21.251 L13.071,21.251 L13.071,17.743 L11.570,17.743 L11.570,21.251 ZM9.690,21.256 L11.124,21.256 L11.124,17.739 L9.690,17.739 L9.690,21.256 Z"/>
</svg>