<svg 
 xmlns="http://www.w3.org/2000/svg"
 xmlns:xlink="http://www.w3.org/1999/xlink"
 width="17px" height="24px">
<path fill-rule="evenodd"  fill="rgb(255, 193, 14)"
 d="M15.192,13.966 L8.680,23.291 L2.136,13.921 C-0.277,10.732 0.082,5.452 2.919,2.640 C4.456,1.116 6.502,0.276 8.680,0.276 C10.859,0.276 12.905,1.116 14.442,2.640 C17.278,5.451 17.628,10.744 15.192,13.966 ZM13.620,3.454 C12.303,2.148 10.549,1.429 8.680,1.429 C6.812,1.429 5.058,2.148 3.740,3.454 C1.283,5.890 0.974,10.467 3.078,13.247 L8.680,21.267 L14.249,13.292 C16.377,10.479 16.077,5.890 13.620,3.454 ZM8.751,11.538 C6.939,11.538 5.465,10.077 5.465,8.281 C5.465,6.485 6.939,5.024 8.751,5.024 C10.563,5.024 12.036,6.485 12.036,8.281 C12.036,10.077 10.563,11.538 8.751,11.538 ZM8.751,6.177 C7.580,6.177 6.627,7.120 6.627,8.281 C6.627,9.441 7.580,10.386 8.751,10.386 C9.922,10.386 10.874,9.441 10.874,8.281 C10.874,7.120 9.922,6.177 8.751,6.177 Z"/>
</svg>