<svg 
 xmlns="http://www.w3.org/2000/svg"
 xmlns:xlink="http://www.w3.org/1999/xlink"
 width="83px" height="12px">
<path fill-rule="evenodd"  fill="rgb(255, 255, 255)"
 d="M82.582,9.482 L79.139,9.482 L76.158,6.652 L76.020,6.693 L76.539,9.482 L73.516,9.482 L73.117,7.331 C72.957,6.471 73.134,5.388 74.592,5.028 L71.932,2.517 L75.245,2.517 L78.306,5.388 L78.452,5.388 L77.918,2.517 L80.939,2.517 L81.339,4.667 C81.501,5.541 81.307,6.526 79.773,6.873 L82.582,9.482 ZM69.442,9.482 L68.154,2.544 L71.262,2.544 L72.552,9.482 L69.442,9.482 ZM67.109,9.482 L59.947,9.482 C59.981,8.733 60.269,8.095 60.698,7.900 L64.127,7.900 L58.550,2.517 L62.109,2.517 L64.438,4.806 L64.553,4.639 L64.159,2.517 L67.180,2.517 L67.477,4.112 C67.639,4.986 67.703,6.110 66.169,6.457 L67.593,7.706 C67.820,7.914 68.039,8.233 68.088,8.497 C68.186,9.024 67.821,9.482 67.109,9.482 ZM59.664,9.482 L56.657,9.482 L55.842,5.097 C55.726,4.473 55.591,4.056 54.632,4.056 L52.569,4.056 C52.176,3.737 51.756,3.279 51.470,2.517 L55.827,2.517 C57.513,2.517 58.466,3.030 58.798,4.819 L59.664,9.482 ZM45.442,5.111 C45.326,4.487 44.987,4.071 44.231,4.071 L41.004,4.056 C40.627,3.751 40.156,3.252 39.904,2.517 L45.439,2.517 C47.022,2.517 48.103,3.169 48.436,4.958 L49.276,9.482 L46.254,9.482 L45.442,5.111 ZM37.650,9.482 L36.827,5.056 C36.711,4.431 36.438,4.056 35.741,4.056 L35.058,4.056 C34.928,4.056 34.887,4.154 34.916,4.306 L35.877,9.482 L32.870,9.482 L31.718,3.279 C31.599,2.641 31.750,2.517 32.375,2.517 L36.763,2.517 C38.462,2.517 39.461,3.043 39.793,4.833 L40.657,9.482 L37.650,9.482 ZM30.021,6.845 C29.483,6.845 28.964,6.790 28.531,6.652 L27.763,2.516 L30.771,2.516 L31.539,6.652 C31.085,6.790 30.558,6.845 30.021,6.845 ZM26.266,6.845 C25.728,6.845 25.209,6.790 24.776,6.652 L24.008,2.516 L27.016,2.516 L27.784,6.652 C27.330,6.790 26.803,6.845 26.266,6.845 ZM20.539,9.482 L17.953,9.482 C17.923,9.010 18.161,8.177 18.502,7.900 L19.533,7.900 C20.361,7.900 20.720,7.484 20.692,6.790 L20.633,4.750 C20.632,4.667 20.634,4.598 20.621,4.528 C20.567,4.237 20.407,4.084 20.000,4.084 L17.081,4.084 C16.514,4.084 16.005,3.612 15.894,3.015 L15.492,0.851 C15.792,0.670 16.232,0.532 16.915,0.532 C17.597,0.532 18.049,0.615 18.386,0.712 L18.670,2.238 C18.698,2.391 18.823,2.516 18.998,2.516 L21.845,2.516 C22.935,2.516 23.431,3.154 23.565,3.876 C23.585,3.987 23.589,4.084 23.595,4.195 L23.713,6.859 C23.793,8.622 22.441,9.482 20.539,9.482 ZM12.805,9.544 C12.668,9.548 12.494,9.470 12.352,9.357 L10.951,8.244 C10.656,8.011 10.540,7.717 10.679,7.575 L11.953,6.274 C12.078,6.146 11.986,5.865 11.710,5.645 L10.455,4.643 C10.155,4.404 10.025,4.107 10.169,3.963 L11.476,2.650 C11.574,2.551 11.694,2.467 11.884,2.466 L13.666,2.451 C13.809,2.450 13.942,2.599 13.885,2.657 L12.586,3.990 C12.459,4.120 12.589,4.404 12.857,4.621 L14.065,5.599 C14.363,5.841 14.492,6.134 14.350,6.280 L13.098,7.563 C12.967,7.698 13.057,7.979 13.333,8.196 L14.665,9.251 C14.894,9.432 14.807,9.500 14.703,9.502 L12.805,9.544 ZM8.600,9.247 C8.467,9.382 8.559,9.663 8.835,9.881 L10.186,10.948 C10.369,11.092 10.360,11.191 10.198,11.193 L8.307,11.229 C8.170,11.231 7.997,11.155 7.854,11.041 L6.453,9.929 C6.159,9.695 6.042,9.402 6.182,9.259 L7.454,7.958 C7.581,7.830 7.489,7.550 7.212,7.328 L6.097,6.439 C5.804,6.205 5.686,5.912 5.826,5.769 L7.099,4.469 C7.225,4.340 7.134,4.059 6.857,3.839 L5.602,2.837 C5.301,2.597 5.172,2.301 5.316,2.157 L6.622,0.844 C6.720,0.746 6.841,0.662 7.031,0.660 L8.817,0.648 C8.932,0.643 9.094,0.782 9.026,0.857 L7.733,2.185 C7.605,2.315 7.736,2.598 8.005,2.815 L9.212,3.794 C9.510,4.035 9.640,4.328 9.497,4.473 L8.244,5.757 C8.113,5.893 8.211,6.167 8.479,6.391 L9.568,7.284 C9.865,7.525 9.995,7.818 9.853,7.963 L8.600,9.247 ZM3.700,7.592 C3.568,7.727 3.659,8.008 3.934,8.226 L5.266,9.280 C5.495,9.461 5.409,9.529 5.304,9.531 L3.406,9.574 C3.270,9.577 3.096,9.499 2.953,9.386 L1.552,8.274 C1.258,8.040 1.142,7.746 1.281,7.604 L2.554,6.303 C2.679,6.175 2.588,5.894 2.312,5.673 L1.057,4.672 C0.757,4.432 0.627,4.136 0.771,3.991 L2.078,2.679 C2.175,2.581 2.296,2.496 2.486,2.495 L4.268,2.480 C4.411,2.479 4.544,2.628 4.487,2.686 L3.187,4.019 C3.061,4.149 3.192,4.433 3.460,4.650 L4.667,5.629 C4.965,5.870 5.095,6.162 4.952,6.309 L3.700,7.592 ZM43.545,5.222 L43.676,5.222 L44.467,9.482 L41.546,9.482 L40.915,6.082 C41.333,5.597 42.629,5.222 43.545,5.222 Z"/>
</svg>