<svg 
 xmlns="http://www.w3.org/2000/svg"
 xmlns:xlink="http://www.w3.org/1999/xlink"
 width="23px" height="23px">
<path fill-rule="evenodd"  fill="rgb(255, 193, 14)"
 d="M11.296,22.372 C5.140,22.372 0.132,17.356 0.132,11.189 C0.132,5.024 5.140,0.007 11.296,0.007 C17.452,0.007 22.460,5.024 22.460,11.189 C22.460,17.356 17.452,22.372 11.296,22.372 ZM11.296,0.980 C5.675,0.980 1.103,5.560 1.103,11.189 C1.103,16.819 5.675,21.400 11.296,21.400 C16.917,21.400 21.489,16.819 21.489,11.189 C21.489,5.560 16.917,0.980 11.296,0.980 ZM11.200,17.348 C10.528,17.348 9.983,16.693 9.983,15.884 C9.983,15.076 10.528,14.421 11.200,14.421 C11.872,14.421 12.417,15.077 12.417,15.884 C12.417,16.692 11.872,17.348 11.200,17.348 ZM11.200,12.958 C10.528,12.958 9.983,12.303 9.983,11.496 L9.983,7.106 C9.983,6.299 10.528,5.643 11.200,5.643 C11.872,5.643 12.417,6.299 12.417,7.106 L12.417,11.496 C12.417,12.304 11.872,12.958 11.200,12.958 Z"/>
</svg>