<svg 
 xmlns="http://www.w3.org/2000/svg"
 xmlns:xlink="http://www.w3.org/1999/xlink"
 width="23px" height="23px">
<path fill-rule="evenodd"  fill="rgb(255, 193, 14)"
 d="M11.573,22.946 C5.431,22.946 0.434,17.940 0.434,11.789 C0.434,5.636 5.431,0.631 11.573,0.631 C17.715,0.631 22.712,5.636 22.712,11.789 C22.712,17.940 17.715,22.946 11.573,22.946 ZM11.573,1.601 C5.965,1.601 1.403,6.171 1.403,11.789 C1.403,17.406 5.965,21.975 11.573,21.975 C17.181,21.975 21.743,17.406 21.743,11.789 C21.743,6.171 17.181,1.601 11.573,1.601 ZM15.768,8.916 C14.853,9.055 13.933,9.161 13.016,9.282 C12.971,9.289 12.928,9.309 12.834,9.337 C12.890,10.767 12.678,12.207 13.210,13.618 C13.610,14.680 13.878,15.792 14.205,16.882 C14.320,17.265 14.386,17.634 13.906,17.818 C13.544,17.956 13.300,17.786 13.119,17.258 C12.675,15.967 12.246,14.671 11.790,13.385 C11.739,13.241 11.551,13.146 11.427,13.029 C11.326,13.150 11.176,13.256 11.132,13.395 C10.728,14.683 10.341,15.975 9.951,17.267 C9.802,17.760 9.528,17.975 9.176,17.866 C8.814,17.755 8.693,17.437 8.822,16.948 C9.212,15.471 9.600,13.993 9.987,12.515 C10.008,12.437 10.030,12.356 10.030,12.277 C10.033,11.301 10.032,10.325 10.032,9.297 C9.250,9.191 8.484,9.088 7.719,8.984 C7.606,8.969 7.493,8.958 7.381,8.940 C7.037,8.886 6.774,8.728 6.828,8.338 C6.880,7.961 7.158,7.855 7.512,7.889 C8.289,7.961 9.067,8.091 9.842,8.080 C11.740,8.053 13.637,7.951 15.535,7.904 C15.765,7.898 16.075,7.973 16.216,8.130 C16.482,8.427 16.240,8.846 15.768,8.916 ZM11.482,7.663 C10.910,7.677 10.444,7.228 10.444,6.661 C10.444,6.111 10.875,5.677 11.432,5.669 C12.018,5.660 12.468,6.091 12.469,6.660 C12.469,7.208 12.036,7.648 11.482,7.663 Z"/>
</svg>