<svg 
 xmlns="http://www.w3.org/2000/svg"
 xmlns:xlink="http://www.w3.org/1999/xlink"
 width="16px" height="25px">
<path fill-rule="evenodd"  fill="rgb(255, 193, 14)"
 d="M11.657,24.232 C10.215,24.232 9.073,23.513 8.211,22.849 C5.639,20.868 4.008,17.709 2.874,15.180 C1.586,12.302 0.810,9.360 0.691,6.896 C0.604,5.099 0.835,3.779 1.417,2.740 C2.021,1.665 3.074,1.178 4.003,0.748 C4.181,0.666 4.357,0.585 4.528,0.500 C5.169,0.183 5.896,0.196 6.523,0.539 C7.150,0.879 7.581,1.494 7.706,2.224 L8.614,7.558 C8.793,8.610 8.275,9.663 7.356,10.118 L6.399,10.592 C6.666,11.384 6.980,12.184 7.333,12.972 C7.685,13.759 8.072,14.523 8.484,15.246 L9.441,14.772 C10.361,14.317 11.462,14.569 12.119,15.383 L15.451,19.516 C15.909,20.082 16.085,20.824 15.934,21.551 L15.924,21.594 C15.439,23.504 13.121,24.044 12.421,24.165 C12.157,24.211 11.902,24.232 11.657,24.232 ZM5.489,1.386 C5.316,1.386 5.143,1.426 4.980,1.507 C4.801,1.596 4.616,1.681 4.429,1.767 C3.571,2.164 2.759,2.539 2.330,3.306 C1.857,4.148 1.673,5.270 1.748,6.839 C1.861,9.162 2.601,11.956 3.833,14.706 C4.913,17.116 6.457,20.118 8.836,21.951 C10.089,22.915 11.141,23.259 12.249,23.067 C13.364,22.874 14.643,22.322 14.890,21.357 L15.417,21.432 L14.899,21.314 C14.979,20.928 14.886,20.536 14.644,20.236 L11.312,16.103 C10.963,15.671 10.379,15.538 9.892,15.779 L8.766,16.336 C8.373,16.532 7.904,16.386 7.677,15.995 C7.209,15.188 6.771,14.330 6.375,13.446 C5.978,12.560 5.628,11.658 5.336,10.767 C5.194,10.335 5.385,9.863 5.780,9.668 L6.905,9.111 C7.392,8.869 7.666,8.312 7.571,7.753 L6.664,2.421 C6.597,2.034 6.369,1.708 6.036,1.527 C5.863,1.433 5.677,1.386 5.489,1.386 ZM8.315,15.329 C8.314,15.329 8.314,15.330 8.313,15.330 L8.315,15.329 ZM6.231,10.675 L6.230,10.675 C6.231,10.675 6.231,10.675 6.231,10.675 L6.231,10.675 Z"/>
</svg>