<svg 
 xmlns="http://www.w3.org/2000/svg"
 xmlns:xlink="http://www.w3.org/1999/xlink"
 width="48px" height="12px">
<path fill-rule="evenodd"  fill="rgb(255, 255, 255)"
 d="M44.733,9.995 L39.506,9.995 C39.485,9.510 39.684,8.643 40.140,8.320 L43.443,8.320 C44.280,8.320 44.626,7.938 44.505,7.292 C44.489,7.204 44.474,7.130 44.444,7.042 L43.724,4.912 C43.569,4.456 43.283,4.265 42.851,4.265 L42.293,4.265 C42.126,4.265 42.126,4.339 42.120,4.456 L42.109,6.484 C41.766,6.807 41.141,7.042 40.318,7.042 C39.997,7.042 39.655,6.998 39.279,6.924 L39.272,3.839 C39.274,3.032 39.574,2.620 40.368,2.620 L43.657,2.620 C45.302,2.620 46.003,3.237 46.491,4.648 L47.160,6.587 C47.252,6.851 47.312,7.101 47.357,7.336 C47.662,8.967 46.879,9.995 44.733,9.995 ZM35.830,10.095 L32.912,7.098 L32.781,7.142 L33.335,10.095 L30.436,10.095 L30.009,7.818 C29.838,6.907 29.986,5.761 31.378,5.379 L28.775,2.720 L31.953,2.720 L34.948,5.761 L35.087,5.761 L34.517,2.720 L37.417,2.720 L37.844,4.997 C38.017,5.922 37.850,6.966 36.385,7.333 L39.134,10.095 L35.830,10.095 ZM26.450,10.095 L25.708,7.774 C25.555,7.774 25.410,7.891 25.394,8.112 L25.293,10.095 L23.020,10.095 L23.098,8.420 C23.170,6.951 23.662,6.452 25.321,6.452 L25.092,5.233 C24.982,4.645 24.662,4.351 24.146,4.351 L23.115,4.351 C22.550,4.086 22.242,3.411 22.015,2.720 L25.611,2.720 C26.754,2.720 27.625,3.352 27.870,4.660 L28.338,7.157 L29.293,10.095 L26.450,10.095 ZM20.341,7.304 C19.825,7.304 19.326,7.245 18.908,7.098 L18.088,2.720 L20.973,2.720 L21.794,7.098 C21.361,7.245 20.857,7.304 20.341,7.304 ZM15.251,9.837 L13.190,9.881 C13.043,9.883 12.853,9.803 12.698,9.686 L11.177,8.534 C10.858,8.293 10.731,7.988 10.882,7.841 L12.265,6.495 C12.401,6.363 12.302,6.072 12.002,5.843 L10.639,4.806 C10.314,4.559 10.173,4.251 10.329,4.102 L11.748,2.744 C11.854,2.641 11.985,2.554 12.191,2.552 L14.126,2.537 C14.282,2.536 14.425,2.690 14.364,2.750 L12.953,4.130 C12.816,4.265 12.957,4.558 13.248,4.783 L14.559,5.796 C14.882,6.046 15.024,6.350 14.869,6.500 L13.508,7.829 C13.366,7.968 13.465,8.259 13.763,8.485 L15.210,9.576 C15.459,9.764 15.365,9.834 15.251,9.837 ZM8.625,9.573 C8.482,9.713 8.581,10.003 8.880,10.228 L10.347,11.333 C10.546,11.482 10.537,11.584 10.359,11.587 L8.306,11.624 C8.158,11.627 7.969,11.547 7.814,11.430 L6.293,10.278 C5.974,10.036 5.847,9.733 5.998,9.585 L7.382,8.239 C7.517,8.105 7.419,7.815 7.118,7.587 L5.908,6.665 C5.588,6.424 5.461,6.120 5.612,5.972 L6.996,4.625 C7.131,4.493 7.033,4.202 6.732,3.974 L5.370,2.937 C5.044,2.689 4.903,2.383 5.059,2.233 L6.478,0.874 C6.584,0.773 6.715,0.685 6.921,0.683 L8.861,0.670 C8.985,0.665 9.161,0.809 9.088,0.887 L7.684,2.261 C7.545,2.396 7.687,2.689 7.978,2.914 L9.289,3.927 C9.612,4.177 9.754,4.480 9.599,4.631 L8.239,5.960 C8.095,6.100 8.204,6.384 8.494,6.616 L9.675,7.540 C9.998,7.790 10.139,8.093 9.986,8.244 L8.625,9.573 ZM3.303,7.859 C3.161,7.999 3.260,8.289 3.559,8.515 L5.006,9.607 C5.254,9.794 5.161,9.864 5.047,9.866 L2.985,9.911 C2.838,9.914 2.649,9.834 2.494,9.716 L0.973,8.565 C0.653,8.323 0.527,8.019 0.678,7.871 L2.060,6.525 C2.196,6.393 2.097,6.102 1.797,5.873 L0.434,4.836 C0.109,4.588 -0.032,4.281 0.124,4.132 L1.543,2.774 C1.649,2.672 1.780,2.584 1.986,2.583 L3.921,2.567 C4.076,2.566 4.221,2.720 4.159,2.780 L2.748,4.160 C2.611,4.295 2.753,4.589 3.043,4.813 L4.355,5.826 C4.678,6.077 4.819,6.379 4.664,6.530 L3.303,7.859 Z"/>
</svg>