<svg 
 xmlns="http://www.w3.org/2000/svg"
 xmlns:xlink="http://www.w3.org/1999/xlink"
 width="48px" height="13px">
<path fill-rule="evenodd"  fill="rgb(255, 255, 255)"
 d="M44.399,10.602 L41.853,10.602 C41.840,10.100 42.057,9.140 42.434,8.881 L42.919,8.866 C43.652,8.836 43.931,8.302 43.828,7.739 C43.817,7.678 43.793,7.633 43.781,7.572 L43.152,5.592 C42.938,4.938 42.366,4.649 41.769,4.649 L41.141,4.649 L41.131,10.602 L37.877,10.602 L37.997,4.649 C37.290,4.649 36.650,3.811 36.494,2.958 L42.858,2.958 C44.885,2.958 45.857,3.887 46.367,5.471 L47.010,7.435 C47.077,7.633 47.113,7.830 47.147,8.013 C47.490,9.886 46.113,10.602 44.399,10.602 ZM33.774,10.602 L29.876,10.602 C29.107,10.602 28.717,10.191 28.460,9.475 L26.458,3.948 C26.430,3.887 26.417,3.811 26.406,3.750 C26.330,3.339 26.496,2.959 27.078,2.959 L34.495,2.959 C35.580,2.959 36.110,3.628 36.256,4.420 C36.290,4.603 36.307,4.786 36.309,4.968 L36.237,8.181 C36.208,9.475 35.361,10.602 33.774,10.602 ZM33.143,5.532 C33.146,5.456 33.142,5.349 33.127,5.273 C33.063,4.923 32.857,4.649 32.401,4.649 L30.216,4.649 C30.106,4.649 30.064,4.679 30.081,4.770 C30.084,4.786 30.105,4.816 30.108,4.831 L31.216,8.394 C31.322,8.714 31.476,8.866 31.711,8.866 L32.309,8.866 C32.749,8.866 33.161,8.547 33.155,7.998 L33.143,5.532 ZM24.871,4.649 C24.494,4.649 24.339,4.831 24.412,5.227 L25.396,10.602 L22.127,10.602 L21.129,5.151 C21.073,4.847 20.959,4.649 20.644,4.649 L17.847,4.649 C17.347,4.238 16.865,3.750 16.720,2.958 L25.819,2.958 C25.805,3.567 25.783,4.222 25.375,4.649 L24.871,4.649 ZM15.363,10.624 L13.310,10.670 C13.163,10.674 12.974,10.589 12.820,10.465 L11.304,9.244 C10.987,8.988 10.860,8.665 11.011,8.509 L12.388,7.082 C12.523,6.941 12.426,6.634 12.126,6.391 L10.769,5.292 C10.445,5.030 10.304,4.704 10.459,4.546 L11.873,3.105 C11.979,2.997 12.109,2.905 12.315,2.903 L14.242,2.887 C14.397,2.885 14.540,3.049 14.479,3.113 L13.074,4.576 C12.937,4.718 13.078,5.030 13.368,5.268 L14.673,6.341 C14.996,6.606 15.136,6.928 14.983,7.088 L13.627,8.496 C13.485,8.644 13.584,8.952 13.881,9.191 L15.322,10.349 C15.571,10.547 15.477,10.621 15.363,10.624 ZM8.762,10.344 C8.619,10.493 8.718,10.800 9.016,11.039 L10.478,12.210 C10.676,12.368 10.667,12.476 10.490,12.479 L8.445,12.518 C8.297,12.521 8.110,12.437 7.955,12.313 L6.439,11.092 C6.122,10.836 5.994,10.514 6.146,10.357 L7.523,8.930 C7.659,8.789 7.560,8.481 7.261,8.239 L6.055,7.263 C5.737,7.006 5.611,6.685 5.761,6.528 L7.139,5.101 C7.275,4.960 7.176,4.652 6.877,4.410 L5.519,3.311 C5.194,3.048 5.054,2.723 5.209,2.565 L6.624,1.124 C6.729,1.017 6.859,0.924 7.065,0.922 L8.997,0.909 C9.121,0.903 9.297,1.055 9.224,1.138 L7.825,2.594 C7.687,2.738 7.828,3.048 8.118,3.286 L9.424,4.360 C9.746,4.625 9.887,4.946 9.733,5.107 L8.378,6.515 C8.235,6.664 8.342,6.965 8.632,7.210 L9.808,8.189 C10.130,8.454 10.271,8.776 10.118,8.936 L8.762,10.344 ZM3.461,8.528 C3.319,8.676 3.418,8.984 3.716,9.223 L5.157,10.380 C5.404,10.579 5.311,10.653 5.197,10.656 L3.144,10.702 C2.997,10.706 2.809,10.621 2.655,10.496 L1.139,9.276 C0.821,9.020 0.695,8.697 0.845,8.541 L2.223,7.114 C2.358,6.973 2.259,6.665 1.961,6.423 L0.603,5.324 C0.279,5.061 0.138,4.736 0.294,4.578 L1.708,3.137 C1.813,3.029 1.943,2.937 2.149,2.935 L4.076,2.919 C4.231,2.917 4.375,3.081 4.313,3.144 L2.908,4.608 C2.771,4.750 2.913,5.062 3.202,5.300 L4.508,6.373 C4.830,6.638 4.971,6.959 4.817,7.120 L3.461,8.528 Z"/>
</svg>