<svg 
 xmlns="http://www.w3.org/2000/svg"
 xmlns:xlink="http://www.w3.org/1999/xlink"
 width="32px" height="32px">
<path fill-rule="evenodd"  fill="rgb(241, 185, 21)"
 d="M16.001,31.686 C7.353,31.686 0.317,24.650 0.317,16.003 C0.317,7.355 7.353,0.319 16.001,0.319 C24.648,0.319 31.684,7.355 31.684,16.003 C31.684,24.650 24.648,31.686 16.001,31.686 ZM16.001,1.683 C8.105,1.683 1.681,8.107 1.681,16.003 C1.681,23.898 8.105,30.322 16.001,30.322 C23.896,30.322 30.320,23.898 30.320,16.003 C30.320,8.107 23.896,1.683 16.001,1.683 ZM21.907,11.966 C20.619,12.159 19.324,12.310 18.032,12.480 C17.968,12.489 17.908,12.517 17.776,12.557 C17.854,14.568 17.556,16.591 18.305,18.574 C18.869,20.067 19.245,21.631 19.707,23.163 C19.869,23.700 19.962,24.220 19.285,24.478 C18.775,24.673 18.432,24.433 18.177,23.691 C17.551,21.877 16.948,20.055 16.305,18.247 C16.234,18.045 15.969,17.911 15.794,17.746 C15.652,17.917 15.441,18.066 15.380,18.262 C14.810,20.070 14.266,21.887 13.717,23.703 C13.507,24.397 13.121,24.699 12.625,24.546 C12.115,24.390 11.946,23.943 12.127,23.255 C12.676,21.179 13.222,19.101 13.768,17.024 C13.797,16.914 13.828,16.801 13.828,16.689 C13.832,15.317 13.831,13.946 13.831,12.501 C12.729,12.352 11.651,12.207 10.573,12.061 C10.415,12.040 10.255,12.024 10.097,11.999 C9.614,11.923 9.243,11.701 9.319,11.153 C9.392,10.622 9.784,10.474 10.283,10.521 C11.376,10.623 12.471,10.806 13.563,10.790 C16.236,10.752 18.906,10.609 21.579,10.542 C21.903,10.534 22.340,10.639 22.537,10.860 C22.912,11.277 22.571,11.866 21.907,11.966 ZM15.873,10.203 C15.067,10.224 14.411,9.592 14.411,8.796 C14.410,8.022 15.018,7.412 15.801,7.400 C16.626,7.387 17.261,7.993 17.261,8.793 C17.262,9.564 16.652,10.183 15.873,10.203 Z"/>
</svg>