<svg 
 xmlns="http://www.w3.org/2000/svg"
 xmlns:xlink="http://www.w3.org/1999/xlink"
 width="26px" height="26px">
<path fill-rule="evenodd"  fill="rgb(241, 185, 21)"
 d="M13.001,25.549 C6.082,25.549 0.454,19.920 0.454,13.002 C0.454,6.084 6.082,0.456 13.001,0.456 C19.919,0.456 25.547,6.084 25.547,13.002 C25.547,19.920 19.919,25.549 13.001,25.549 ZM13.001,1.547 C6.684,1.547 1.545,6.685 1.545,13.002 C1.545,19.319 6.684,24.458 13.001,24.458 C19.317,24.458 24.456,19.319 24.456,13.002 C24.456,6.685 19.317,1.547 13.001,1.547 ZM17.726,9.773 C16.695,9.928 15.659,10.048 14.625,10.184 C14.575,10.191 14.526,10.213 14.421,10.246 C14.484,11.854 14.245,13.473 14.844,15.059 C15.295,16.254 15.596,17.505 15.965,18.730 C16.095,19.160 16.169,19.576 15.628,19.782 C15.220,19.938 14.946,19.746 14.741,19.153 C14.241,17.702 13.758,16.244 13.244,14.797 C13.187,14.636 12.975,14.529 12.836,14.397 C12.722,14.533 12.553,14.653 12.504,14.809 C12.048,16.256 11.613,17.710 11.173,19.163 C11.005,19.718 10.697,19.959 10.300,19.837 C9.892,19.712 9.757,19.354 9.902,18.804 C10.341,17.143 10.778,15.481 11.214,13.819 C11.237,13.731 11.262,13.641 11.262,13.551 C11.266,12.454 11.265,11.357 11.265,10.201 C10.383,10.082 9.521,9.965 8.659,9.849 C8.532,9.832 8.404,9.819 8.278,9.799 C7.891,9.738 7.594,9.561 7.655,9.122 C7.714,8.698 8.027,8.579 8.426,8.617 C9.301,8.698 10.177,8.845 11.051,8.832 C13.189,8.802 15.325,8.687 17.463,8.634 C17.723,8.627 18.072,8.711 18.230,8.888 C18.530,9.222 18.257,9.693 17.726,9.773 ZM12.898,8.363 C12.254,8.379 11.729,7.874 11.729,7.237 C11.728,6.618 12.215,6.130 12.841,6.120 C13.501,6.110 14.009,6.594 14.009,7.235 C14.009,7.851 13.522,8.346 12.898,8.363 Z"/>
</svg>