<svg 
 xmlns="http://www.w3.org/2000/svg"
 xmlns:xlink="http://www.w3.org/1999/xlink"
 width="20px" height="21px">
<path fill-rule="evenodd"  fill="rgb(255, 255, 255)"
 d="M17.553,13.884 L16.683,13.976 C15.905,16.423 13.852,18.949 11.345,19.494 L11.289,19.506 L11.272,19.562 C11.140,20.021 10.782,20.355 10.339,20.467 C10.246,20.533 10.139,20.580 10.017,20.580 C9.894,20.580 9.785,20.532 9.691,20.464 C9.127,20.316 8.706,19.798 8.706,19.179 C8.706,18.446 9.295,17.849 10.017,17.849 C10.514,17.849 10.977,18.143 11.196,18.598 L11.229,18.667 L11.302,18.649 C13.629,18.094 15.435,15.688 16.016,13.333 L16.036,13.220 L16.079,13.213 L15.989,7.136 C15.989,4.387 13.334,1.312 9.781,1.312 C6.229,1.312 3.574,4.387 3.574,7.136 L3.688,14.040 L3.261,14.040 C1.418,14.040 0.029,12.720 0.029,10.968 C0.029,10.089 0.660,9.145 1.679,8.573 C1.981,8.404 2.350,8.267 2.691,8.175 L2.691,7.136 C2.691,3.964 5.723,0.416 9.781,0.416 C13.839,0.416 16.872,3.964 16.872,7.136 L16.872,8.175 L17.766,8.354 C19.001,8.773 19.738,9.750 19.738,10.968 C19.738,12.311 18.860,13.483 17.553,13.884 ZM10.026,18.763 C9.769,18.763 9.561,18.974 9.561,19.235 C9.561,19.495 9.769,19.707 10.026,19.707 C10.283,19.707 10.491,19.495 10.491,19.235 C10.491,18.974 10.283,18.763 10.026,18.763 ZM2.834,9.039 L2.723,9.058 C2.170,9.149 0.883,9.517 0.883,10.968 C0.883,12.037 1.621,12.902 2.721,13.121 L2.834,13.143 L2.834,9.039 ZM17.043,9.058 L16.933,9.039 L16.933,13.069 L16.965,13.064 L16.933,13.074 L16.933,13.143 L17.046,13.121 C18.145,12.902 18.883,12.037 18.883,10.968 C18.883,9.518 17.597,9.149 17.043,9.058 ZM9.894,14.653 C10.733,14.653 11.455,14.173 11.749,13.429 L12.308,13.429 L12.553,13.522 L12.499,13.667 C12.100,14.748 11.089,15.447 9.924,15.447 L9.880,15.446 C8.648,15.428 7.632,14.672 7.229,13.473 L7.214,13.429 L8.060,13.429 C8.453,14.306 9.245,14.643 9.894,14.653 Z"/>
</svg>