<svg 
 xmlns="http://www.w3.org/2000/svg"
 xmlns:xlink="http://www.w3.org/1999/xlink"
 width="32px" height="33px">
<path fill-rule="evenodd"  fill="rgb(6, 25, 66)"
 d="M28.278,20.876 C27.376,25.577 23.657,29.358 18.950,30.361 C18.658,31.344 17.763,32.017 16.716,32.017 C15.431,32.017 14.386,30.976 14.386,29.696 C14.386,28.417 15.431,27.376 16.716,27.376 C17.609,27.376 18.424,27.893 18.811,28.681 C22.589,27.797 25.564,24.875 26.504,21.137 C26.501,21.137 26.498,21.137 26.495,21.137 L25.630,21.137 L25.630,11.242 L26.495,11.242 C26.639,11.242 26.785,11.247 26.930,11.256 C26.498,5.865 21.972,1.686 16.493,1.686 C11.016,1.686 6.491,5.866 6.059,11.257 C6.203,11.247 6.348,11.242 6.494,11.242 L7.359,11.242 L7.359,21.137 L6.494,21.137 C3.349,21.137 0.978,18.922 0.978,15.986 C0.978,13.925 2.236,12.293 4.356,11.588 C4.628,5.189 10.033,0.014 16.493,0.014 C22.954,0.014 28.360,5.188 28.633,11.586 C30.753,12.292 32.011,13.924 32.011,15.986 C32.011,18.256 30.518,20.202 28.278,20.876 ZM16.716,28.909 C16.280,28.909 15.925,29.262 15.925,29.696 C15.925,30.131 16.280,30.484 16.716,30.484 C17.153,30.484 17.508,30.131 17.508,29.696 C17.508,29.262 17.153,28.909 16.716,28.909 ZM5.628,13.034 C4.673,13.189 2.710,13.776 2.710,15.986 C2.710,17.653 3.895,18.992 5.628,19.330 L5.628,13.034 ZM27.361,13.034 L27.361,19.330 C29.094,18.992 30.279,17.653 30.279,15.986 C30.279,13.777 28.316,13.189 27.361,13.034 ZM12.915,20.577 C13.493,22.263 14.929,22.882 16.080,22.899 C16.081,22.899 16.081,22.899 16.082,22.899 C17.511,22.899 18.701,22.100 19.166,20.863 L19.314,20.472 L20.871,21.053 L20.723,21.445 C20.011,23.334 18.210,24.555 16.134,24.555 L16.057,24.555 C13.865,24.522 12.058,23.204 11.341,21.113 L11.204,20.717 L12.779,20.183 L12.915,20.577 Z"/>
</svg>