<svg 
 xmlns="http://www.w3.org/2000/svg"
 xmlns:xlink="http://www.w3.org/1999/xlink"
 width="15px" height="18px">
<path fill-rule="evenodd"  fill="rgb(255, 255, 255)"
 d="M13.370,16.269 C12.276,17.428 10.962,18.008 9.427,18.008 C8.334,18.008 7.316,17.648 6.374,16.928 C5.432,16.208 4.740,15.311 4.298,14.236 L5.135,13.028 C5.345,14.102 5.851,14.993 6.653,15.701 C7.455,16.409 8.380,16.763 9.427,16.763 C10.660,16.763 11.706,16.305 12.567,15.390 C13.428,14.475 13.858,13.358 13.858,12.039 C13.858,10.623 13.335,9.439 12.288,8.487 L12.393,7.023 C13.184,7.560 13.817,8.274 14.294,9.165 C14.771,10.056 15.009,11.014 15.009,12.039 C15.009,13.699 14.463,15.109 13.370,16.269 ZM10.439,2.994 C10.043,2.994 9.706,2.848 9.427,2.555 C9.148,2.262 9.008,1.908 9.008,1.493 C9.008,1.078 9.148,0.724 9.427,0.431 C9.706,0.138 10.043,-0.008 10.439,-0.008 C10.834,-0.008 11.171,0.138 11.451,0.431 C11.730,0.724 11.869,1.078 11.869,1.493 C11.869,1.908 11.730,2.262 11.451,2.555 C11.171,2.848 10.834,2.994 10.439,2.994 ZM11.451,4.496 L11.451,9.732 C11.381,10.489 10.904,10.868 10.020,10.868 L5.728,10.868 L3.216,14.236 L2.874,14.793 C2.652,15.154 2.271,15.372 1.862,15.372 L0.704,15.372 C0.518,15.372 0.355,15.298 0.216,15.152 C0.076,15.005 0.006,14.828 0.006,14.620 C0.007,14.408 0.095,14.205 0.243,14.062 C0.377,13.934 0.530,13.870 0.704,13.870 L1.437,13.870 L4.359,9.732 C4.754,9.000 5.170,8.634 5.728,8.634 L8.654,8.634 C8.812,8.634 8.940,8.501 8.943,8.335 L8.975,6.057 C8.977,5.903 8.824,5.800 8.691,5.868 C8.369,6.034 7.889,6.280 7.861,6.286 C7.578,6.344 5.841,6.487 5.841,6.487 C5.568,6.487 5.329,6.270 5.312,5.984 C5.292,5.671 5.529,5.410 5.823,5.410 L6.571,5.346 C6.687,5.312 7.675,5.138 7.816,5.138 C7.816,5.138 9.462,3.373 10.369,3.397 C11.090,3.422 11.451,3.788 11.451,4.496 ZM8.164,7.449 C8.148,7.720 7.921,7.926 7.661,7.926 L4.904,7.926 C4.551,7.926 4.229,7.715 4.074,7.383 L2.671,4.378 C2.552,4.125 2.652,3.818 2.894,3.694 C3.135,3.570 3.428,3.674 3.546,3.928 L4.878,6.780 C4.913,6.855 4.986,6.903 5.066,6.903 L7.678,6.903 C7.958,6.903 8.183,7.151 8.164,7.449 Z"/>
</svg>