<svg 
 xmlns="http://www.w3.org/2000/svg"
 xmlns:xlink="http://www.w3.org/1999/xlink"
 width="26px" height="26px">
<path fill-rule="evenodd"  fill="rgb(255, 255, 255)"
 d="M22.267,3.950 C19.845,1.469 16.609,0.079 13.154,0.038 C6.010,-0.041 0.125,5.696 0.039,12.844 C-0.002,16.185 1.302,19.499 3.617,21.934 L4.079,22.421 L4.530,22.812 C4.546,22.825 4.563,22.839 4.586,22.856 C4.823,23.056 5.055,23.239 5.317,23.432 C5.404,23.496 5.467,23.543 5.531,23.589 C5.774,23.760 6.032,23.929 6.297,24.090 L6.472,24.194 C6.766,24.366 7.062,24.525 7.351,24.665 L7.411,24.694 C8.404,25.170 9.457,25.517 10.543,25.727 L10.627,25.743 C10.974,25.807 11.323,25.858 11.662,25.893 L11.784,25.904 C12.164,25.940 12.509,25.960 12.840,25.964 C13.169,25.968 13.510,25.956 13.947,25.927 L14.031,25.922 C14.355,25.896 14.700,25.855 15.046,25.800 L15.135,25.785 C16.204,25.606 17.256,25.289 18.261,24.843 L18.350,24.803 C18.630,24.676 18.913,24.535 19.209,24.373 L19.416,24.256 C19.691,24.098 19.935,23.948 20.161,23.797 C20.217,23.760 20.268,23.724 20.330,23.681 L20.425,23.615 C20.651,23.456 20.857,23.301 21.075,23.131 C21.121,23.097 21.148,23.077 21.176,23.055 L21.715,22.603 L22.137,22.182 C24.523,19.801 25.915,16.512 25.955,13.158 C25.997,9.701 24.687,6.431 22.267,3.950 ZM19.035,23.285 C18.837,23.403 18.647,23.508 18.459,23.604 L18.304,23.681 C17.763,23.951 17.208,24.176 16.608,24.371 C16.330,24.459 16.051,24.537 15.777,24.603 L15.691,24.623 C15.402,24.690 15.100,24.748 14.766,24.800 C14.485,24.842 14.197,24.874 13.882,24.897 L13.731,24.907 C13.484,24.922 13.240,24.929 12.997,24.929 C12.653,24.929 12.310,24.914 11.961,24.884 L11.823,24.872 C11.486,24.838 11.192,24.798 10.892,24.744 C10.273,24.633 9.662,24.472 9.027,24.250 C8.719,24.140 8.434,24.027 8.152,23.902 C7.907,23.793 7.648,23.665 7.358,23.510 L7.249,23.452 C7.037,23.335 6.827,23.209 6.600,23.065 L5.683,22.479 L9.450,20.482 C10.107,20.134 10.522,19.455 10.531,18.710 L10.551,17.002 L10.434,16.857 C10.324,16.718 9.411,15.517 9.069,13.939 L9.025,13.734 L8.850,13.618 C8.639,13.477 8.515,13.246 8.518,12.999 L8.538,11.334 C8.542,11.128 8.632,10.938 8.792,10.797 L8.962,10.646 L8.988,7.895 C8.978,7.711 8.961,6.715 9.659,5.938 C10.340,5.181 11.492,4.811 13.096,4.827 C14.695,4.847 15.839,5.245 16.498,6.012 C17.143,6.760 17.153,7.689 17.124,8.072 L17.087,10.745 L17.280,10.925 C17.425,11.079 17.497,11.252 17.495,11.441 L17.475,13.109 C17.471,13.423 17.254,13.706 16.947,13.797 L16.688,13.874 L16.602,14.129 C16.316,14.982 15.914,15.768 15.408,16.465 C15.286,16.633 15.166,16.784 15.060,16.902 L14.930,17.047 L14.909,18.802 C14.900,19.578 15.321,20.280 16.009,20.633 L20.022,22.701 L19.035,23.285 ZM21.188,21.664 L20.868,21.976 L20.861,21.973 L20.856,21.978 L20.434,21.753 L16.482,19.716 C16.143,19.539 15.937,19.195 15.940,18.817 L15.957,17.446 L16.088,17.278 C16.138,17.213 16.190,17.144 16.244,17.071 C16.720,16.415 17.116,15.684 17.420,14.901 L17.497,14.702 L17.678,14.590 C18.190,14.275 18.499,13.725 18.507,13.121 L18.527,11.456 C18.531,11.105 18.430,10.763 18.233,10.468 L18.124,10.305 L18.149,8.167 C18.178,7.899 18.275,6.503 17.289,5.351 C16.429,4.341 15.023,3.818 13.109,3.795 C11.204,3.775 9.779,4.260 8.892,5.247 C7.816,6.446 7.958,7.933 7.960,7.948 L7.962,7.976 L7.937,10.181 L7.825,10.341 C7.621,10.632 7.511,10.971 7.506,11.322 L7.486,12.987 C7.481,13.456 7.658,13.898 7.984,14.233 L8.086,14.337 L8.148,14.517 C8.481,15.753 9.075,16.723 9.400,17.192 L9.515,17.356 L9.499,18.698 C9.495,19.063 9.292,19.397 8.968,19.570 L4.874,21.740 L4.455,21.318 C2.266,19.075 1.032,15.990 1.070,12.856 C1.150,6.277 6.577,0.984 13.142,1.069 C16.323,1.108 19.301,2.387 21.529,4.670 C23.757,6.953 24.963,9.963 24.924,13.145 C24.885,16.348 23.523,19.453 21.188,21.664 Z"/>
</svg>