<svg 
 xmlns="http://www.w3.org/2000/svg"
 xmlns:xlink="http://www.w3.org/1999/xlink"
 width="22px" height="23px">
<path fill-rule="evenodd"  fill="rgb(241, 185, 21)"
 d="M18.732,14.745 C18.122,17.903 15.607,20.444 12.423,21.117 C12.225,21.778 11.620,22.230 10.912,22.230 C10.042,22.230 9.336,21.531 9.336,20.671 C9.336,19.811 10.042,19.112 10.912,19.112 C11.516,19.112 12.067,19.459 12.329,19.989 C14.884,19.395 16.896,17.431 17.532,14.920 C17.530,14.920 17.529,14.920 17.527,14.920 L16.941,14.920 L16.941,8.272 L17.527,8.272 C17.624,8.272 17.722,8.275 17.821,8.281 C17.529,4.659 14.467,1.852 10.761,1.852 C7.056,1.852 3.995,4.660 3.703,8.282 C3.800,8.276 3.899,8.272 3.997,8.272 L4.583,8.272 L4.583,14.920 L3.997,14.920 C1.870,14.920 0.267,13.432 0.267,11.459 C0.267,10.075 1.117,8.978 2.551,8.504 C2.735,4.205 6.391,0.728 10.761,0.728 C15.131,0.728 18.788,4.204 18.973,8.503 C20.406,8.977 21.257,10.074 21.257,11.459 C21.257,12.985 20.248,14.292 18.732,14.745 ZM10.912,20.142 C10.617,20.142 10.377,20.379 10.377,20.671 C10.377,20.963 10.617,21.200 10.912,21.200 C11.207,21.200 11.447,20.963 11.447,20.671 C11.447,20.379 11.207,20.142 10.912,20.142 ZM3.412,9.476 C2.766,9.580 1.438,9.975 1.438,11.459 C1.438,12.579 2.240,13.479 3.412,13.706 L3.412,9.476 ZM18.112,9.476 L18.112,13.706 C19.284,13.479 20.086,12.579 20.086,11.459 C20.086,9.975 18.758,9.580 18.112,9.476 ZM8.340,14.544 C8.731,15.677 9.703,16.093 10.481,16.104 C10.482,16.104 10.482,16.104 10.483,16.104 C11.449,16.104 12.254,15.567 12.569,14.736 L12.669,14.473 L13.722,14.864 L13.622,15.127 C13.141,16.396 11.922,17.217 10.518,17.217 L10.466,17.216 C8.983,17.195 7.761,16.309 7.276,14.904 L7.183,14.638 L8.248,14.279 L8.340,14.544 Z"/>
</svg>