<svg 
 xmlns="http://www.w3.org/2000/svg"
 xmlns:xlink="http://www.w3.org/1999/xlink"
 width="18px" height="18px">
<path fill-rule="evenodd"  fill="rgb(19, 63, 149)"
 d="M8.996,17.951 C4.055,17.951 0.034,13.934 0.034,8.997 C0.034,4.059 4.055,0.042 8.996,0.042 C13.937,0.042 17.958,4.059 17.958,8.997 C17.958,13.934 13.937,17.951 8.996,17.951 ZM8.996,0.821 C4.484,0.821 0.814,4.489 0.814,8.997 C0.814,13.505 4.484,17.172 8.996,17.172 C13.508,17.172 17.178,13.505 17.178,8.997 C17.178,4.489 13.508,0.821 8.996,0.821 ZM8.919,13.927 C8.379,13.927 7.942,13.403 7.942,12.755 C7.942,12.108 8.380,11.584 8.919,11.584 C9.458,11.584 9.896,12.109 9.896,12.755 C9.896,13.402 9.458,13.927 8.919,13.927 ZM8.919,10.413 C8.379,10.413 7.942,9.888 7.942,9.241 L7.942,5.727 C7.942,5.080 8.380,4.555 8.919,4.555 C9.458,4.555 9.896,5.080 9.896,5.727 L9.896,9.241 C9.896,9.888 9.458,10.413 8.919,10.413 Z"/>
</svg>