<svg 
 xmlns="http://www.w3.org/2000/svg"
 xmlns:xlink="http://www.w3.org/1999/xlink"
 width="37px" height="41px">
<path fill-rule="evenodd"  fill="rgb(14, 63, 146)"
 d="M32.808,28.475 L32.693,28.489 L32.673,28.603 C32.168,31.491 30.785,34.123 28.672,36.216 C25.956,38.906 22.344,40.388 18.501,40.389 C14.655,40.389 11.039,38.884 8.318,36.151 C6.247,34.069 4.875,31.460 4.353,28.605 L4.332,28.492 L4.217,28.478 C2.182,28.226 0.647,26.506 0.647,24.474 C0.647,22.524 2.052,20.854 3.987,20.504 L4.117,20.480 L4.117,12.547 L3.878,12.687 C3.684,12.800 3.507,12.934 3.352,13.082 C2.958,13.460 2.381,13.520 1.917,13.229 C1.453,12.939 1.258,12.397 1.435,11.881 L1.806,10.792 C2.000,10.223 2.286,9.689 2.656,9.206 L2.682,9.171 L2.687,9.127 C3.103,5.271 5.810,2.553 10.516,1.268 C14.137,0.277 17.981,0.405 21.633,1.632 L26.426,3.243 L26.478,3.261 L26.530,3.243 C27.955,2.747 29.492,2.936 30.751,3.763 C32.088,4.641 32.885,6.113 32.885,7.701 L32.885,20.480 L33.015,20.504 C34.951,20.854 36.355,22.524 36.355,24.474 C36.355,26.494 34.830,28.214 32.808,28.475 ZM3.914,21.751 C2.703,22.105 1.857,23.224 1.857,24.474 C1.857,25.742 2.720,26.866 3.955,27.207 L4.171,27.266 L4.155,27.045 C4.130,26.697 4.117,26.346 4.117,26.000 L4.117,21.692 L3.914,21.751 ZM25.895,4.330 L21.244,2.767 C17.823,1.617 14.225,1.497 10.838,2.423 C7.417,3.358 5.224,5.044 4.318,7.435 L4.173,7.818 L4.539,7.629 C4.668,7.563 4.798,7.499 4.932,7.442 C6.406,6.818 8.084,6.843 9.537,7.513 C11.304,8.328 13.439,7.888 14.730,6.443 L14.919,6.231 C15.141,5.982 15.524,5.961 15.773,6.179 C16.023,6.398 16.047,6.777 15.825,7.025 L15.636,7.237 C13.993,9.078 11.274,9.638 9.026,8.600 C7.884,8.073 6.565,8.052 5.408,8.544 C4.251,9.035 3.356,9.994 2.952,11.175 L2.653,12.054 L3.044,11.790 C4.378,10.886 6.120,10.870 7.481,11.750 C9.722,13.197 12.294,13.948 14.918,13.948 C15.773,13.948 16.633,13.869 17.490,13.707 C20.883,13.068 23.879,11.198 25.925,8.443 L25.956,8.400 L25.895,4.330 ZM31.675,7.701 C31.675,6.498 31.095,5.427 30.082,4.762 C29.224,4.198 28.208,4.029 27.225,4.285 L27.106,4.316 L27.170,12.749 C27.170,15.221 29.028,17.371 31.493,17.750 L31.675,17.779 L31.675,7.701 ZM31.675,18.980 L31.535,18.964 C28.356,18.593 25.959,15.921 25.959,12.749 L25.959,10.305 L25.687,10.590 C23.544,12.820 20.788,14.306 17.716,14.885 C13.922,15.598 10.052,14.843 6.820,12.754 C6.423,12.497 5.966,12.343 5.497,12.309 L5.327,12.296 L5.327,26.000 C5.327,29.507 6.696,32.813 9.181,35.310 C11.672,37.812 14.982,39.190 18.503,39.190 C22.021,39.190 25.329,37.832 27.817,35.368 C30.305,32.905 31.675,29.628 31.675,26.142 L31.675,18.980 ZM33.088,21.751 L32.885,21.692 L32.885,26.143 C32.885,26.433 32.876,26.737 32.856,27.043 L32.842,27.265 L33.057,27.204 C34.287,26.860 35.145,25.737 35.145,24.474 C35.145,23.224 34.299,22.105 33.088,21.751 ZM27.504,23.952 C26.899,23.353 25.912,23.353 25.307,23.952 C25.078,24.179 24.680,24.179 24.451,23.952 C24.216,23.719 24.216,23.339 24.451,23.105 C24.973,22.589 25.667,22.305 26.406,22.305 C27.145,22.305 27.839,22.589 28.360,23.105 C28.596,23.339 28.596,23.719 28.360,23.952 C28.131,24.179 27.733,24.179 27.504,23.952 ZM27.369,30.564 C27.483,30.677 27.546,30.828 27.546,30.988 C27.546,31.147 27.483,31.298 27.369,31.411 C25.004,33.753 21.855,35.043 18.501,35.043 C15.148,35.043 11.999,33.753 9.633,31.411 C9.397,31.177 9.397,30.798 9.633,30.564 C9.751,30.447 9.907,30.389 10.061,30.389 C10.216,30.389 10.371,30.447 10.489,30.564 C14.908,34.940 22.097,34.939 26.514,30.564 C26.750,30.329 27.133,30.330 27.369,30.564 ZM11.696,23.952 C11.109,23.372 10.084,23.372 9.498,23.952 C9.384,24.065 9.233,24.128 9.071,24.128 C9.071,24.128 9.071,24.128 9.071,24.128 C8.909,24.128 8.757,24.065 8.643,23.952 C8.407,23.719 8.407,23.339 8.643,23.105 C9.165,22.588 9.859,22.303 10.597,22.303 C11.336,22.303 12.029,22.588 12.551,23.105 C12.787,23.339 12.787,23.719 12.551,23.952 C12.323,24.179 11.924,24.179 11.696,23.952 Z"/>
</svg>