<svg 
 xmlns="http://www.w3.org/2000/svg"
 xmlns:xlink="http://www.w3.org/1999/xlink"
 width="41px" height="39px">
<path fill-rule="evenodd"  fill="rgb(14, 63, 146)"
 d="M38.416,9.392 L38.416,9.422 L37.205,9.422 L37.205,9.392 L3.795,9.392 L3.795,34.426 L2.582,34.426 L2.582,9.392 L-0.002,9.392 L-0.002,3.243 L4.829,3.243 L4.829,0.009 L36.693,0.009 L36.693,3.243 L41.000,3.243 L41.000,9.392 L38.416,9.392 ZM39.787,4.464 L14.103,4.464 L14.103,3.243 L35.480,3.243 L35.480,1.294 L6.042,1.294 L6.042,3.243 L6.163,3.243 L6.163,4.464 L1.211,4.464 L1.211,8.170 L39.787,8.170 L39.787,4.464 ZM13.700,14.583 L13.700,24.985 L7.084,24.985 L7.084,14.583 L13.700,14.583 ZM8.171,23.891 L12.613,23.891 L12.613,20.323 L8.171,20.323 L8.171,23.891 ZM8.171,19.228 L12.613,19.228 L12.613,15.677 L8.171,15.677 L8.171,19.228 ZM33.531,14.583 L33.531,24.985 L26.915,24.985 L26.915,14.583 L33.531,14.583 ZM28.002,23.891 L32.444,23.891 L32.444,20.323 L28.002,20.323 L28.002,23.891 ZM28.002,19.228 L32.444,19.228 L32.444,15.677 L28.002,15.677 L28.002,19.228 ZM3.795,37.786 L16.500,37.939 L16.500,30.664 L24.413,30.512 L24.413,37.793 L37.014,37.605 L37.084,37.604 L37.190,12.833 L38.416,12.833 L38.416,38.801 L2.582,39.006 L2.582,37.624 L3.795,37.624 L3.795,37.786 ZM20.812,37.703 L23.523,37.703 L23.523,31.410 L20.812,31.410 L20.812,37.703 ZM17.420,37.711 L20.008,37.711 L20.008,31.401 L17.420,31.401 L17.420,37.711 Z"/>
</svg>