<svg 
 xmlns="http://www.w3.org/2000/svg"
 xmlns:xlink="http://www.w3.org/1999/xlink"
 width="18px" height="25px">
<path fill-rule="evenodd"  fill="rgb(241, 185, 21)"
 d="M15.673,14.792 L9.004,24.597 L2.301,14.744 C-0.171,11.392 0.197,5.840 3.103,2.883 C4.677,1.280 6.773,0.398 9.004,0.398 C11.236,0.398 13.331,1.280 14.905,2.883 C17.810,5.840 18.169,11.404 15.673,14.792 ZM14.064,3.739 C12.715,2.366 10.918,1.609 9.004,1.609 C7.091,1.609 5.294,2.366 3.944,3.739 C1.428,6.301 1.111,11.113 3.266,14.036 L9.004,22.469 L14.708,14.084 C16.887,11.125 16.580,6.300 14.064,3.739 ZM9.076,12.239 C7.221,12.239 5.711,10.703 5.711,8.814 C5.711,6.926 7.221,5.390 9.076,5.390 C10.932,5.390 12.441,6.926 12.441,8.814 C12.441,10.703 10.932,12.239 9.076,12.239 ZM9.076,6.602 C7.877,6.602 6.901,7.594 6.901,8.814 C6.901,10.035 7.877,11.028 9.076,11.028 C10.276,11.028 11.251,10.035 11.251,8.814 C11.251,7.594 10.276,6.602 9.076,6.602 Z"/>
</svg>