<svg 
 xmlns="http://www.w3.org/2000/svg"
 xmlns:xlink="http://www.w3.org/1999/xlink"
 width="13px" height="19px">
<path fill-rule="evenodd"  fill="rgb(242, 185, 47)"
 d="M11.190,11.120 L6.517,18.049 L1.820,11.086 C0.088,8.718 0.346,4.795 2.382,2.705 C3.485,1.573 4.954,0.949 6.517,0.949 C8.081,0.949 9.549,1.573 10.652,2.705 C12.687,4.795 12.939,8.726 11.190,11.120 ZM10.062,3.310 C9.117,2.339 7.858,1.805 6.517,1.805 C5.176,1.805 3.917,2.339 2.972,3.310 C1.208,5.121 0.986,8.521 2.497,10.586 L6.517,16.545 L10.514,10.620 C12.041,8.529 11.825,5.120 10.062,3.310 ZM6.568,9.316 C5.268,9.316 4.210,8.231 4.210,6.897 C4.210,5.563 5.268,4.477 6.568,4.477 C7.868,4.477 8.926,5.563 8.926,6.897 C8.926,8.231 7.868,9.316 6.568,9.316 ZM6.568,5.333 C5.727,5.333 5.044,6.034 5.044,6.897 C5.044,7.759 5.727,8.460 6.568,8.460 C7.408,8.460 8.092,7.759 8.092,6.897 C8.092,6.034 7.408,5.333 6.568,5.333 Z"/>
</svg>