<svg 
 xmlns="http://www.w3.org/2000/svg"
 xmlns:xlink="http://www.w3.org/1999/xlink"
 width="15px" height="21px">
<path fill-rule="evenodd"  fill="rgb(255, 255, 255)"
 d="M13.569,12.537 L7.860,21.011 L2.122,12.495 C0.006,9.598 0.321,4.801 2.808,2.244 C4.156,0.860 5.950,0.097 7.860,0.097 C9.770,0.097 11.564,0.860 12.912,2.244 C15.398,4.800 15.705,9.609 13.569,12.537 ZM12.191,2.985 C11.036,1.797 9.498,1.143 7.860,1.143 C6.222,1.143 4.684,1.797 3.528,2.985 C1.374,5.199 1.103,9.358 2.948,11.884 L7.860,19.172 L12.743,11.925 C14.608,9.368 14.345,5.199 12.191,2.985 ZM7.922,10.330 C6.333,10.330 5.041,9.003 5.041,7.371 C5.041,5.739 6.333,4.412 7.922,4.412 C9.510,4.412 10.803,5.739 10.803,7.371 C10.803,9.003 9.510,10.330 7.922,10.330 ZM7.922,5.459 C6.895,5.459 6.060,6.317 6.060,7.371 C6.060,8.426 6.895,9.284 7.922,9.284 C8.948,9.284 9.784,8.426 9.784,7.371 C9.784,6.317 8.948,5.459 7.922,5.459 Z"/>
</svg>