<svg 
 xmlns="http://www.w3.org/2000/svg"
 xmlns:xlink="http://www.w3.org/1999/xlink"
 width="22px" height="30px">
<path fill-rule="evenodd"  fill="rgb(255, 193, 14)"
 d="M18.924,17.842 L10.519,29.999 L2.072,17.783 C-1.044,13.626 -0.580,6.742 3.082,3.075 C5.065,1.088 7.707,-0.006 10.519,-0.006 C13.331,-0.006 15.972,1.088 17.956,3.075 C21.617,6.742 22.069,13.642 18.924,17.842 ZM16.895,4.137 C15.195,2.434 12.931,1.496 10.519,1.496 C8.107,1.496 5.843,2.434 4.142,4.137 C0.970,7.313 0.571,13.280 3.288,16.904 L10.519,27.361 L17.707,16.963 C20.454,13.295 20.066,7.313 16.895,4.137 ZM10.610,14.676 C8.271,14.676 6.369,12.771 6.369,10.430 C6.369,8.089 8.271,6.185 10.610,6.185 C12.948,6.185 14.851,8.089 14.851,10.430 C14.851,12.771 12.948,14.676 10.610,14.676 ZM10.610,7.686 C9.099,7.686 7.869,8.917 7.869,10.430 C7.869,11.943 9.099,13.174 10.610,13.174 C12.121,13.174 13.351,11.943 13.351,10.430 C13.351,8.917 12.121,7.686 10.610,7.686 Z"/>
</svg>