<svg 
 xmlns="http://www.w3.org/2000/svg"
 xmlns:xlink="http://www.w3.org/1999/xlink"
 width="43px" height="11px">
<path fill-rule="evenodd"  fill="rgb(255, 255, 255)"
 d="M40.134,8.729 L37.843,8.729 C37.832,8.281 38.026,7.427 38.366,7.196 L38.802,7.183 C39.461,7.156 39.713,6.681 39.620,6.179 C39.610,6.125 39.589,6.084 39.578,6.030 L39.012,4.267 C38.819,3.684 38.305,3.426 37.767,3.426 L37.202,3.426 L37.193,8.729 L34.265,8.729 L34.373,3.426 C33.737,3.426 33.161,2.680 33.020,1.921 L38.747,1.921 C40.571,1.921 41.446,2.748 41.905,4.158 L42.483,5.908 C42.544,6.084 42.576,6.260 42.607,6.423 C42.915,8.092 41.676,8.729 40.134,8.729 ZM30.573,8.729 L27.066,8.729 C26.373,8.729 26.022,8.363 25.791,7.725 L23.989,2.802 C23.965,2.748 23.953,2.680 23.942,2.626 C23.875,2.260 24.024,1.921 24.547,1.921 L31.222,1.921 C32.198,1.921 32.675,2.517 32.806,3.223 C32.837,3.385 32.852,3.548 32.854,3.711 L32.789,6.572 C32.763,7.725 32.001,8.729 30.573,8.729 ZM30.005,4.213 C30.007,4.145 30.004,4.050 29.991,3.982 C29.934,3.670 29.747,3.426 29.337,3.426 L27.371,3.426 C27.272,3.426 27.235,3.453 27.250,3.535 C27.253,3.548 27.272,3.575 27.274,3.589 L28.271,6.762 C28.367,7.047 28.505,7.183 28.717,7.183 L29.254,7.183 C29.651,7.183 30.022,6.898 30.016,6.410 L30.005,4.213 ZM22.562,3.426 C22.222,3.426 22.083,3.589 22.149,3.942 L23.034,8.729 L20.093,8.729 L19.194,3.874 C19.144,3.602 19.041,3.426 18.758,3.426 L16.241,3.426 C15.791,3.060 15.357,2.626 15.227,1.921 L23.415,1.921 C23.402,2.463 23.382,3.046 23.015,3.426 L22.562,3.426 ZM14.006,8.748 L12.158,8.790 C12.026,8.793 11.856,8.717 11.717,8.607 L10.354,7.519 C10.068,7.291 9.954,7.004 10.089,6.865 L11.329,5.594 C11.451,5.469 11.363,5.194 11.093,4.978 L9.871,3.999 C9.580,3.765 9.454,3.476 9.593,3.334 L10.866,2.051 C10.960,1.955 11.077,1.873 11.263,1.871 L12.997,1.857 C13.137,1.856 13.265,2.001 13.211,2.058 L11.946,3.361 C11.823,3.488 11.950,3.765 12.210,3.978 L13.385,4.934 C13.675,5.170 13.802,5.457 13.664,5.599 L12.443,6.853 C12.316,6.985 12.405,7.260 12.672,7.472 L13.969,8.503 C14.192,8.680 14.108,8.746 14.006,8.748 ZM8.066,8.499 C7.937,8.632 8.026,8.906 8.294,9.119 L9.610,10.161 C9.788,10.302 9.780,10.398 9.621,10.402 L7.780,10.436 C7.648,10.439 7.479,10.364 7.339,10.253 L5.976,9.165 C5.690,8.937 5.575,8.651 5.711,8.511 L6.951,7.240 C7.073,7.114 6.985,6.840 6.715,6.624 L5.630,5.754 C5.344,5.526 5.230,5.240 5.366,5.100 L6.605,3.829 C6.728,3.703 6.639,3.429 6.370,3.213 L5.148,2.234 C4.856,2.000 4.730,1.711 4.869,1.570 L6.142,0.287 C6.236,0.191 6.354,0.108 6.539,0.107 L8.277,0.094 C8.389,0.089 8.548,0.225 8.481,0.299 L7.222,1.596 C7.098,1.724 7.226,2.000 7.486,2.213 L8.661,3.169 C8.951,3.405 9.078,3.691 8.940,3.834 L7.720,5.089 C7.591,5.221 7.688,5.489 7.949,5.708 L9.007,6.580 C9.297,6.816 9.424,7.102 9.286,7.245 L8.066,8.499 ZM3.296,6.882 C3.168,7.013 3.257,7.288 3.525,7.501 L4.822,8.531 C5.044,8.709 4.961,8.775 4.858,8.777 L3.011,8.818 C2.878,8.821 2.709,8.746 2.570,8.635 L1.206,7.548 C0.920,7.319 0.807,7.032 0.942,6.893 L2.181,5.622 C2.303,5.497 2.215,5.222 1.946,5.007 L0.724,4.028 C0.432,3.794 0.306,3.504 0.446,3.363 L1.718,2.080 C1.813,1.984 1.930,1.902 2.115,1.900 L3.849,1.885 C3.989,1.884 4.118,2.030 4.063,2.086 L2.798,3.390 C2.675,3.517 2.802,3.794 3.062,4.006 L4.238,4.962 C4.528,5.199 4.654,5.484 4.516,5.627 L3.296,6.882 Z"/>
</svg>