<svg 
 xmlns="http://www.w3.org/2000/svg"
 xmlns:xlink="http://www.w3.org/1999/xlink"
 width="44px" height="11px">
<path fill-rule="evenodd"  fill="rgb(255, 255, 255)"
 d="M40.832,8.855 L36.129,8.855 C36.110,8.423 36.290,7.651 36.700,7.363 L39.672,7.363 C40.425,7.363 40.737,7.023 40.628,6.447 C40.613,6.369 40.600,6.303 40.573,6.224 L39.925,4.327 C39.786,3.921 39.528,3.751 39.139,3.751 L38.637,3.751 C38.487,3.751 38.487,3.817 38.481,3.921 L38.472,5.727 C38.163,6.015 37.601,6.224 36.860,6.224 C36.571,6.224 36.263,6.185 35.925,6.119 L35.919,3.372 C35.921,2.652 36.190,2.285 36.904,2.285 L39.865,2.285 C41.345,2.285 41.976,2.835 42.414,4.092 L43.017,5.819 C43.099,6.055 43.154,6.276 43.194,6.486 C43.469,7.939 42.764,8.855 40.832,8.855 ZM32.822,8.944 L30.196,6.274 L30.078,6.314 L30.576,8.944 L27.968,8.944 L27.583,6.915 C27.430,6.104 27.563,5.083 28.815,4.743 L26.473,2.375 L29.333,2.375 L32.027,5.083 L32.153,5.083 L31.640,2.375 L34.250,2.375 L34.633,4.403 C34.789,5.227 34.639,6.156 33.321,6.483 L35.794,8.944 L32.822,8.944 ZM24.380,8.944 L23.713,6.876 C23.575,6.876 23.445,6.981 23.431,7.177 L23.339,8.944 L21.295,8.944 L21.364,7.452 C21.430,6.143 21.872,5.698 23.365,5.698 L23.159,4.613 C23.060,4.089 22.772,3.827 22.308,3.827 L21.380,3.827 C20.871,3.592 20.594,2.990 20.390,2.375 L23.626,2.375 C24.654,2.375 25.438,2.937 25.659,4.102 L26.080,6.327 L26.939,8.944 L24.380,8.944 ZM17.594,6.274 L16.856,2.375 L19.453,2.375 L20.191,6.274 C19.802,6.405 19.348,6.457 18.884,6.457 C18.419,6.457 17.970,6.405 17.594,6.274 ZM14.303,8.713 L12.449,8.753 C12.316,8.755 12.146,8.684 12.006,8.580 L10.637,7.554 C10.350,7.339 10.236,7.067 10.372,6.936 L11.616,5.737 C11.739,5.619 11.650,5.360 11.380,5.156 L10.153,4.233 C9.861,4.012 9.734,3.738 9.874,3.606 L11.151,2.395 C11.246,2.304 11.364,2.227 11.550,2.225 L13.291,2.211 C13.431,2.210 13.560,2.348 13.505,2.401 L12.235,3.630 C12.112,3.751 12.239,4.012 12.501,4.212 L13.681,5.115 C13.972,5.337 14.099,5.608 13.959,5.742 L12.735,6.926 C12.607,7.049 12.696,7.309 12.965,7.510 L14.266,8.482 C14.491,8.649 14.406,8.711 14.303,8.713 ZM8.341,8.478 C8.212,8.603 8.301,8.862 8.570,9.062 L9.891,10.046 C10.069,10.180 10.061,10.270 9.902,10.273 L8.054,10.306 C7.921,10.308 7.751,10.237 7.612,10.133 L6.243,9.107 C5.955,8.892 5.841,8.621 5.977,8.489 L7.222,7.290 C7.344,7.171 7.255,6.913 6.985,6.709 L5.896,5.889 C5.608,5.674 5.493,5.403 5.630,5.272 L6.875,4.072 C6.997,3.954 6.908,3.695 6.638,3.491 L5.412,2.568 C5.118,2.346 4.991,2.074 5.132,1.940 L6.409,0.730 C6.504,0.640 6.622,0.562 6.808,0.560 L8.553,0.549 C8.665,0.544 8.824,0.672 8.758,0.742 L7.494,1.966 C7.369,2.086 7.497,2.347 7.759,2.547 L8.938,3.449 C9.229,3.672 9.357,3.942 9.218,4.077 L7.994,5.260 C7.864,5.386 7.962,5.638 8.223,5.845 L9.286,6.668 C9.577,6.890 9.704,7.161 9.565,7.295 L8.341,8.478 ZM3.552,6.952 C3.424,7.077 3.513,7.336 3.782,7.536 L5.084,8.509 C5.308,8.676 5.224,8.738 5.121,8.740 L3.266,8.780 C3.133,8.782 2.963,8.711 2.824,8.606 L1.455,7.580 C1.167,7.365 1.054,7.094 1.189,6.963 L2.434,5.764 C2.556,5.646 2.467,5.387 2.197,5.183 L0.971,4.259 C0.678,4.039 0.550,3.765 0.691,3.633 L1.968,2.422 C2.064,2.331 2.181,2.254 2.367,2.252 L4.108,2.238 C4.248,2.237 4.378,2.375 4.322,2.428 L3.053,3.657 C2.929,3.778 3.057,4.039 3.318,4.239 L4.498,5.141 C4.789,5.364 4.916,5.634 4.777,5.768 L3.552,6.952 Z"/>
</svg>