<svg 
 xmlns="http://www.w3.org/2000/svg"
 xmlns:xlink="http://www.w3.org/1999/xlink"
 width="74px" height="10px">
<path fill-rule="evenodd"  fill="rgb(255, 255, 255)"
 d="M73.762,8.159 L70.664,8.159 L67.982,5.638 L67.857,5.674 L68.324,8.159 L65.604,8.159 L65.245,6.243 C65.101,5.477 65.260,4.512 66.573,4.191 L64.178,1.954 L67.159,1.954 L69.914,4.512 L70.045,4.512 L69.565,1.954 L72.284,1.954 L72.643,3.870 C72.789,4.648 72.614,5.526 71.234,5.835 L73.762,8.159 ZM61.938,8.159 L60.779,1.978 L63.576,1.978 L64.736,8.159 L61.938,8.159 ZM59.839,8.159 L53.394,8.159 C53.425,7.491 53.684,6.923 54.070,6.750 L57.156,6.750 L52.137,1.954 L55.340,1.954 L57.435,3.993 L57.538,3.845 L57.184,1.954 L59.903,1.954 L60.169,3.375 C60.315,4.154 60.373,5.155 58.993,5.464 L60.274,6.576 C60.478,6.762 60.676,7.046 60.719,7.281 C60.808,7.751 60.479,8.159 59.839,8.159 ZM53.139,8.159 L50.433,8.159 L49.700,4.253 C49.596,3.697 49.474,3.326 48.611,3.326 L46.755,3.326 C46.401,3.041 46.023,2.633 45.766,1.954 L49.687,1.954 C51.204,1.954 52.061,2.411 52.360,4.005 L53.139,8.159 ZM40.341,4.265 C40.237,3.709 39.932,3.339 39.252,3.339 L36.348,3.326 C36.009,3.054 35.585,2.609 35.358,1.954 L40.339,1.954 C41.764,1.954 42.736,2.535 43.035,4.129 L43.791,8.159 L41.072,8.159 L40.341,4.265 ZM33.330,8.159 L32.590,4.216 C32.485,3.660 32.240,3.326 31.612,3.326 L30.998,3.326 C30.880,3.326 30.844,3.412 30.869,3.548 L31.735,8.159 L29.028,8.159 L27.992,2.633 C27.885,2.065 28.021,1.954 28.583,1.954 L32.532,1.954 C34.060,1.954 34.959,2.423 35.259,4.018 L36.035,8.159 L33.330,8.159 ZM26.465,5.810 C25.981,5.810 25.514,5.761 25.125,5.637 L24.433,1.954 L27.139,1.954 L27.831,5.637 C27.422,5.761 26.948,5.810 26.465,5.810 ZM23.086,5.810 C22.602,5.810 22.135,5.761 21.745,5.637 L21.054,1.954 L23.761,1.954 L24.452,5.637 C24.044,5.761 23.569,5.810 23.086,5.810 ZM17.932,8.159 L15.606,8.159 C15.579,7.738 15.793,6.996 16.099,6.749 L17.027,6.749 C17.773,6.749 18.095,6.378 18.071,5.761 L18.017,3.944 C18.016,3.870 18.018,3.808 18.006,3.746 C17.958,3.487 17.814,3.350 17.448,3.350 L14.821,3.350 C14.311,3.350 13.853,2.930 13.753,2.398 L13.391,0.470 C13.661,0.309 14.057,0.186 14.671,0.186 C15.285,0.186 15.692,0.261 15.995,0.347 L16.251,1.707 C16.276,1.842 16.389,1.954 16.546,1.954 L19.108,1.954 C20.088,1.954 20.535,2.522 20.656,3.165 C20.674,3.264 20.677,3.350 20.683,3.449 L20.788,5.823 C20.861,7.392 19.645,8.159 17.932,8.159 ZM10.973,8.214 C10.850,8.217 10.693,8.148 10.565,8.048 L9.304,7.056 C9.040,6.849 8.935,6.587 9.060,6.460 L10.206,5.301 C10.319,5.187 10.236,4.937 9.988,4.740 L8.858,3.848 C8.589,3.635 8.472,3.371 8.602,3.242 L9.777,2.073 C9.865,1.985 9.974,1.910 10.145,1.909 L11.748,1.896 C11.877,1.894 11.996,2.027 11.945,2.079 L10.776,3.267 C10.662,3.382 10.779,3.635 11.020,3.829 L12.107,4.700 C12.375,4.915 12.491,5.176 12.364,5.306 L11.236,6.449 C11.119,6.569 11.200,6.819 11.448,7.014 L12.647,7.953 C12.853,8.114 12.775,8.175 12.681,8.176 L10.973,8.214 ZM7.189,7.950 C7.070,8.070 7.153,8.320 7.401,8.514 L8.616,9.464 C8.781,9.593 8.773,9.680 8.627,9.683 L6.925,9.715 C6.802,9.717 6.646,9.649 6.518,9.547 L5.257,8.556 C4.993,8.349 4.887,8.087 5.013,7.960 L6.158,6.801 C6.272,6.687 6.189,6.437 5.941,6.241 L4.937,5.448 C4.673,5.240 4.567,4.978 4.693,4.851 L5.839,3.693 C5.952,3.579 5.870,3.328 5.621,3.132 L4.491,2.240 C4.221,2.026 4.105,1.762 4.234,1.634 L5.410,0.464 C5.498,0.377 5.606,0.302 5.778,0.300 L7.384,0.290 C7.488,0.285 7.634,0.409 7.573,0.476 L6.409,1.658 C6.294,1.774 6.412,2.027 6.654,2.220 L7.740,3.091 C8.008,3.306 8.125,3.567 7.997,3.697 L6.869,4.841 C6.751,4.961 6.840,5.206 7.081,5.405 L8.060,6.200 C8.328,6.415 8.445,6.676 8.316,6.806 L7.189,7.950 ZM2.780,6.475 C2.662,6.595 2.743,6.845 2.991,7.040 L4.189,7.979 C4.396,8.140 4.318,8.201 4.224,8.202 L2.516,8.240 C2.393,8.243 2.236,8.174 2.108,8.073 L0.847,7.082 C0.583,6.874 0.478,6.612 0.603,6.486 L1.749,5.327 C1.862,5.213 1.779,4.963 1.531,4.766 L0.401,3.874 C0.131,3.660 0.014,3.397 0.144,3.268 L1.321,2.099 C1.408,2.011 1.516,1.936 1.688,1.935 L3.291,1.922 C3.420,1.921 3.539,2.053 3.488,2.105 L2.319,3.292 C2.205,3.409 2.323,3.661 2.564,3.854 L3.650,4.726 C3.919,4.941 4.036,5.202 3.907,5.332 L2.780,6.475 ZM38.634,4.364 L38.752,4.364 L39.464,8.159 L36.836,8.159 L36.268,5.130 C36.644,4.698 37.810,4.364 38.634,4.364 Z"/>
</svg>