<svg 
 xmlns="http://www.w3.org/2000/svg"
 xmlns:xlink="http://www.w3.org/1999/xlink"
 width="25px" height="25px">
<path fill-rule="evenodd"  fill="rgb(255, 197, 26)"
 d="M23.700,10.899 L23.690,10.803 C23.402,7.958 22.016,5.406 19.888,3.803 L19.812,3.745 L20.378,2.935 L20.460,2.996 C22.825,4.769 24.361,7.586 24.674,10.725 L24.684,10.826 L23.700,10.899 ZM20.890,17.793 L23.196,20.104 C23.289,20.198 23.340,20.322 23.340,20.454 L23.340,21.681 C23.340,21.953 23.119,22.175 22.847,22.175 L15.337,22.175 L15.297,22.335 C15.223,22.627 15.129,22.835 15.102,22.892 L15.091,22.919 C14.761,23.863 13.957,24.538 12.996,24.676 C12.972,24.679 12.949,24.681 12.925,24.681 L12.436,24.681 C11.055,24.681 9.845,23.698 9.558,22.344 L9.522,22.175 L2.024,22.175 C1.752,22.175 1.531,21.953 1.531,21.681 L1.531,20.454 C1.531,20.322 1.582,20.198 1.675,20.104 L3.981,17.793 L3.981,11.246 C3.981,7.454 6.326,4.286 9.956,3.175 L10.105,3.129 L10.105,2.652 C10.105,1.386 11.172,0.316 12.436,0.316 C13.699,0.316 14.766,1.386 14.766,2.652 L14.766,3.129 L14.915,3.175 C18.545,4.286 20.890,7.453 20.890,11.246 L20.890,17.793 ZM10.646,22.525 C10.961,23.234 11.663,23.693 12.436,23.693 L12.916,23.688 C13.497,23.586 13.971,23.163 14.173,22.558 L14.316,22.225 L10.514,22.225 L10.646,22.525 ZM19.904,17.998 L19.904,11.246 C19.904,7.738 17.594,4.824 14.157,3.992 C13.935,3.938 13.780,3.740 13.780,3.511 L13.780,2.652 C13.780,1.934 13.151,1.305 12.436,1.305 C11.720,1.305 11.091,1.934 11.091,2.652 L11.091,3.511 C11.091,3.740 10.936,3.938 10.714,3.992 C7.277,4.824 4.967,7.738 4.967,11.246 L4.967,17.998 C4.967,18.130 4.916,18.254 4.823,18.347 L2.517,20.658 L2.517,21.187 L22.354,21.187 L22.354,20.658 L20.048,18.347 C19.954,18.254 19.904,18.129 19.904,17.998 ZM1.310,10.803 L1.300,10.899 L0.316,10.826 L0.327,10.724 C0.645,7.550 2.227,4.729 4.669,2.984 L4.753,2.924 L5.299,3.747 L5.221,3.803 C2.993,5.399 1.604,7.885 1.310,10.803 Z"/>
</svg>