<svg 
 xmlns="http://www.w3.org/2000/svg"
 xmlns:xlink="http://www.w3.org/1999/xlink"
 width="28px" height="29px">
<path fill-rule="evenodd"  fill="rgb(241, 185, 21)"
 d="M24.404,19.118 L23.216,19.243 C22.155,22.582 19.353,26.029 15.932,26.771 L15.857,26.788 L15.833,26.864 C15.653,27.491 15.164,27.947 14.561,28.099 C14.434,28.190 14.288,28.254 14.121,28.254 C13.953,28.254 13.805,28.188 13.676,28.095 C12.906,27.893 12.333,27.187 12.333,26.343 C12.333,25.342 13.135,24.527 14.121,24.527 C14.799,24.527 15.430,24.928 15.729,25.549 L15.775,25.644 L15.874,25.619 C19.049,24.862 21.514,21.579 22.306,18.366 L22.334,18.212 L22.392,18.202 L22.269,9.910 C22.269,6.159 18.647,1.964 13.799,1.964 C8.952,1.964 5.329,6.159 5.329,9.910 L5.486,19.331 L4.902,19.331 C2.388,19.331 0.493,17.529 0.493,15.139 C0.493,13.939 1.354,12.651 2.744,11.871 C3.156,11.640 3.660,11.453 4.124,11.328 L4.124,9.910 C4.124,5.582 8.261,0.741 13.799,0.741 C19.336,0.741 23.474,5.582 23.474,9.910 L23.474,11.328 L24.694,11.571 C26.379,12.143 27.385,13.477 27.385,15.139 C27.385,16.971 26.187,18.570 24.404,19.118 ZM14.133,25.775 C13.783,25.775 13.499,26.063 13.499,26.418 C13.499,26.774 13.783,27.062 14.133,27.062 C14.484,27.062 14.767,26.774 14.767,26.418 C14.767,26.063 14.484,25.775 14.133,25.775 ZM4.320,12.507 L4.168,12.532 C3.414,12.656 1.658,13.159 1.658,15.139 C1.658,16.597 2.665,17.777 4.165,18.076 L4.320,18.107 L4.320,12.507 ZM23.708,12.532 L23.557,12.507 L23.557,18.006 L23.601,17.998 L23.557,18.012 L23.557,18.107 L23.712,18.076 C25.211,17.777 26.219,16.597 26.219,15.139 C26.219,13.160 24.463,12.657 23.708,12.532 ZM13.953,20.167 C15.097,20.167 16.083,19.512 16.484,18.497 L17.247,18.497 L17.581,18.624 L17.508,18.821 C16.963,20.296 15.584,21.250 13.994,21.250 L13.934,21.249 C12.253,21.223 10.867,20.192 10.317,18.556 L10.297,18.497 L11.450,18.497 C11.986,19.694 13.068,20.153 13.953,20.167 Z"/>
</svg>