<svg 
 xmlns="http://www.w3.org/2000/svg"
 xmlns:xlink="http://www.w3.org/1999/xlink"
 width="34px" height="35px">
<path fill-rule="evenodd"  fill="rgb(241, 185, 21)"
 d="M30.021,23.272 L28.536,23.429 C27.209,27.603 23.707,31.911 19.431,32.839 L19.337,32.860 L19.307,32.955 C19.082,33.739 18.471,34.308 17.716,34.499 C17.558,34.612 17.376,34.693 17.167,34.693 C16.956,34.693 16.771,34.610 16.611,34.494 C15.648,34.241 14.931,33.359 14.931,32.303 C14.931,31.052 15.935,30.034 17.167,30.034 C18.014,30.034 18.803,30.535 19.177,31.311 L19.234,31.430 L19.358,31.399 C23.327,30.452 26.408,26.349 27.398,22.332 L27.432,22.140 L27.505,22.128 L27.352,11.762 C27.352,7.074 22.824,1.830 16.764,1.830 C10.705,1.830 6.177,7.074 6.177,11.762 L6.373,23.539 L5.643,23.539 C2.501,23.539 0.132,21.286 0.132,18.299 C0.132,16.799 1.208,15.189 2.945,14.214 C3.461,13.925 4.091,13.692 4.671,13.535 L4.671,11.762 C4.671,6.352 9.842,0.302 16.764,0.302 C23.686,0.302 28.858,6.352 28.858,11.762 L28.858,13.535 L30.383,13.839 C32.489,14.554 33.746,16.221 33.746,18.299 C33.746,20.589 32.249,22.588 30.021,23.272 ZM17.182,31.594 C16.744,31.594 16.390,31.954 16.390,32.398 C16.390,32.842 16.744,33.202 17.182,33.202 C17.620,33.202 17.975,32.842 17.975,32.398 C17.975,31.954 17.620,31.594 17.182,31.594 ZM4.916,15.009 L4.726,15.040 C3.783,15.195 1.588,15.824 1.588,18.299 C1.588,20.121 2.847,21.597 4.722,21.970 L4.916,22.009 L4.916,15.009 ZM29.151,15.040 L28.962,15.009 L28.962,21.882 L29.016,21.873 L28.962,21.890 L28.962,22.009 L29.156,21.970 C31.030,21.597 32.289,20.121 32.289,18.299 C32.289,15.826 30.094,15.196 29.151,15.040 ZM16.957,24.583 C18.387,24.583 19.619,23.765 20.120,22.496 L21.074,22.496 L21.492,22.655 L21.400,22.902 C20.720,24.746 18.996,25.937 17.008,25.937 L16.933,25.936 C14.831,25.904 13.099,24.615 12.412,22.570 L12.386,22.496 L13.829,22.496 C14.499,23.992 15.850,24.566 16.957,24.583 Z"/>
</svg>