<svg xmlns="http://www.w3.org/2000/svg" xmlns:xlink="http://www.w3.org/1999/xlink" preserveAspectRatio="xMidYMid" width="21.469" height="21.563" viewBox="0 0 21.469 21.563">
  <defs>
    <style>
      .cls-1 {
        fill: #fff;
        fill-rule: evenodd;
      }

      .cls-2 {
        stroke: #fff;
        stroke-width: 1px;
        fill: none;
      }
    </style>
  </defs>
  <g>
    <path d="M4.404,13.797 C4.490,13.797 4.576,13.760 4.640,13.687 L7.802,10.017 L10.118,12.773 C10.176,12.843 10.260,12.884 10.348,12.887 C10.436,12.893 10.521,12.852 10.583,12.786 L14.854,8.212 L14.854,9.811 C14.854,10.001 14.997,10.154 15.174,10.154 C15.352,10.154 15.495,10.001 15.495,9.811 L15.495,7.383 C15.495,7.360 15.493,7.338 15.489,7.315 C15.487,7.305 15.483,7.296 15.481,7.286 C15.477,7.274 15.475,7.263 15.471,7.252 C15.466,7.240 15.460,7.229 15.454,7.218 C15.450,7.209 15.446,7.201 15.441,7.192 C15.418,7.155 15.388,7.122 15.352,7.097 C15.344,7.092 15.335,7.087 15.327,7.082 C15.317,7.077 15.308,7.070 15.297,7.065 C15.286,7.061 15.275,7.058 15.264,7.055 C15.255,7.052 15.247,7.048 15.237,7.046 C15.217,7.042 15.195,7.039 15.174,7.039 L12.907,7.039 C12.730,7.039 12.586,7.193 12.586,7.383 C12.586,7.572 12.730,7.726 12.907,7.726 L14.400,7.726 L10.368,12.044 L8.043,9.278 C7.983,9.206 7.897,9.165 7.807,9.164 C7.717,9.167 7.631,9.204 7.569,9.275 L4.168,13.221 C4.048,13.360 4.056,13.578 4.186,13.706 C4.248,13.767 4.326,13.797 4.404,13.797 Z" class="cls-1"/>
    <circle cx="10.734" cy="10.781" r="10.234" class="cls-2"/>
  </g>
</svg>
