<svg xmlns="http://www.w3.org/2000/svg" xmlns:xlink="http://www.w3.org/1999/xlink" preserveAspectRatio="xMidYMid" width="30" height="30" viewBox="0 0 30 30">
  <defs>
    <style>
      .cls-1 {
        fill: #fff;
        fill-rule: evenodd;
      }

      .cls-2 {
        stroke: #fff;
        stroke-width: 1px;
        fill: none;
      }
    </style>
  </defs>
  <g>
    <path d="M6.233,19.477 C6.355,19.477 6.477,19.424 6.567,19.321 L11.051,14.141 L14.333,18.031 C14.417,18.129 14.535,18.188 14.659,18.191 C14.785,18.200 14.905,18.143 14.993,18.049 L21.048,11.592 L21.048,13.850 C21.048,14.117 21.251,14.335 21.502,14.335 C21.753,14.335 21.957,14.117 21.957,13.850 L21.957,10.422 C21.957,10.390 21.954,10.358 21.948,10.327 C21.945,10.312 21.940,10.299 21.936,10.285 C21.932,10.269 21.928,10.252 21.922,10.237 C21.916,10.220 21.907,10.205 21.899,10.189 C21.893,10.177 21.888,10.165 21.881,10.153 C21.847,10.100 21.804,10.054 21.755,10.019 C21.743,10.011 21.731,10.005 21.719,9.998 C21.705,9.990 21.691,9.981 21.676,9.974 C21.661,9.967 21.645,9.964 21.630,9.959 C21.617,9.955 21.605,9.949 21.591,9.947 C21.562,9.941 21.532,9.937 21.502,9.937 L18.288,9.937 C18.037,9.937 17.833,10.154 17.833,10.422 C17.833,10.690 18.037,10.907 18.288,10.907 L20.405,10.907 L14.689,17.002 L11.393,13.097 C11.307,12.996 11.186,12.937 11.058,12.937 C10.930,12.941 10.807,12.992 10.721,13.093 L5.899,18.663 C5.728,18.860 5.740,19.167 5.924,19.348 C6.012,19.434 6.122,19.477 6.233,19.477 Z" class="cls-1"/>
    <circle cx="15" cy="15" r="14.5" class="cls-2"/>
  </g>
</svg>
