<svg 
 xmlns="http://www.w3.org/2000/svg"
 xmlns:xlink="http://www.w3.org/1999/xlink"
 width="18px" height="27px">
<path fill-rule="evenodd"  fill="rgb(255, 193, 14)"
 d="M12.522,26.377 C10.986,26.377 9.771,25.604 8.852,24.891 C6.113,22.763 4.377,19.370 3.169,16.653 C1.797,13.561 0.971,10.401 0.844,7.753 C0.751,5.823 0.997,4.405 1.618,3.289 C2.260,2.134 3.381,1.611 4.371,1.150 C4.561,1.061 4.749,0.974 4.930,0.883 C5.613,0.542 6.387,0.556 7.055,0.925 C7.722,1.290 8.182,1.950 8.315,2.735 L9.281,8.464 C9.472,9.595 8.921,10.726 7.942,11.214 L6.923,11.724 C7.207,12.575 7.541,13.434 7.918,14.281 C8.293,15.126 8.704,15.947 9.143,16.724 L10.162,16.215 C11.142,15.726 12.315,15.996 13.015,16.871 L16.563,21.311 C17.050,21.919 17.238,22.716 17.077,23.497 L17.067,23.544 C16.550,25.595 14.081,26.175 13.336,26.306 C13.055,26.355 12.784,26.377 12.522,26.377 ZM5.954,1.834 C5.770,1.834 5.585,1.877 5.411,1.964 C5.221,2.060 5.024,2.151 4.825,2.244 C3.911,2.671 3.047,3.073 2.589,3.897 C2.086,4.801 1.889,6.007 1.970,7.692 C2.090,10.188 2.878,13.189 4.190,16.143 C5.340,18.733 6.985,21.958 9.518,23.927 C10.852,24.962 11.973,25.332 13.153,25.126 C14.340,24.918 15.703,24.325 15.965,23.289 L16.526,23.369 L15.975,23.242 C16.060,22.828 15.961,22.407 15.703,22.085 L12.155,17.644 C11.784,17.181 11.162,17.037 10.642,17.297 L9.444,17.894 C9.025,18.105 8.526,17.948 8.284,17.529 C7.785,16.662 7.319,15.740 6.897,14.790 C6.474,13.838 6.102,12.870 5.791,11.913 C5.640,11.448 5.843,10.941 6.264,10.731 L7.461,10.133 C7.980,9.873 8.272,9.274 8.171,8.675 L7.205,2.946 C7.134,2.530 6.891,2.180 6.536,1.986 C6.353,1.885 6.153,1.834 5.954,1.834 ZM8.963,16.813 C8.963,16.813 8.962,16.814 8.961,16.814 L8.963,16.813 ZM6.744,11.813 L6.743,11.813 C6.744,11.813 6.744,11.813 6.744,11.813 L6.744,11.813 Z"/>
</svg>