<svg 
 xmlns="http://www.w3.org/2000/svg"
 xmlns:xlink="http://www.w3.org/1999/xlink"
 width="15px" height="21px">
<path fill-rule="evenodd"  fill="rgb(255, 255, 255)"
 d="M10.882,20.500 C9.563,20.500 8.518,19.885 7.729,19.316 C5.375,17.621 3.882,14.920 2.845,12.755 C1.665,10.293 0.956,7.776 0.847,5.668 C0.767,4.130 0.978,3.002 1.511,2.113 C2.063,1.192 3.027,0.776 3.878,0.409 C4.041,0.338 4.202,0.268 4.358,0.196 C4.945,-0.076 5.610,-0.064 6.184,0.229 C6.757,0.520 7.152,1.046 7.267,1.671 L8.098,6.234 C8.261,7.134 7.788,8.035 6.946,8.424 L6.071,8.830 C6.315,9.508 6.602,10.192 6.926,10.867 C7.248,11.539 7.601,12.193 7.979,12.812 L8.855,12.406 C9.697,12.017 10.705,12.232 11.306,12.929 L14.355,16.465 C14.774,16.949 14.935,17.583 14.797,18.206 L14.788,18.243 C14.344,19.877 12.222,20.339 11.582,20.443 C11.341,20.482 11.107,20.500 10.882,20.500 ZM5.238,0.954 C5.080,0.954 4.921,0.988 4.772,1.057 C4.608,1.133 4.439,1.206 4.268,1.280 C3.482,1.619 2.740,1.941 2.346,2.596 C1.914,3.317 1.745,4.278 1.814,5.619 C1.917,7.607 2.595,9.997 3.722,12.349 C4.710,14.412 6.124,16.981 8.301,18.548 C9.447,19.373 10.411,19.667 11.424,19.503 C12.445,19.338 13.616,18.866 13.841,18.040 L14.324,18.104 L13.850,18.003 C13.923,17.673 13.838,17.338 13.617,17.082 L10.567,13.545 C10.248,13.176 9.714,13.062 9.267,13.268 L8.237,13.745 C7.878,13.912 7.448,13.787 7.240,13.453 C6.812,12.762 6.411,12.029 6.049,11.272 C5.685,10.514 5.365,9.742 5.098,8.980 C4.968,8.610 5.143,8.206 5.504,8.039 L6.533,7.562 C6.979,7.356 7.230,6.878 7.144,6.402 L6.313,1.839 C6.252,1.508 6.043,1.230 5.738,1.074 C5.580,0.994 5.409,0.954 5.238,0.954 ZM7.824,12.883 C7.824,12.883 7.823,12.884 7.823,12.884 L7.824,12.883 ZM5.917,8.901 L5.916,8.901 C5.917,8.901 5.917,8.901 5.917,8.901 L5.917,8.901 Z"/>
</svg>