<svg 
 xmlns="http://www.w3.org/2000/svg"
 xmlns:xlink="http://www.w3.org/1999/xlink"
 width="22px" height="33px">
<path fill-rule="evenodd"  fill="rgb(255, 193, 14)"
 d="M15.406,32.593 C13.487,32.593 11.968,31.626 10.819,30.735 C7.395,28.075 5.225,23.834 3.715,20.437 C2.000,16.572 0.968,12.622 0.809,9.313 C0.693,6.900 1.000,5.127 1.776,3.733 C2.579,2.289 3.981,1.635 5.218,1.058 C5.455,0.947 5.690,0.838 5.917,0.724 C6.770,0.298 7.737,0.316 8.573,0.777 C9.406,1.233 9.981,2.059 10.147,3.039 L11.356,10.202 C11.594,11.614 10.905,13.028 9.681,13.639 L8.408,14.276 C8.763,15.339 9.180,16.414 9.651,17.472 C10.120,18.529 10.634,19.554 11.183,20.526 L12.456,19.889 C13.682,19.278 15.148,19.616 16.022,20.710 L20.458,26.260 C21.067,27.019 21.301,28.016 21.100,28.992 L21.087,29.050 C20.441,31.615 17.355,32.340 16.424,32.503 C16.073,32.565 15.733,32.593 15.406,32.593 ZM7.196,1.914 C6.966,1.914 6.735,1.968 6.518,2.076 C6.280,2.196 6.034,2.310 5.786,2.426 C4.642,2.959 3.562,3.463 2.990,4.492 C2.361,5.623 2.116,7.130 2.216,9.237 C2.366,12.356 3.351,16.108 4.991,19.800 C6.429,23.037 8.485,27.068 11.652,29.529 C13.319,30.823 14.720,31.286 16.195,31.028 C17.679,30.769 19.382,30.028 19.710,28.732 L20.412,28.833 L19.723,28.674 C19.829,28.156 19.706,27.630 19.383,27.227 L14.947,21.677 C14.484,21.097 13.706,20.918 13.057,21.242 L11.559,21.989 C11.036,22.253 10.411,22.057 10.109,21.532 C9.485,20.448 8.902,19.296 8.375,18.108 C7.847,16.918 7.381,15.708 6.992,14.512 C6.804,13.931 7.058,13.297 7.584,13.035 L9.081,12.288 C9.729,11.963 10.094,11.214 9.968,10.465 L8.759,3.304 C8.671,2.784 8.367,2.346 7.924,2.104 C7.695,1.977 7.446,1.914 7.196,1.914 ZM10.958,20.637 C10.957,20.638 10.956,20.638 10.956,20.638 L10.958,20.637 ZM8.184,14.388 L8.183,14.388 C8.183,14.388 8.184,14.388 8.184,14.388 L8.184,14.388 Z"/>
</svg>