<svg 
 xmlns="http://www.w3.org/2000/svg"
 xmlns:xlink="http://www.w3.org/1999/xlink"
 width="13px" height="17px">
<path fill-rule="evenodd"  fill="rgb(19, 63, 149)"
 d="M8.993,16.877 C7.912,16.877 7.058,16.374 6.411,15.910 C4.485,14.524 3.263,12.315 2.414,10.545 C1.448,8.532 0.867,6.474 0.778,4.751 C0.713,3.494 0.886,2.571 1.322,1.844 C1.774,1.091 2.563,0.751 3.259,0.451 C3.393,0.393 3.525,0.336 3.652,0.277 C4.133,0.054 4.677,0.064 5.147,0.304 C5.616,0.542 5.940,0.972 6.033,1.483 L6.713,5.214 C6.847,5.950 6.460,6.686 5.771,7.005 L5.054,7.336 C5.254,7.890 5.489,8.450 5.754,9.001 C6.018,9.551 6.307,10.085 6.616,10.591 L7.333,10.260 C8.022,9.942 8.847,10.118 9.339,10.687 L11.835,13.579 C12.178,13.974 12.310,14.493 12.197,15.002 L12.190,15.032 C11.826,16.368 10.089,16.746 9.565,16.831 C9.368,16.863 9.177,16.877 8.993,16.877 ZM4.373,0.896 C4.243,0.896 4.113,0.924 3.991,0.981 C3.857,1.043 3.718,1.103 3.579,1.163 C2.935,1.441 2.328,1.704 2.006,2.239 C1.652,2.829 1.514,3.614 1.570,4.711 C1.654,6.336 2.209,8.290 3.131,10.213 C3.941,11.900 5.098,14.000 6.880,15.282 C7.818,15.956 8.607,16.197 9.436,16.063 C10.272,15.927 11.230,15.542 11.415,14.866 L11.809,14.919 L11.422,14.836 C11.482,14.567 11.412,14.292 11.231,14.083 L8.734,11.191 C8.474,10.889 8.036,10.796 7.671,10.965 L6.828,11.354 C6.533,11.491 6.182,11.389 6.012,11.116 C5.661,10.550 5.332,9.951 5.036,9.332 C4.739,8.713 4.477,8.082 4.258,7.459 C4.152,7.156 4.295,6.826 4.591,6.690 L5.433,6.300 C5.798,6.132 6.004,5.741 5.932,5.351 L5.252,1.621 C5.203,1.349 5.032,1.122 4.782,0.995 C4.653,0.929 4.513,0.896 4.373,0.896 ZM6.489,10.650 C6.489,10.650 6.489,10.650 6.488,10.650 L6.489,10.650 ZM4.929,7.394 L4.928,7.394 C4.928,7.394 4.928,7.394 4.928,7.394 L4.929,7.394 Z"/>
</svg>