<svg 
 xmlns="http://www.w3.org/2000/svg"
 xmlns:xlink="http://www.w3.org/1999/xlink"
 width="25px" height="43px">
<path fill-rule="evenodd"  fill="rgb(14, 63, 146)"
 d="M24.208,1.525 L23.442,1.525 L23.442,7.599 C23.442,9.070 23.006,10.484 22.180,11.690 L15.466,21.510 L15.420,21.578 L22.180,31.387 C23.005,32.586 23.442,33.991 23.442,35.451 L23.442,41.474 L24.208,41.474 C24.503,41.474 24.743,41.719 24.743,42.018 C24.743,42.318 24.503,42.562 24.208,42.562 L0.788,42.562 C0.494,42.562 0.254,42.318 0.254,42.018 C0.254,41.719 0.494,41.474 0.788,41.474 L1.555,41.474 L1.555,35.451 C1.555,33.991 1.991,32.586 2.816,31.387 L9.529,21.645 L9.576,21.578 L2.815,11.690 C1.991,10.484 1.555,9.069 1.555,7.599 L1.555,1.525 L0.788,1.525 C0.494,1.525 0.254,1.281 0.254,0.981 C0.254,0.681 0.494,0.437 0.788,0.437 L24.208,0.437 C24.503,0.437 24.743,0.681 24.743,0.981 C24.743,1.281 24.503,1.525 24.208,1.525 ZM22.372,1.525 L2.624,1.525 L2.624,7.599 C2.624,8.846 2.994,10.046 3.693,11.069 L10.667,21.269 C10.795,21.455 10.794,21.706 10.666,21.892 L3.692,32.013 C2.993,33.027 2.624,34.216 2.624,35.451 L2.624,41.474 L22.372,41.474 L22.372,35.451 C22.372,34.216 22.003,33.027 21.303,32.013 L14.330,21.892 C14.201,21.706 14.201,21.455 14.329,21.269 L21.303,11.069 C22.003,10.045 22.372,8.845 22.372,7.599 L22.372,1.525 ZM19.332,11.220 C19.170,11.457 18.822,11.522 18.588,11.356 C18.346,11.184 18.286,10.845 18.454,10.598 L19.166,9.557 C19.561,8.980 19.770,8.303 19.770,7.599 L19.770,6.938 C19.770,6.638 20.010,6.394 20.304,6.394 C20.599,6.394 20.839,6.638 20.839,6.938 L20.839,7.599 C20.839,8.527 20.565,9.418 20.044,10.178 L19.332,11.220 ZM20.304,4.834 C20.010,4.834 19.770,4.590 19.770,4.290 L19.770,3.628 C19.770,3.328 20.010,3.084 20.304,3.084 C20.599,3.084 20.839,3.328 20.839,3.628 L20.839,4.290 C20.839,4.590 20.599,4.834 20.304,4.834 ZM12.951,20.574 C12.852,20.734 12.683,20.828 12.498,20.828 C12.313,20.828 12.144,20.734 12.044,20.572 C11.900,20.352 9.297,16.537 7.474,13.867 C7.360,13.700 7.346,13.485 7.439,13.305 C7.532,13.124 7.713,13.013 7.913,13.013 L17.083,13.013 C17.283,13.013 17.465,13.124 17.557,13.305 C17.650,13.485 17.636,13.700 17.522,13.867 C16.789,14.940 13.126,20.307 12.951,20.574 ZM8.936,14.101 L9.062,14.286 C10.924,17.013 11.895,18.437 12.403,19.185 L12.498,19.325 L12.593,19.185 C13.101,18.437 14.072,17.013 15.934,14.286 L16.060,14.101 L8.936,14.101 ZM16.990,28.468 L20.049,32.907 C20.566,33.658 20.839,34.538 20.839,35.451 L20.839,39.371 C20.839,39.671 20.599,39.915 20.304,39.915 L19.003,39.915 C18.709,39.915 18.469,39.671 18.469,39.371 C18.469,39.071 18.709,38.827 19.003,38.827 L19.770,38.827 L19.770,35.451 C19.770,34.762 19.563,34.099 19.173,33.533 L16.273,29.324 L8.722,29.324 L5.823,33.532 C5.432,34.099 5.226,34.762 5.226,35.451 L5.226,38.827 L12.498,38.827 C12.793,38.827 13.033,39.071 13.033,39.371 C13.033,39.671 12.793,39.915 12.498,39.915 L4.691,39.915 C4.397,39.915 4.157,39.671 4.157,39.371 L4.157,35.451 C4.157,34.538 4.430,33.659 4.947,32.907 L8.006,28.468 C8.106,28.323 8.270,28.236 8.444,28.236 L16.552,28.236 C16.726,28.236 16.890,28.323 16.990,28.468 ZM15.101,38.827 L16.402,38.827 C16.696,38.827 16.936,39.071 16.936,39.371 C16.936,39.671 16.696,39.915 16.402,39.915 L15.101,39.915 C14.806,39.915 14.566,39.671 14.566,39.371 C14.566,39.071 14.806,38.827 15.101,38.827 Z"/>
</svg>