<svg 
 xmlns="http://www.w3.org/2000/svg"
 xmlns:xlink="http://www.w3.org/1999/xlink"
 width="30px" height="40px">
<path fill-rule="evenodd"  fill="rgb(14, 63, 146)"
 d="M28.598,39.946 L5.287,39.946 C4.927,39.946 4.634,39.655 4.634,39.298 C4.634,38.940 4.927,38.649 5.287,38.649 L27.945,38.649 L27.945,4.551 C27.945,4.193 28.238,3.902 28.598,3.902 C28.957,3.902 29.250,4.193 29.250,4.551 L29.250,39.298 C29.250,39.655 28.957,39.946 28.598,39.946 ZM21.798,15.485 C23.229,15.485 24.394,16.642 24.394,18.064 C24.394,19.486 23.229,20.643 21.798,20.643 C20.368,20.643 19.203,19.486 19.203,18.064 C19.203,16.642 20.368,15.485 21.798,15.485 ZM21.798,19.346 C22.510,19.346 23.088,18.770 23.088,18.064 C23.088,17.357 22.510,16.782 21.798,16.782 C21.087,16.782 20.508,17.357 20.508,18.064 C20.508,18.770 21.087,19.346 21.798,19.346 ZM21.798,28.997 C23.229,28.997 24.394,30.154 24.394,31.576 C24.394,32.998 23.229,34.155 21.798,34.155 C20.368,34.155 19.203,32.998 19.203,31.576 C19.203,30.154 20.368,28.997 21.798,28.997 ZM21.798,32.858 C22.510,32.858 23.088,32.283 23.088,31.576 C23.088,30.869 22.510,30.295 21.798,30.295 C21.087,30.295 20.508,30.869 20.508,31.576 C20.508,32.283 21.087,32.858 21.798,32.858 ZM21.798,22.241 C23.229,22.241 24.394,23.398 24.394,24.820 C24.394,26.242 23.229,27.399 21.798,27.399 C20.368,27.399 19.203,26.242 19.203,24.820 C19.203,23.398 20.368,22.241 21.798,22.241 ZM21.798,26.102 C22.510,26.102 23.088,25.527 23.088,24.820 C23.088,24.113 22.510,23.538 21.798,23.538 C21.087,23.538 20.508,24.113 20.508,24.820 C20.508,25.527 21.087,26.102 21.798,26.102 ZM15.000,15.485 C16.430,15.485 17.595,16.642 17.595,18.064 C17.595,19.486 16.430,20.643 15.000,20.643 C13.569,20.643 12.404,19.486 12.404,18.064 C12.404,16.642 13.569,15.485 15.000,15.485 ZM15.000,19.346 C15.711,19.346 16.290,18.770 16.290,18.064 C16.290,17.357 15.711,16.782 15.000,16.782 C14.288,16.782 13.710,17.357 13.710,18.064 C13.710,18.770 14.288,19.346 15.000,19.346 ZM15.000,28.997 C16.430,28.997 17.595,30.154 17.595,31.576 C17.595,32.998 16.430,34.155 15.000,34.155 C13.569,34.155 12.404,32.998 12.404,31.576 C12.404,30.154 13.569,28.997 15.000,28.997 ZM15.000,32.858 C15.711,32.858 16.290,32.283 16.290,31.576 C16.290,30.869 15.711,30.295 15.000,30.295 C14.288,30.295 13.710,30.869 13.710,31.576 C13.710,32.283 14.288,32.858 15.000,32.858 ZM15.000,22.241 C16.430,22.241 17.595,23.398 17.595,24.820 C17.595,26.242 16.430,27.399 15.000,27.399 C13.569,27.399 12.404,26.242 12.404,24.820 C12.404,23.398 13.569,22.241 15.000,22.241 ZM15.000,26.102 C15.711,26.102 16.290,25.527 16.290,24.820 C16.290,24.113 15.711,23.538 15.000,23.538 C14.288,23.538 13.710,24.113 13.710,24.820 C13.710,25.527 14.288,26.102 15.000,26.102 ZM5.606,6.481 C5.606,6.124 5.899,5.833 6.258,5.833 L23.741,5.833 C24.101,5.833 24.394,6.124 24.394,6.481 L24.394,12.272 C24.394,12.630 24.101,12.921 23.741,12.921 L6.258,12.921 C5.899,12.921 5.606,12.630 5.606,12.272 L5.606,6.481 ZM6.911,11.624 L23.088,11.624 L23.088,7.130 L6.911,7.130 L6.911,11.624 ZM8.201,15.485 C9.632,15.485 10.796,16.642 10.796,18.064 C10.796,19.486 9.632,20.643 8.201,20.643 C6.770,20.643 5.606,19.486 5.606,18.064 C5.606,16.642 6.770,15.485 8.201,15.485 ZM8.201,19.346 C8.912,19.346 9.491,18.770 9.491,18.064 C9.491,17.357 8.912,16.782 8.201,16.782 C7.490,16.782 6.911,17.357 6.911,18.064 C6.911,18.770 7.490,19.346 8.201,19.346 ZM8.201,28.997 C9.632,28.997 10.796,30.154 10.796,31.576 C10.796,32.998 9.632,34.155 8.201,34.155 C6.770,34.155 5.606,32.998 5.606,31.576 C5.606,30.154 6.770,28.997 8.201,28.997 ZM8.201,32.858 C8.912,32.858 9.491,32.283 9.491,31.576 C9.491,30.869 8.912,30.295 8.201,30.295 C7.490,30.295 6.911,30.869 6.911,31.576 C6.911,32.283 7.490,32.858 8.201,32.858 ZM8.201,22.241 C9.632,22.241 10.796,23.398 10.796,24.820 C10.796,26.242 9.632,27.399 8.201,27.399 C6.770,27.399 5.606,26.242 5.606,24.820 C5.606,23.398 6.770,22.241 8.201,22.241 ZM8.201,26.102 C8.912,26.102 9.491,25.527 9.491,24.820 C9.491,24.113 8.912,23.538 8.201,23.538 C7.490,23.538 6.911,24.113 6.911,24.820 C6.911,25.527 7.490,26.102 8.201,26.102 ZM28.598,1.339 L2.055,1.339 L2.055,39.298 C2.055,39.655 1.762,39.946 1.402,39.946 C1.042,39.946 0.749,39.655 0.749,39.298 L0.749,0.690 C0.749,0.332 1.042,0.041 1.402,0.041 L28.598,0.041 C28.957,0.041 29.250,0.332 29.250,0.690 C29.250,1.048 28.957,1.339 28.598,1.339 Z"/>
</svg>