<svg 
 xmlns="http://www.w3.org/2000/svg"
 xmlns:xlink="http://www.w3.org/1999/xlink"
 width="35px" height="41px">
<path fill-rule="evenodd"  fill="rgb(14, 63, 146)"
 d="M34.356,35.940 L26.628,35.940 C26.272,35.940 25.981,35.647 25.981,35.287 L25.981,10.647 C25.981,10.288 26.272,9.995 26.628,9.995 L34.356,9.995 C34.712,9.995 35.002,10.288 35.002,10.647 L35.002,35.287 C35.002,35.647 34.712,35.940 34.356,35.940 ZM33.709,11.300 L27.274,11.300 L27.274,34.635 L33.709,34.635 L33.709,11.300 ZM28.976,5.078 C28.588,5.132 28.282,4.903 28.227,4.532 L27.873,2.186 L17.867,13.831 C17.745,13.972 17.553,14.050 17.365,14.050 C17.258,14.050 17.152,14.025 17.060,13.972 L4.815,6.983 C4.505,6.805 4.396,6.406 4.572,6.093 C4.648,5.957 4.795,5.848 4.965,5.800 C5.132,5.752 5.314,5.770 5.453,5.847 L17.235,12.573 L26.242,2.093 L24.699,2.192 C24.685,2.193 24.670,2.193 24.656,2.193 C24.357,2.193 24.088,1.985 24.019,1.692 C23.980,1.521 24.008,1.346 24.100,1.197 C24.191,1.049 24.335,0.946 24.503,0.906 L28.159,0.046 C28.318,0.009 28.528,0.049 28.661,0.140 C28.812,0.243 28.914,0.405 28.941,0.585 L29.506,4.335 C29.532,4.509 29.489,4.681 29.387,4.821 C29.285,4.959 29.136,5.053 28.976,5.078 ZM9.634,17.197 L9.634,35.287 C9.634,35.647 9.344,35.940 8.988,35.940 L0.641,35.940 C0.284,35.940 -0.006,35.647 -0.006,35.287 L-0.006,17.197 C-0.006,16.838 0.284,16.545 0.641,16.545 L8.988,16.545 C9.344,16.545 9.634,16.838 9.634,17.197 ZM8.340,17.850 L1.288,17.850 L1.288,34.635 L8.340,34.635 L8.340,17.850 ZM13.788,35.940 C13.432,35.940 13.142,35.647 13.142,35.287 L13.142,24.995 C13.142,24.635 13.432,24.342 13.788,24.342 L21.516,24.342 C21.873,24.342 22.164,24.635 22.164,24.995 L22.164,35.287 C22.164,35.647 21.873,35.940 21.516,35.940 L13.788,35.940 ZM20.870,25.647 L14.434,25.647 L14.434,34.635 L20.870,34.635 L20.870,25.647 ZM1.269,39.636 L34.346,39.636 C34.703,39.636 34.993,39.928 34.993,40.287 C34.993,40.647 34.703,40.939 34.346,40.939 L1.269,40.939 C0.912,40.939 0.622,40.647 0.622,40.287 C0.622,39.928 0.912,39.636 1.269,39.636 Z"/>
</svg>