<svg 
 xmlns="http://www.w3.org/2000/svg"
 xmlns:xlink="http://www.w3.org/1999/xlink"
 width="19px" height="18px">
<path fill-rule="evenodd"  fill="rgb(2, 63, 135)"
 d="M1.238,17.787 L5.804,13.493 C7.207,14.749 9.063,15.522 11.105,15.522 C15.458,15.521 18.999,12.037 18.999,7.754 C18.999,3.472 15.458,-0.012 11.105,-0.012 C6.752,-0.012 3.211,3.472 3.211,7.754 C3.211,9.510 3.813,11.126 4.816,12.430 L0.226,16.747 C0.077,16.888 0.000,17.077 0.000,17.267 C0.000,17.446 0.068,17.625 0.203,17.765 C0.483,18.051 0.946,18.061 1.238,17.787 ZM4.673,7.754 C4.673,4.265 7.559,1.426 11.105,1.426 C14.652,1.426 17.537,4.265 17.537,7.754 C17.537,11.243 14.652,14.082 11.105,14.082 C7.559,14.082 4.673,11.243 4.673,7.754 Z"/>
</svg>