<svg 
 xmlns="http://www.w3.org/2000/svg"
 xmlns:xlink="http://www.w3.org/1999/xlink"
 width="19px" height="18px">
<path fill-rule="evenodd"  fill="rgb(2, 63, 135)"
 d="M2.062,17.657 L6.349,13.603 C7.666,14.789 9.409,15.519 11.326,15.519 C15.412,15.517 18.737,12.229 18.737,8.184 C18.737,4.141 15.412,0.851 11.326,0.851 C7.239,0.851 3.914,4.141 3.914,8.184 C3.914,9.843 4.480,11.369 5.422,12.599 L1.113,16.675 C0.972,16.809 0.900,16.987 0.900,17.167 C0.900,17.335 0.964,17.504 1.091,17.636 C1.354,17.906 1.788,17.916 2.062,17.657 ZM5.287,8.184 C5.287,4.890 7.996,2.210 11.326,2.210 C14.655,2.210 17.364,4.890 17.364,8.184 C17.364,11.479 14.655,14.159 11.326,14.159 C7.996,14.159 5.287,11.479 5.287,8.184 Z"/>
</svg>