<svg xmlns="http://www.w3.org/2000/svg" viewBox="0 0 66 73.05"><defs><style>.cls-1{fill:#1b3789;}.cls-2{fill:#f9c000;}</style></defs><title>Asset 15</title><g id="Layer_2" data-name="Layer 2"><g id="Layer_1-2" data-name="Layer 1"><rect class="cls-1" x="16.08" y="66.73" width="9.04" height="1.36"/><path class="cls-1" d="M20.31,5.49h.58a1,1,0,1,0,0-1.93h-.58a1,1,0,0,0,0,1.93Z"/><path class="cls-2" d="M23.34,39.56h-2c-.82,0-1.45-.08-1.45-1V36.05h-1l0,2.56c0,1.42.17,2.32,1.69,2.32h3.87V32.72H23.34Z"/><path class="cls-2" d="M21.14,35.26v2.43h1V34.74c0-1.47-.39-2-1.76-2H16.59v8.21h1.13V34.09h2.14C20.84,34.09,21.14,34.28,21.14,35.26Z"/><path class="cls-1" d="M20.17,57.6,18,55.44l.62-.62.13.13,1.41,1.41,2.72-2.71.53-.53-.73.29a3.52,3.52,0,1,0,1,2.46,3.4,3.4,0,0,0-.33-1.46Z"/><path class="cls-1" d="M63.81,26H41.2V4.68A4.68,4.68,0,0,0,36.53,0H4.68A4.69,4.69,0,0,0,0,4.68V9.33H.19v.22L0,68.37a4.69,4.69,0,0,0,4.68,4.68H36.53a4.68,4.68,0,0,0,4.67-4.68V47.84H63.81A2.08,2.08,0,0,0,66,45.9V28A2.08,2.08,0,0,0,63.81,26ZM2,4.68A2.68,2.68,0,0,1,4.68,2H36.53a2.67,2.67,0,0,1,2.66,2.67V7.35H2ZM39.19,68.37A2.67,2.67,0,0,1,36.53,71H4.68A2.68,2.68,0,0,1,2,68.37V63.25H39.19Zm0-7.1L2,61.24V9.33H7.12l32.07,0V26H12A2.08,2.08,0,0,0,9.82,28V45.9A2.08,2.08,0,0,0,12,47.84H39.19Zm25-15.08H11.68V27.69H64.14Z"/><polyline class="cls-2" points="60.4 33.13 30.55 33.13 30.55 34.83 60.4 34.83"/><polyline class="cls-2" points="59.72 38.14 34.66 38.14 34.66 39.74 59.72 39.74"/></g></g></svg>