<svg xmlns="http://www.w3.org/2000/svg" viewBox="0 0 84 65.38"><defs><style>.cls-1{fill:#1b3789;}.cls-2{fill:#f9c000;}</style></defs><title>Asset 20</title><g id="Layer_2" data-name="Layer 2"><g id="Layer_1-2" data-name="Layer 1"><path class="cls-1" d="M59.86,0H6.68A6.68,6.68,0,0,0,0,6.68V37.46a6.69,6.69,0,0,0,6.68,6.68H59.86a6.68,6.68,0,0,0,6.67-6.68V6.68A6.68,6.68,0,0,0,59.86,0ZM2.15,16.79V12.16s0-.09,0-.13V7s0-.08,0-.13v-.2A4.53,4.53,0,0,1,6.68,2.15H59.86a4.53,4.53,0,0,1,4.52,4.53V8.4H4.72v2.15H64.38v6.24h0V19h0V37.46A4.52,4.52,0,0,1,59.86,42H6.68a4.52,4.52,0,0,1-4.53-4.52V19"/><path class="cls-1" d="M9.47,30.14h11.2a1.08,1.08,0,1,0,0-2.15H9.47a1.08,1.08,0,0,0,0,2.15Z"/><path class="cls-1" d="M29.07,33.59H9.47a1.08,1.08,0,0,0,0,2.15h19.6a1.08,1.08,0,0,0,0-2.15Z"/><rect class="cls-1" x="0.57" y="63.23" width="3.07" height="2.15"/><rect class="cls-1" x="6.23" y="63.23" width="2.68" height="2.15"/><rect class="cls-1" x="11.49" y="63.23" width="53.19" height="2.15"/><polygon class="cls-2" points="77.28 50.56 77.25 43.84 74.93 43.84 74.93 50.56 68.21 50.56 68.21 52.92 74.93 52.92 74.93 59.64 77.28 59.64 77.28 52.92 84 52.92 84 50.56 77.28 50.56"/><polyline class="cls-2" points="2.15 18.95 61.78 18.95 61.78 16.79 2.15 16.79"/></g></g></svg>