<svg xmlns="http://www.w3.org/2000/svg" viewBox="0 0 75 75.15"><defs><style>.cls-1{fill:none;}.cls-2{fill:#1b3789;}.cls-3{fill:#f9c000;}</style></defs><title>Asset 19</title><g id="Layer_2" data-name="Layer 2"><g id="Layer_1-2" data-name="Layer 1"><path class="cls-1" d="M71.16,65.07H34.68v5.26a2.75,2.75,0,0,0,2.75,2.75H70.19a2.75,2.75,0,0,0,2.74-2.75V65.07H71.16Zm-12.7,5H49.15v-1.4h9.31Z"/><path class="cls-1" d="M70.19,2.07H37.43a2.75,2.75,0,0,0-2.75,2.74V7.56H72.93V4.81A2.74,2.74,0,0,0,70.19,2.07ZM54.1,5.65h-.59a1,1,0,1,1,0-2h.59a1,1,0,1,1,0,2Z"/><path class="cls-2" d="M70.19,0H37.43a4.82,4.82,0,0,0-4.82,4.81V9.6h.2v.23h-.2v8.86h2.07V9.83h-.34V9.6h5.59v0h33V63H68.11v0H34.68V52.66H32.61V70.33a4.82,4.82,0,0,0,4.82,4.82H70.19A4.82,4.82,0,0,0,75,70.33V4.81A4.82,4.82,0,0,0,70.19,0Zm2.74,70.33a2.75,2.75,0,0,1-2.74,2.75H37.43a2.75,2.75,0,0,1-2.75-2.75V65.07H72.93Zm0-62.77H34.68V4.81a2.75,2.75,0,0,1,2.75-2.74H70.19a2.74,2.74,0,0,1,2.74,2.74Z"/><rect class="cls-2" x="49.15" y="68.65" width="9.3" height="1.4"/><path class="cls-2" d="M54.1,3.66h-.59a1,1,0,1,0,0,2h.59a1,1,0,1,0,0-2Z"/><polyline class="cls-3" points="11.28 25.64 0 25.64 0 27.65 11.28 27.65"/><polyline class="cls-3" points="11.28 33.5 1.81 33.5 1.81 35.4 11.28 35.4"/><polyline class="cls-3" points="11.28 41.31 4.67 41.31 4.67 43.2 11.28 43.2"/><polygon class="cls-3" points="50.45 40.39 50.44 40.39 50.45 40.39 50.45 40.39"/><path class="cls-2" d="M55.62,23.85l.2-.12h0l-.23,0,.17-.18-.21.1-.08-.14.12-.22-.17.15-.11-.11.06-.24h0l-.13.19.07-.23h0l-.13.19-.25-.11,0-.25h0l0,.23-.16,0L18,22.89l-.09-.22,0,.23h-.1l-.1-.21v.23h-.06l-.18-.17h0l.1.2-.2-.15h0l.11.2-.16-.17.08.22-.18-.15h0l.12.19-.15.16L17,23.18l.16.17,0,.08h-.26l.21.09,0,.09h-.23l.21.07-.24.05.23,0v.1l-.14,24.46a1,1,0,0,0,.28.7,1,1,0,0,0,.7.3h0l36.66.22a1,1,0,0,0,.7-.29,1,1,0,0,0,.3-.7l.13-24.62.2-.14h0Zm-4.55,1.23L36.28,33.83l-.12-.07L21.59,24.9ZM53.3,47.54l-34.44-.2v-.23L19,25.65,35.78,35.86l.06,0,.09,0L36,36l.07,0,0,.24h0l0-.23,0,.23h0V36l0,.23h0l0-.23h.12l.09,0,.1,0,.08,0h0l.08,0,16.89-10-.13,21.69Z"/></g></g></svg>