<svg xmlns="http://www.w3.org/2000/svg" viewBox="0 0 59 84.82"><defs><style>.cls-1{fill:#f9c000;}.cls-2{fill:#1b3789;}</style></defs><title>Asset 16</title><g id="Layer_2" data-name="Layer 2"><g id="Layer_1-2" data-name="Layer 1"><path class="cls-1" d="M12.31,72.75a.73.73,0,0,1-.62-.4C5.19,60,5.39,49.51,5.42,49a.77.77,0,0,1,.77-.79.82.82,0,0,1,.67.9,50.08,50.08,0,0,0,6.05,22.32,1,1,0,0,1-.22,1.18A.7.7,0,0,1,12.31,72.75Z"/><path class="cls-1" d="M45.36,15.56a.73.73,0,0,1-.64-.38A17.12,17.12,0,0,0,30.07,6.25h0a.72.72,0,0,1,0-1.43,18.66,18.66,0,0,1,16,9.69.71.71,0,0,1-.3,1A.81.81,0,0,1,45.36,15.56Z"/><path class="cls-2" d="M39.15,34.16a1.33,1.33,0,0,0,.94-.39,1.27,1.27,0,0,0,.38-.93,1.3,1.3,0,0,0-.38-.93,1.33,1.33,0,0,0-1.87,0,1.31,1.31,0,0,0-.39.93,1.28,1.28,0,0,0,.39.93A1.32,1.32,0,0,0,39.15,34.16Z"/><path class="cls-2" d="M20.94,34a1.35,1.35,0,0,0,.93-.38,1.32,1.32,0,0,0,0-1.87,1.33,1.33,0,0,0-1.87,0,1.32,1.32,0,0,0,0,1.87A1.36,1.36,0,0,0,20.94,34Z"/><path class="cls-2" d="M42.68,47.22a5.77,5.77,0,0,0,1.59-2.63c.5-1.75,1.13-4.07,1.31-5.18a.77.77,0,0,0-1.51-.26c-.13.82-.58,2.6-1.27,5a4.29,4.29,0,0,1-1.18,1.94l-4,3.79c-7,6.19-9,4.55-17.44-2.39-1.3-1.53-2.76-3.58-3.75-8.42a.77.77,0,0,0-.91-.59.75.75,0,0,0-.59.9c1,5,2.59,7.35,4.13,9.15l.09.1c4.9,4,8,6.59,11.35,6.59,2.36,0,4.84-1.28,8.16-4.21Z"/><path class="cls-2" d="M47.57,27.28a46.64,46.64,0,0,0-9.47,0,39.45,39.45,0,0,0-5.13.95,14.26,14.26,0,0,1-2.74.49h0a14.09,14.09,0,0,1-2.74-.48,40.5,40.5,0,0,0-5.13-.91,50,50,0,0,0-8.62-.07l-1.15.15c-.59.12-1,.27-.91.92v.12a13.87,13.87,0,0,0,.24,2.36.83.83,0,0,0,.4.38c.08,0,.08,0,.09.06s.15.41.3.85c1.07,3.12,1.87,5.15,2.54,5.65,1.14.86,4,1,5.23,1h.1c1.24,0,5.36-.23,6.35-1.45a13.73,13.73,0,0,0,1.38-2.63,13.25,13.25,0,0,1,1-2,1.11,1.11,0,0,1,.89-.29,1.28,1.28,0,0,1,.88.28,12.1,12.1,0,0,1,1.06,2,15,15,0,0,0,1.39,2.63c1,1.24,5.37,1.42,6.46,1.4s4.09-.16,5.23-1c.66-.51,1.45-2.55,2.51-5.68.15-.44.25-.75.29-.83s0,0,.09-.07a.86.86,0,0,0,.4-.39,14.78,14.78,0,0,0,.23-2.36v-.12C48.84,27.5,48.34,27.41,47.57,27.28ZM27.29,32.61c-.33,1.72-1.08,3.48-1.64,3.85a22.82,22.82,0,0,1-4.79.91h-.37c-1,0-3.23,0-4.38-.86s-1.8-6.42-1.57-7.13c.13-.23.8-.55,3.54-.55.74,0,1.64,0,2.72.08,4.64.24,6.27,1.17,6.51,1.51A3.68,3.68,0,0,1,27.29,32.61Zm17.1,3.82h0c-1.14.83-3.33.86-4.38.88h-.32a24,24,0,0,1-4.84-.88c-.56-.36-1.32-2.13-1.66-3.85a3.8,3.8,0,0,1,0-2.19c.24-.34,1.87-1.28,6.51-1.54,1.18-.07,2.14-.1,2.93-.1,2.56,0,3.19.3,3.31.49C46.15,30,45.5,35.63,44.39,36.43Z"/><path class="cls-2" d="M12.58,26.66a1,1,0,0,0,1-.89c.34-2.36.6-5.37,2.94-8.35,1.65,3.86,6.55,8.71,13.52,9.58a.74.74,0,0,0,.82-.51.75.75,0,0,0-.33-.9,9.92,9.92,0,0,1-3.45-2.94c3.55,2.13,9.27,3.77,13,3.5l5.69-1,1.09,1.67A.76.76,0,0,0,48,26.7a.77.77,0,0,0-.09-1.08l-1.32-1.87a.78.78,0,0,0-.53-.18l-6,1.05c-4.59.34-12.1-1.66-14.13-4a.77.77,0,0,0-1.31.75l.11.31c.43,1.34.83,1.68,2.17,3-4.88-1.62-8.42-6-9.32-9.09A.76.76,0,0,0,17,15.1a.74.74,0,0,0-.74.25c-3.45,4-4,10.2-4,10.49A.75.75,0,0,0,12.58,26.66Z"/><path class="cls-2" d="M33,38.66l-.82-.61a1.92,1.92,0,0,1-1.41.88A2.37,2.37,0,0,1,29,38.14l-.72.71A3.43,3.43,0,0,0,30.62,40h.19A3,3,0,0,0,33,38.66Z"/><path class="cls-2" d="M25,42.89a.6.6,0,0,0,0,.74c.1.15,2.56,3.66,5.95,4h.39c3.19,0,5.61-3.84,5.71-4a.62.62,0,0,0-.66-.93,25.81,25.81,0,0,1-5.37.59c-3.88,0-5.25-.56-5.27-.58A.63.63,0,0,0,25,42.89Zm6,1.63A27,27,0,0,0,35,44.19c-.92,1.05-2.4,2.35-4,2.21a7,7,0,0,1-3.89-2.11A30.34,30.34,0,0,0,31,44.52Z"/><path class="cls-2" d="M21.72,54.22A.88.88,0,0,0,20,53.94c-2.27,14.24,2.83,23.74,6.88,28.79-3.27-.37-8.92-1.2-13-6.69a.88.88,0,0,0-1.06-.28.89.89,0,0,0-.51,1c.15.74.28,1.27.4,1.73,0,.18.08.34.12.5C-1.71,62.87-2,26.91,12.84,9.16A.88.88,0,0,0,11.49,8C3.92,17.07-.37,31.4,0,46.37S5.44,74.71,13.47,82.1a.88.88,0,0,0,1.47-.7c0-.73-.11-1.29-.18-1.76,4.32,4,9.38,4.55,12.3,4.88a10.57,10.57,0,0,1,1.68.25,1,1,0,0,0,.29,0,.88.88,0,0,0,.74-.39c.39-.59,0-1.06-.35-1.4C25.51,78.73,19.31,69.27,21.72,54.22Z"/><path class="cls-2" d="M52.77,15.3c-5-8.25-11.07-13.23-18-14.79C28.28-.94,21.2.72,14.24,5.31a.87.87,0,1,0,1,1.46C21.85,2.39,28.29.86,34.35,2.22c6.48,1.46,12.17,6.16,16.93,14,8.48,14,6.34,38.06,2.85,46.51a45,45,0,0,1-5.86,10.59c.25-2.19-.06-2.31-.53-2.5a1,1,0,0,0-1.18.41,27,27,0,0,1-7.93,7.49c1.52-5.42,2-23.79,2-24.61a.88.88,0,1,0-1.76,0c-.14,5.78-.8,21.5-2.12,24.73-.54,1.3.09,1.81.38,2a1.08,1.08,0,0,0,.52.12c1.88,0,5.79-2.87,8.68-6.45-.06.46-.14.93-.21,1.37a.87.87,0,0,0,.43.91.89.89,0,0,0,1-.1,44.53,44.53,0,0,0,8.19-13.22C59.46,54.41,61.69,30,52.77,15.3Z"/></g></g></svg>