<svg xmlns="http://www.w3.org/2000/svg" viewBox="0 0 42 102.57"><defs><style>.cls-1{fill:#1b3789;}.cls-2{fill:#f9c000;}</style></defs><title>Asset 17</title><g id="Layer_2" data-name="Layer 2"><g id="Layer_1-2" data-name="Layer 1"><rect class="cls-1" x="16.39" y="96.13" width="9.22" height="1.39"/><path class="cls-1" d="M21.29,31.73h-.58a1,1,0,0,0,0,2h.58a1,1,0,1,0,0-2Z"/><path class="cls-1" d="M12.15,17.62a.72.72,0,0,0,0,1.21,1.28,1.28,0,0,0,1.55,0,10.22,10.22,0,0,1,6.23-2,10.23,10.23,0,0,1,6.24,2,1.28,1.28,0,0,0,1.55,0,.72.72,0,0,0,0-1.21C23.57,14.36,16.44,14.36,12.15,17.62Z"/><path class="cls-2" d="M30.45,12.28l.1,0a.46.46,0,0,0,.34-.34.73.73,0,0,0-.3-.71A16.45,16.45,0,0,0,20,7.57h0a16.66,16.66,0,0,0-10.65,3.6.74.74,0,0,0-.33.61.82.82,0,0,0,.44.59,1.18,1.18,0,0,0,.78.27,1.16,1.16,0,0,0,.76-.34,14.1,14.1,0,0,1,9.15-3,13.74,13.74,0,0,1,8.82,3A1.28,1.28,0,0,0,30.45,12.28Z"/><path class="cls-1" d="M8.13,5.83A18,18,0,0,1,19.92,1.71h0A17.8,17.8,0,0,1,31.7,5.83a1.45,1.45,0,0,0,1.56.08.67.67,0,0,0,.42-.5.75.75,0,0,0-.31-.69A20.28,20.28,0,0,0,19.94,0h0A20.57,20.57,0,0,0,6.46,4.71c-.47.37-.29.89.13,1.22A1.29,1.29,0,0,0,8.13,5.83Z"/><path class="cls-2" d="M24.52,63.9l1.63,1.57a1.07,1.07,0,0,0,.22.15.49.49,0,0,0,.18,0l2.31-.06-1.49-1.42a.27.27,0,0,1-.07-.08c-.34-.4-.38-.86-.11-1.11l1.91-1.77a.14.14,0,0,0,0-.11.79.79,0,0,0-.27-.5l-1.39-1.36a2.75,2.75,0,0,1-.22-.26.73.73,0,0,1,0-.93l1.87-1.73-2.41,0a.6.6,0,0,0-.3.14l-.16-.15.11.19-2,1.79c-.08.07,0,.25.09.44a.75.75,0,0,0,.14.17l1.44,1.39a1.09,1.09,0,0,1,.36.76.57.57,0,0,1-.18.43l-1.93,1.79c-.08.07,0,.29.15.51Z"/><path class="cls-2" d="M18.31,66.26l1.6,1.53.19.13a.67.67,0,0,0,.21.07l2.32,0-1.5-1.42L21,66.38c-.3-.4-.31-.83-.05-1.06l1.9-1.77a.14.14,0,0,0,0-.11.81.81,0,0,0-.28-.51l-1.21-1.2a1.11,1.11,0,0,1-.38-.79.55.55,0,0,1,.18-.43l1.91-1.77c.08-.08,0-.3-.16-.51l0,0a.1.1,0,0,0,0,0L21.5,56.78l-.09-.11c-.34-.42-.39-.85-.13-1.09l1.86-1.73h0l-2.3,0a.69.69,0,0,0-.32.12l-.05,0-.06,0-2,1.81c-.08.07,0,.29.17.52l1.56,1.53c.35.4.4.87.13,1.13l-1.94,1.79a.15.15,0,0,0,0,.12.76.76,0,0,0,.26.48l1.28,1.23a1,1,0,0,1,.36.76.57.57,0,0,1-.18.43l-1.93,1.79c-.08.07,0,.28.12.47Z"/><path class="cls-2" d="M13.84,65.51a.74.74,0,0,0,.31.17l.07,0h.27l2,0-1.49-1.42a1.07,1.07,0,0,1-.36-.75.6.6,0,0,1,.19-.44l1.9-1.77c.08-.07,0-.27-.11-.46a1.32,1.32,0,0,0-.12-.16l-1.43-1.4c-.37-.41-.45-.88-.17-1.14l1.86-1.73h0l-2.3,0a.51.51,0,0,0-.28.09l-.15.1-2,1.81a.12.12,0,0,0,0,.1.78.78,0,0,0,.25.48l-.15.17.19-.13,1.42,1.37a.64.64,0,0,1,.1.13c.32.4.34.83.09,1.07L12,63.38a.14.14,0,0,0,0,.11.76.76,0,0,0,.26.49Z"/><polygon class="cls-2" points="15.3 59.12 15.3 59.12 15.3 59.12 15.3 59.12"/><path class="cls-1" d="M37.23,28.11H4.77A4.78,4.78,0,0,0,0,32.88v4.74H.2v.22H0v60a4.78,4.78,0,0,0,4.77,4.78H37.23A4.78,4.78,0,0,0,42,97.79V32.88A4.78,4.78,0,0,0,37.23,28.11ZM40,97.79a2.73,2.73,0,0,1-2.72,2.73H4.77a2.73,2.73,0,0,1-2.72-2.73V92.58H40Zm0-7.23H35.18v0H2.05V37.84H1.71v-.22H7.25v0H40Zm0-55H2.05V32.88a2.72,2.72,0,0,1,2.72-2.72H37.23A2.72,2.72,0,0,1,40,32.88Z"/></g></g></svg>