<svg xmlns="http://www.w3.org/2000/svg" viewBox="0 0 82 80.4"><defs><style>.cls-1{fill:#1b3789;}.cls-2{fill:#f9c000;}</style></defs><title>Asset 21</title><g id="Layer_2" data-name="Layer 2"><g id="Layer_1-2" data-name="Layer 1"><path class="cls-1" d="M53.16,0H5.28A5.28,5.28,0,0,0,0,5.27V35.6a5.28,5.28,0,0,0,5.28,5.26H27.81L28,41,45.39,54.87v-14h7.77a5.28,5.28,0,0,0,5.28-5.26V5.27A5.28,5.28,0,0,0,53.16,0Zm3.42,35.6A3.46,3.46,0,0,1,53.16,39H43.52V51l-.16-.13L28.46,39H5.28a3.45,3.45,0,0,1-3.41-3.4V5.27a3.41,3.41,0,0,1,3.41-3.4H53.16a3.41,3.41,0,0,1,3.42,3.4Z"/><rect class="cls-2" x="9.08" y="15.36" width="3.97" height="1.84"/><rect class="cls-2" x="17.31" y="15.36" width="32.05" height="1.84"/><rect class="cls-2" x="28.42" y="23.82" width="20.93" height="1.84"/><path class="cls-1" d="M75.4,66.85H63.83c-.27,0-6.59.17-6.59,6V80.4H82V72.83C82,67.17,76.08,66.86,75.4,66.85Zm4.52,11.48H59.32v-5.5c0-2.36,1.62-3.79,4.44-3.9H75.38c2.11,0,3.61.9,4.23,2.31a3.86,3.86,0,0,1,.31,1.59Z"/><path class="cls-1" d="M69.62,63.07a7.43,7.43,0,1,0-7.48-7.42A7.46,7.46,0,0,0,69.62,63.07Zm0-12.77a5.35,5.35,0,1,1-5.4,5.35A5.39,5.39,0,0,1,69.62,50.3Z"/></g></g></svg>