<svg xmlns="http://www.w3.org/2000/svg" viewBox="0 0 92 64.79"><defs><style>.cls-1{fill:#1b3789;}.cls-2,.cls-3{fill:#f9c000;}.cls-2{stroke:#f9c000;stroke-miterlimit:10;stroke-width:0.5px;}</style></defs><title>Asset 18</title><g id="Layer_2" data-name="Layer 2"><g id="Layer_1-2" data-name="Layer 1"><path class="cls-1" d="M7,21.25,7.28,21l.21-.22.25-.24a1.89,1.89,0,0,1,.2-.2L8.27,20l.23-.21,1-.83,1.11-.83.34-.24.32-.23.21-.13,1.66-1L12.27,15l-.69.38-.18.1-.17.11-.57.35-.22.14-.33.21-.16.12-.8.55-.31.24-.78.62-.17.13-.18.16-.78.69L6.62,19l-.21.22L5.67,20l-.17.2-.22.25-.23.25-.31.37-.18.23-.25.31-.19.25-.25.35-.06.08-.31.45-.11.15-.2.31a3.21,3.21,0,0,0-.19.31l-.24.39-.19.31c-.07.13-.14.27-.22.4l-.15.29L2,25.37l-.24.52-.14.3c-.08.19-.16.35-.22.51s-.17.42-.24.63l-.06.15-.3.85c-.1.33-.2.64-.29,1s-.2.79-.28,1.19-.14.68-.19,1l1.83.25c.08-.48.18-1,.29-1.43s.2-.74.31-1.11.2-.62.31-.93.21-.6.31-.83.15-.35.23-.52l.09-.19c.1-.23.21-.45.32-.67L4,25.43c.1-.19.21-.38.32-.56l.33-.53c.1-.17.21-.34.32-.5l.33-.47.07-.09.25-.36.25-.31.2-.25a2.65,2.65,0,0,1,.21-.26l.22-.26.11-.12L7,21.35Z"/><path class="cls-2" d="M26.3,31a2,2,0,0,0-.13-.76h-7a2.73,2.73,0,0,0-.1.75,2,2,0,0,0,.12.76h7A2.18,2.18,0,0,0,26.3,31Z"/><path class="cls-2" d="M19.18,38.11h8a1.68,1.68,0,0,0,.14-.76,1.8,1.8,0,0,0-.14-.76H19.18a2.29,2.29,0,0,0,0,1.52Z"/><path class="cls-2" d="M19.46,44.42h14.2c.19,0,.41-.32.41-.76s-.22-.76-.41-.76H19.46c-.2,0-.41.33-.41.76S19.26,44.42,19.46,44.42Z"/><path class="cls-1" d="M56.9,0C45.52,0,35.41,6,31.14,15.34l-.14.31h-.35c-.32,0-.64,0-.95,0s-.8,0-1.19.07-.79.07-1.18.12-.79.11-1.18.18L25,16.27c-.39.09-.79.18-1.18.29s-.79.21-1.18.33-.8.26-1.18.4-.8.29-1.19.45-.79.34-1.18.53-.65.31-1,.48l-.21.12c-.4.21-.79.44-1.18.68s-.8.5-1.18.77-.8.56-1.18.86-.79.64-1.18,1-.8.74-1.18,1.13-.81.86-1.18,1.31a19.1,19.1,0,0,0-1.17,1.55c-.16.22-.3.44-.44.67-.27.42-.51.84-.74,1.25a19.63,19.63,0,0,0-1.17,2.61,18.85,18.85,0,0,0,0,13.13,19.77,19.77,0,0,0,1.17,2.61c.25.47.49.88.74,1.26.13.22.28.43.42.63a18.79,18.79,0,0,0,1.19,1.59c.35.42.74.85,1.18,1.3s.79.79,1.18,1.14.8.69,1.18,1,.68.52,1,.77l.23.16V64.79L26,58.46l.2,0c.37.06.73.12,1.1.16s.79.1,1.19.13.78.06,1.18.08q1.14,0,2.37,0l1.18-.07,1.18-.13,1.19-.17c.39-.07.79-.14,1.18-.23s.79-.18,1.18-.28.79-.22,1.18-.34.8-.25,1.19-.39.79-.3,1.18-.46.79-.34,1.18-.52.79-.39,1.18-.6.79-.45,1.18-.68.8-.5,1.18-.77.83-.59,1.18-.86.79-.64,1.18-1,.75-.7,1.11-1.07l-2.48-.48-.32.29c-.37.32-.78.64-1.24,1s-.85.61-1.24.86-.81.5-1.23.73-.81.44-1.23.64-.82.39-1.24.56-.82.33-1.23.47-.82.28-1.24.4-.81.23-1.23.33-.82.19-1.23.27-.82.15-1.23.2-.82.11-1.24.15-.81.07-1.23.09c-.82,0-1.65,0-2.46,0-.42,0-.83-.06-1.24-.09l-1.23-.16L26,56.32l-.32-.06-8.12,4.88.11-8L17.47,53l-.16-.11c-.44-.28-.85-.56-1.23-.85s-.87-.66-1.24-1-.8-.71-1.24-1.16-.86-.91-1.24-1.36a19.72,19.72,0,0,1-1.24-1.68A18.93,18.93,0,0,1,9.88,44.7a17.92,17.92,0,0,1-1.25-3.51,16.92,16.92,0,0,1-.46-3.92,17.09,17.09,0,0,1,.46-4,18.12,18.12,0,0,1,1.25-3.48,19.8,19.8,0,0,1,1.24-2.19A20.19,20.19,0,0,1,12.36,26c.4-.47.81-.93,1.24-1.37s.83-.81,1.24-1.15.77-.64,1.24-1,.85-.61,1.24-.86.81-.5,1.23-.74.81-.43,1.24-.64.81-.38,1.23-.56l1.23-.47c.41-.14.82-.27,1.24-.39s.81-.24,1.23-.34L26,18.19c.41-.08.82-.15,1.24-.21s.81-.11,1.23-.14l1-.08.77,0-.21.74a21.76,21.76,0,0,0-.85,6c0,10.58,8,20.08,19.38,23.28l4.94,1a31,31,0,0,0,8-.12l.19,0,.09,0,13,7.87V43.2l.22-.17a23.3,23.3,0,0,0,9.76-18.59C84.67,11,72.21,0,56.9,0Zm16,41.65-.49.35V52.31L62.11,46.09l-.43.07a30.32,30.32,0,0,1-4.78.4c-.89,0-1.8,0-2.72-.13l-.63-.07L53,46.3l-.31,0-.15,0q-.61-.09-1.23-.21l-.47-.09C39.42,43.48,31.46,34.65,31.46,24.44a19.52,19.52,0,0,1,1-6.26l0-.09c.08-.23.17-.46.25-.68a21.1,21.1,0,0,1,1.09-2.36C38.06,7.32,47.1,2.33,56.9,2.33c14.51,0,25.44,9.5,25.44,22.11C82.34,31.15,78.89,37.42,72.86,41.65Z"/><path class="cls-1" d="M91.86,23.11,90,23.37c0,.31.06.65.09,1a19,19,0,0,1,0,2.13c0,.43,0,.86-.1,1.28s-.09.66-.14,1-.1.57-.16.85l-.17.78c0,.19-.1.38-.16.56l0,.12c-.07.25-.13.44-.19.64s-.14.39-.2.58l0,.11-.17.45c0,.13-.1.26-.16.38l-.12.31c0,.11-.09.22-.14.33s-.08.18-.13.27l-.09.18c-.07.15-.14.3-.22.45s-.14.29-.22.43-.1.19-.16.28l-.13.24c0,.09-.1.19-.16.28l-.23.38-1.39,2-.17.21-.41.51-.15.18-.83.92a1.1,1.1,0,0,1-.15.16l-.15.16-.44.44,1.25,1.34.76-.76.13-.14.81-.9.11-.14.68-.84.12-.15.12-.17.6-.83.18-.26.54-.85.12-.19.12-.21.4-.73c.06-.09.09-.15.13-.22l.21-.41.18-.39L89.9,35l.12-.26.12-.27.08-.2.21-.49.07-.18.12-.32a3.4,3.4,0,0,0,.12-.34l.13-.38a3.54,3.54,0,0,0,.13-.39c0-.15.09-.3.13-.46l.09-.32c0-.16.1-.33.14-.49s.1-.42.14-.63l.07-.31c0-.19.08-.38.11-.57a9.06,9.06,0,0,0,.13-.91c.06-.39.09-.76.12-1.12s.06-.95.07-1.43A20.8,20.8,0,0,0,91.86,23.11Z"/><path class="cls-3" d="M47.47,23.43a2.32,2.32,0,0,0-1-.32h-.09l-.15,0a2.11,2.11,0,0,0-.72.13,2.2,2.2,0,0,0-.79.45,2,2,0,0,0-.69,1.53,2.15,2.15,0,0,0,2.2,2.1,2.2,2.2,0,0,0,2-1.18,2.05,2.05,0,0,0,.23-.92A2.08,2.08,0,0,0,47.47,23.43Z"/><path class="cls-3" d="M56.9,23.08a2.11,2.11,0,1,0,2.2,2.11A2.16,2.16,0,0,0,56.9,23.08Z"/><path class="cls-3" d="M67.54,23.08a2.11,2.11,0,1,0,2.2,2.11A2.16,2.16,0,0,0,67.54,23.08Z"/></g></g></svg>