<svg 
 xmlns="http://www.w3.org/2000/svg"
 xmlns:xlink="http://www.w3.org/1999/xlink"
 width="13px" height="17px">
<path fill-rule="evenodd"  fill="rgb(242, 185, 47)"
 d="M11.340,11.894 C10.304,13.705 8.765,14.830 6.617,16.059 C6.563,16.090 6.501,16.106 6.438,16.106 C6.375,16.106 6.313,16.090 6.259,16.059 C4.111,14.831 2.572,13.705 1.536,11.894 C0.494,10.072 0.030,7.614 0.030,3.925 C0.030,3.729 0.190,3.570 0.388,3.570 C1.368,3.570 2.117,2.998 2.910,2.393 C3.833,1.687 4.879,0.889 6.438,0.889 C7.997,0.889 9.043,1.687 9.965,2.392 C10.759,2.998 11.508,3.570 12.488,3.570 C12.685,3.570 12.846,3.729 12.846,3.925 C12.846,7.614 12.382,10.073 11.340,11.894 ZM9.528,2.955 C8.655,2.288 7.753,1.599 6.438,1.599 C5.123,1.599 4.221,2.288 3.348,2.954 C2.581,3.540 1.790,4.144 0.748,4.260 C0.802,10.990 2.472,13.047 6.438,15.341 C10.404,13.047 12.074,10.990 12.128,4.260 C11.085,4.144 10.294,3.539 9.528,2.955 ZM9.695,6.640 L9.144,7.282 L8.879,7.590 L8.608,7.905 L7.467,9.233 L6.280,10.614 C6.203,10.702 6.091,10.756 5.974,10.761 L5.957,10.761 C5.843,10.761 5.737,10.717 5.657,10.638 L3.885,8.883 C3.805,8.804 3.761,8.699 3.761,8.586 C3.761,8.474 3.805,8.369 3.885,8.289 C4.045,8.130 4.325,8.130 4.485,8.289 L5.932,9.722 L6.829,8.677 L8.161,7.128 L8.411,6.838 L8.659,6.549 L9.049,6.095 C9.068,6.073 9.094,6.060 9.117,6.043 C9.272,5.924 9.493,5.918 9.647,6.048 C9.806,6.182 9.832,6.405 9.730,6.577 C9.718,6.598 9.711,6.621 9.695,6.640 Z"/>
</svg>