<svg 
 xmlns="http://www.w3.org/2000/svg"
 xmlns:xlink="http://www.w3.org/1999/xlink"
 width="16px" height="19px">
<path fill-rule="evenodd"  fill="rgb(19, 63, 149)"
 d="M13.997,13.658 C12.730,15.873 10.847,17.249 8.219,18.752 C8.153,18.790 8.077,18.811 8.000,18.811 C7.923,18.811 7.847,18.790 7.781,18.752 C5.153,17.250 3.270,15.873 2.003,13.658 C0.728,11.428 0.160,8.421 0.160,3.908 C0.160,3.668 0.357,3.473 0.598,3.473 C1.797,3.473 2.714,2.774 3.683,2.033 C4.813,1.170 6.092,0.194 8.000,0.194 C9.907,0.194 11.187,1.170 12.315,2.032 C13.286,2.774 14.203,3.473 15.402,3.473 C15.643,3.473 15.840,3.668 15.840,3.908 C15.840,8.421 15.272,11.429 13.997,13.658 ZM11.780,2.720 C10.713,1.905 9.609,1.062 8.000,1.062 C6.391,1.062 5.287,1.905 4.220,2.720 C3.282,3.436 2.313,4.175 1.038,4.318 C1.104,12.551 3.148,15.067 8.000,17.874 C12.852,15.067 14.896,12.551 14.962,4.318 C13.686,4.175 12.717,3.436 11.780,2.720 ZM11.985,7.230 L11.310,8.014 L10.986,8.391 L10.655,8.777 L9.259,10.401 L7.806,12.091 C7.712,12.199 7.576,12.265 7.432,12.271 L7.411,12.271 C7.272,12.271 7.142,12.217 7.044,12.120 L4.876,9.974 C4.779,9.877 4.724,9.748 4.724,9.610 C4.724,9.473 4.779,9.344 4.876,9.247 C5.073,9.053 5.415,9.053 5.611,9.247 L7.380,11.000 L8.479,9.722 L10.108,7.827 L10.414,7.471 L10.718,7.118 L11.195,6.563 C11.218,6.536 11.250,6.520 11.277,6.499 C11.468,6.353 11.737,6.346 11.926,6.505 C12.121,6.669 12.153,6.942 12.028,7.153 C12.013,7.178 12.005,7.206 11.985,7.230 Z"/>
</svg>