<svg 
 xmlns="http://www.w3.org/2000/svg"
 xmlns:xlink="http://www.w3.org/1999/xlink"
 width="35px" height="41px">
<path fill-rule="evenodd"  fill="rgb(255, 193, 14)"
 d="M30.874,29.646 C28.049,34.526 23.849,37.557 17.989,40.867 C17.840,40.951 17.671,40.996 17.499,40.996 C17.327,40.996 17.158,40.951 17.010,40.867 C11.150,37.558 6.950,34.527 4.125,29.646 C1.281,24.735 0.013,18.113 0.013,8.171 C0.013,7.644 0.452,7.215 0.991,7.215 C3.665,7.215 5.709,5.675 7.872,4.043 C10.392,2.143 13.245,-0.008 17.499,-0.008 C21.753,-0.008 24.606,2.143 27.123,4.040 C29.289,5.675 31.333,7.215 34.007,7.215 C34.547,7.215 34.984,7.644 34.984,8.171 C34.984,18.114 33.717,24.737 30.874,29.646 ZM25.930,5.556 C23.549,3.760 21.088,1.904 17.499,1.904 C13.911,1.904 11.449,3.760 9.069,5.555 C6.976,7.134 4.816,8.761 1.973,9.074 C2.120,27.209 6.678,32.752 17.499,38.934 C28.321,32.752 32.879,27.209 33.026,9.074 C30.181,8.761 28.020,7.132 25.930,5.556 ZM26.386,15.489 L24.882,17.217 L24.159,18.048 L23.420,18.897 L20.307,22.474 L17.068,26.195 C16.857,26.434 16.554,26.579 16.233,26.591 L16.186,26.592 C15.876,26.592 15.585,26.475 15.367,26.261 L10.533,21.532 C10.315,21.319 10.194,21.034 10.194,20.732 C10.194,20.429 10.315,20.145 10.533,19.932 C10.971,19.504 11.733,19.504 12.171,19.932 L16.117,23.793 L18.568,20.979 L22.201,16.804 L22.884,16.020 L23.561,15.243 L24.624,14.021 C24.677,13.960 24.747,13.926 24.809,13.880 C25.234,13.559 25.834,13.542 26.257,13.893 C26.690,14.255 26.761,14.855 26.483,15.319 C26.449,15.375 26.431,15.437 26.386,15.489 Z"/>
</svg>