<svg 
 xmlns="http://www.w3.org/2000/svg"
 xmlns:xlink="http://www.w3.org/1999/xlink"
 width="121px" height="70px">
<defs>
<filter filterUnits="userSpaceOnUse" id="Filter_0" x="0px" y="0px" width="121px" height="70px"  >
    <feOffset in="SourceAlpha" dx="0" dy="0" />
    <feGaussianBlur result="blurOut" stdDeviation="2" />
    <feFlood flood-color="rgb(0, 0, 0)" result="floodOut" />
    <feComposite operator="atop" in="floodOut" in2="blurOut" />
    <feComponentTransfer><feFuncA type="linear" slope="0.13"/></feComponentTransfer>
    <feMerge>
    <feMergeNode/>
    <feMergeNode in="SourceGraphic"/>
  </feMerge>
</filter>
<linearGradient id="PSgrad_0" x1="0%" x2="98.163%" y1="19.081%" y2="0%">
  <stop offset="0%" stop-color="rgb(191,174,103)" stop-opacity="1" />
  <stop offset="18%" stop-color="rgb(206,190,117)" stop-opacity="1" />
  <stop offset="34%" stop-color="rgb(220,205,131)" stop-opacity="1" />
  <stop offset="59%" stop-color="rgb(193,173,104)" stop-opacity="1" />
  <stop offset="100%" stop-color="rgb(166,141,76)" stop-opacity="1" />
</linearGradient>

</defs>
<g filter="url(#Filter_0)">
<path fill-rule="evenodd"  fill="rgb(181, 156, 79)"
 d="M115.742,5.232 C115.138,6.047 114.160,7.039 113.507,7.963 C113.024,8.646 112.613,9.325 112.186,9.987 C111.858,10.493 111.560,10.905 111.170,11.403 C110.656,12.057 110.224,12.947 109.646,13.830 C107.202,17.561 104.702,20.939 102.227,24.958 C101.861,25.551 101.409,26.522 100.804,26.577 C100.235,26.628 99.513,25.996 99.280,25.565 C98.301,23.751 99.395,20.700 99.382,18.787 C98.091,20.005 96.910,21.634 95.622,23.238 C95.029,23.976 94.338,24.715 93.691,25.464 C92.848,26.440 92.238,27.108 91.252,27.790 C90.897,28.036 90.188,28.533 89.423,28.296 C89.558,27.578 90.198,27.182 90.642,26.678 C91.924,25.225 93.166,23.532 94.402,21.923 C96.038,19.796 97.630,17.661 99.280,15.550 C99.879,15.539 100.089,15.142 100.804,15.247 C101.762,17.955 100.122,20.956 100.601,23.845 C101.926,22.488 102.846,20.761 103.954,19.192 C104.508,18.408 104.925,17.517 105.479,16.764 C105.634,16.552 105.856,16.456 105.987,16.259 C106.343,15.720 106.562,14.916 107.207,14.539 C108.211,12.452 109.633,10.648 110.865,8.772 C112.094,6.902 113.453,5.149 114.726,3.310 C114.965,3.108 115.373,3.077 115.844,3.107 C116.403,3.830 116.316,4.459 115.742,5.232 ZM89.626,14.033 C88.986,15.320 88.345,16.404 87.594,17.674 C87.161,18.405 86.686,19.263 86.171,20.001 C85.637,20.766 84.854,21.395 84.545,22.126 C84.129,23.108 84.165,24.081 83.834,25.059 C84.354,25.114 84.635,24.495 84.952,24.148 C85.294,23.776 85.664,23.407 85.968,22.935 C86.525,22.070 86.779,20.566 88.102,20.810 C88.535,21.074 88.557,21.774 88.509,22.126 C88.458,22.490 87.997,23.125 87.696,23.643 C87.104,24.655 86.528,25.460 85.663,26.273 C84.886,27.004 84.321,27.417 83.427,27.891 C82.594,27.777 82.124,27.301 81.700,26.779 C81.842,25.921 82.053,24.780 82.106,24.148 C82.040,23.846 81.889,24.245 81.700,24.148 C83.382,21.342 84.721,17.215 86.577,14.134 C87.090,13.284 88.009,11.802 88.813,11.403 C89.779,10.923 90.371,11.509 90.236,12.717 C90.202,13.025 89.872,13.539 89.626,14.033 ZM76.924,11.403 C74.198,12.756 72.026,14.475 70.013,16.359 L68.184,18.180 C67.864,18.506 67.436,18.756 67.270,19.091 C66.988,19.656 66.900,20.566 66.660,21.317 C65.120,26.134 63.518,31.187 61.782,35.883 C60.838,38.436 59.803,41.387 58.632,43.875 C58.136,44.926 57.446,46.327 56.599,47.415 C55.908,48.303 54.757,49.775 53.246,48.933 C53.268,48.508 53.425,48.053 53.551,47.618 C54.431,44.577 55.114,40.719 56.396,37.906 C56.416,37.090 56.709,36.193 57.006,35.276 C57.278,34.438 57.619,33.563 57.920,32.747 C58.386,31.488 58.954,30.277 59.445,29.105 C59.605,28.723 59.672,28.261 59.851,27.892 C59.990,27.605 60.400,27.178 60.664,26.678 C61.277,25.518 61.573,24.545 62.290,23.441 C63.032,22.297 63.833,21.164 64.729,20.001 C65.621,18.845 66.357,17.617 66.660,15.752 C66.788,14.964 66.605,12.940 67.777,13.022 C69.011,13.106 68.535,15.088 68.184,15.752 C68.718,15.780 68.939,15.153 69.302,14.842 C69.674,14.523 70.135,14.248 70.521,13.931 C72.029,12.699 73.684,11.330 75.602,10.391 C76.423,9.990 77.958,9.150 78.855,9.279 C79.328,9.346 79.808,9.673 79.668,10.189 C79.569,10.548 77.287,11.222 76.924,11.403 ZM64.221,22.834 C59.994,29.112 57.416,37.034 55.786,45.897 C56.520,45.270 56.905,44.337 57.311,43.470 C57.731,42.571 58.064,41.589 58.429,40.638 C60.632,34.886 62.663,28.761 64.526,22.834 L64.221,22.834 ZM56.701,26.172 C56.292,25.046 57.313,23.711 57.514,22.530 C57.295,21.931 56.634,21.974 56.599,21.417 C56.541,20.464 58.530,19.615 59.343,19.596 C59.603,21.160 59.044,22.725 58.530,24.048 C58.175,24.959 57.666,26.127 56.701,26.172 ZM52.636,30.319 C52.175,31.120 51.031,31.766 49.791,31.938 C48.471,32.121 47.270,31.994 46.234,32.342 C43.281,33.338 42.254,37.285 39.629,36.895 C40.061,35.992 40.749,35.178 41.356,34.366 C42.416,32.947 43.583,31.704 45.116,30.724 C45.598,30.416 46.104,30.158 46.844,30.016 C47.049,29.738 46.576,29.459 46.640,29.004 C47.153,27.714 48.481,26.471 50.096,25.868 C51.324,25.409 52.745,25.360 53.246,26.779 C53.347,27.067 53.375,27.535 53.347,27.992 C53.317,28.498 53.002,29.683 52.636,30.319 ZM51.315,27.892 C49.750,27.521 48.729,28.549 48.368,29.713 C49.369,29.731 50.348,29.727 51.010,29.409 C51.271,29.059 51.492,28.369 51.315,27.892 ZM32.413,34.872 C30.247,37.017 25.089,35.414 21.642,36.490 C20.678,36.791 20.238,37.442 19.406,37.805 C18.655,38.609 18.572,40.077 17.170,40.233 C16.156,39.213 17.249,37.697 17.780,37.097 C18.615,36.153 21.100,34.581 22.658,34.163 C23.538,33.927 24.703,33.863 25.605,33.860 C27.476,33.855 29.490,34.349 31.194,33.759 C31.545,32.237 30.537,31.044 29.670,30.218 C28.666,29.262 27.213,28.181 25.503,28.195 C24.844,28.200 24.100,28.777 23.471,28.701 C22.972,28.640 22.534,28.132 22.353,27.588 C23.927,25.856 26.978,25.518 29.365,26.880 C30.122,27.312 31.303,28.516 31.906,29.206 C33.011,30.473 34.201,31.922 33.226,33.759 C33.125,33.950 32.604,34.683 32.413,34.872 ZM11.683,44.785 C9.836,48.990 7.734,53.392 6.500,58.340 C6.431,58.615 6.469,58.981 6.399,59.251 C6.328,59.523 6.140,59.711 6.094,59.959 C5.982,60.560 6.014,61.176 5.891,61.779 C5.777,62.335 5.695,62.890 5.585,63.398 C5.487,63.857 5.391,64.644 5.179,65.017 C4.916,65.479 4.441,65.390 4.163,65.927 C3.770,65.569 3.799,65.032 3.756,64.511 C3.551,61.978 4.337,58.454 5.179,56.115 C6.657,52.008 8.291,48.065 9.955,44.076 C10.912,41.784 12.110,39.702 12.293,37.198 C12.355,36.344 12.258,35.463 12.089,35.074 C11.766,34.329 10.785,34.121 10.667,33.354 C10.929,32.693 12.005,32.216 12.699,31.937 C14.239,31.323 14.970,33.665 14.833,35.479 C14.588,38.732 12.913,41.983 11.683,44.785 ZM68.515,26.874 C68.080,25.674 69.125,24.101 69.281,22.912 C69.434,21.759 70.135,20.080 71.321,19.649 C71.858,20.936 70.817,23.534 70.344,24.750 C69.990,25.662 69.480,26.829 68.515,26.874 ZM73.366,28.701 C73.110,27.964 72.541,27.552 72.350,26.880 C71.324,23.263 73.964,19.483 76.822,18.787 C77.977,18.506 78.605,19.616 78.447,21.316 C78.219,23.792 76.446,26.036 75.602,28.094 C75.454,28.456 75.311,28.807 75.399,29.207 C74.664,29.799 74.377,30.805 73.976,31.634 C71.558,36.647 68.740,41.505 66.863,47.213 C66.615,47.966 66.481,49.526 65.136,49.033 C64.832,48.120 65.392,47.119 65.643,46.302 C67.576,40.029 70.859,34.468 73.366,28.701 ZM74.078,27.284 C74.946,25.113 76.268,23.396 76.619,20.709 C74.556,21.637 72.814,24.905 74.078,27.284 Z"/>
</g>
<path fill="url(#PSgrad_0)"
 d="M115.742,5.232 C115.138,6.047 114.160,7.039 113.507,7.963 C113.024,8.646 112.613,9.325 112.186,9.987 C111.858,10.493 111.560,10.905 111.170,11.403 C110.656,12.057 110.224,12.947 109.646,13.830 C107.202,17.561 104.702,20.939 102.227,24.958 C101.861,25.551 101.409,26.522 100.804,26.577 C100.235,26.628 99.513,25.996 99.280,25.565 C98.301,23.751 99.395,20.700 99.382,18.787 C98.091,20.005 96.910,21.634 95.622,23.238 C95.029,23.976 94.338,24.715 93.691,25.464 C92.848,26.440 92.238,27.108 91.252,27.790 C90.897,28.036 90.188,28.533 89.423,28.296 C89.558,27.578 90.198,27.182 90.642,26.678 C91.924,25.225 93.166,23.532 94.402,21.923 C96.038,19.796 97.630,17.661 99.280,15.550 C99.879,15.539 100.089,15.142 100.804,15.247 C101.762,17.955 100.122,20.956 100.601,23.845 C101.926,22.488 102.846,20.761 103.954,19.192 C104.508,18.408 104.925,17.517 105.479,16.764 C105.634,16.552 105.856,16.456 105.987,16.259 C106.343,15.720 106.562,14.916 107.207,14.539 C108.211,12.452 109.633,10.648 110.865,8.772 C112.094,6.902 113.453,5.149 114.726,3.310 C114.965,3.108 115.373,3.077 115.844,3.107 C116.403,3.830 116.316,4.459 115.742,5.232 ZM89.626,14.033 C88.986,15.320 88.345,16.404 87.594,17.674 C87.161,18.405 86.686,19.263 86.171,20.001 C85.637,20.766 84.854,21.395 84.545,22.126 C84.129,23.108 84.165,24.081 83.834,25.059 C84.354,25.114 84.635,24.495 84.952,24.148 C85.294,23.776 85.664,23.407 85.968,22.935 C86.525,22.070 86.779,20.566 88.102,20.810 C88.535,21.074 88.557,21.774 88.509,22.126 C88.458,22.490 87.997,23.125 87.696,23.643 C87.104,24.655 86.528,25.460 85.663,26.273 C84.886,27.004 84.321,27.417 83.427,27.891 C82.594,27.777 82.124,27.301 81.700,26.779 C81.842,25.921 82.053,24.780 82.106,24.148 C82.040,23.846 81.889,24.245 81.700,24.148 C83.382,21.342 84.721,17.215 86.577,14.134 C87.090,13.284 88.009,11.802 88.813,11.403 C89.779,10.923 90.371,11.509 90.236,12.717 C90.202,13.025 89.872,13.539 89.626,14.033 ZM76.924,11.403 C74.198,12.756 72.026,14.475 70.013,16.359 L68.184,18.180 C67.864,18.506 67.436,18.756 67.270,19.091 C66.988,19.656 66.900,20.566 66.660,21.317 C65.120,26.134 63.518,31.187 61.782,35.883 C60.838,38.436 59.803,41.387 58.632,43.875 C58.136,44.926 57.446,46.327 56.599,47.415 C55.908,48.303 54.757,49.775 53.246,48.933 C53.268,48.508 53.425,48.053 53.551,47.618 C54.431,44.577 55.114,40.719 56.396,37.906 C56.416,37.090 56.709,36.193 57.006,35.276 C57.278,34.438 57.619,33.563 57.920,32.747 C58.386,31.488 58.954,30.277 59.445,29.105 C59.605,28.723 59.672,28.261 59.851,27.892 C59.990,27.605 60.400,27.178 60.664,26.678 C61.277,25.518 61.573,24.545 62.290,23.441 C63.032,22.297 63.833,21.164 64.729,20.001 C65.621,18.845 66.357,17.617 66.660,15.752 C66.788,14.964 66.605,12.940 67.777,13.022 C69.011,13.106 68.535,15.088 68.184,15.752 C68.718,15.780 68.939,15.153 69.302,14.842 C69.674,14.523 70.135,14.248 70.521,13.931 C72.029,12.699 73.684,11.330 75.602,10.391 C76.423,9.990 77.958,9.150 78.855,9.279 C79.328,9.346 79.808,9.673 79.668,10.189 C79.569,10.548 77.287,11.222 76.924,11.403 ZM64.221,22.834 C59.994,29.112 57.416,37.034 55.786,45.897 C56.520,45.270 56.905,44.337 57.311,43.470 C57.731,42.571 58.064,41.589 58.429,40.638 C60.632,34.886 62.663,28.761 64.526,22.834 L64.221,22.834 ZM56.701,26.172 C56.292,25.046 57.313,23.711 57.514,22.530 C57.295,21.931 56.634,21.974 56.599,21.417 C56.541,20.464 58.530,19.615 59.343,19.596 C59.603,21.160 59.044,22.725 58.530,24.048 C58.175,24.959 57.666,26.127 56.701,26.172 ZM52.636,30.319 C52.175,31.120 51.031,31.766 49.791,31.938 C48.471,32.121 47.270,31.994 46.234,32.342 C43.281,33.338 42.254,37.285 39.629,36.895 C40.061,35.992 40.749,35.178 41.356,34.366 C42.416,32.947 43.583,31.704 45.116,30.724 C45.598,30.416 46.104,30.158 46.844,30.016 C47.049,29.738 46.576,29.459 46.640,29.004 C47.153,27.714 48.481,26.471 50.096,25.868 C51.324,25.409 52.745,25.360 53.246,26.779 C53.347,27.067 53.375,27.535 53.347,27.992 C53.317,28.498 53.002,29.683 52.636,30.319 ZM51.315,27.892 C49.750,27.521 48.729,28.549 48.368,29.713 C49.369,29.731 50.348,29.727 51.010,29.409 C51.271,29.059 51.492,28.369 51.315,27.892 ZM32.413,34.872 C30.247,37.017 25.089,35.414 21.642,36.490 C20.678,36.791 20.238,37.442 19.406,37.805 C18.655,38.609 18.572,40.077 17.170,40.233 C16.156,39.213 17.249,37.697 17.780,37.097 C18.615,36.153 21.100,34.581 22.658,34.163 C23.538,33.927 24.703,33.863 25.605,33.860 C27.476,33.855 29.490,34.349 31.194,33.759 C31.545,32.237 30.537,31.044 29.670,30.218 C28.666,29.262 27.213,28.181 25.503,28.195 C24.844,28.200 24.100,28.777 23.471,28.701 C22.972,28.640 22.534,28.132 22.353,27.588 C23.927,25.856 26.978,25.518 29.365,26.880 C30.122,27.312 31.303,28.516 31.906,29.206 C33.011,30.473 34.201,31.922 33.226,33.759 C33.125,33.950 32.604,34.683 32.413,34.872 ZM11.683,44.785 C9.836,48.990 7.734,53.392 6.500,58.340 C6.431,58.615 6.469,58.981 6.399,59.251 C6.328,59.523 6.140,59.711 6.094,59.959 C5.982,60.560 6.014,61.176 5.891,61.779 C5.777,62.335 5.695,62.890 5.585,63.398 C5.487,63.857 5.391,64.644 5.179,65.017 C4.916,65.479 4.441,65.390 4.163,65.927 C3.770,65.569 3.799,65.032 3.756,64.511 C3.551,61.978 4.337,58.454 5.179,56.115 C6.657,52.008 8.291,48.065 9.955,44.076 C10.912,41.784 12.110,39.702 12.293,37.198 C12.355,36.344 12.258,35.463 12.089,35.074 C11.766,34.329 10.785,34.121 10.667,33.354 C10.929,32.693 12.005,32.216 12.699,31.937 C14.239,31.323 14.970,33.665 14.833,35.479 C14.588,38.732 12.913,41.983 11.683,44.785 ZM68.515,26.874 C68.080,25.674 69.125,24.101 69.281,22.912 C69.434,21.759 70.135,20.080 71.321,19.649 C71.858,20.936 70.817,23.534 70.344,24.750 C69.990,25.662 69.480,26.829 68.515,26.874 ZM73.366,28.701 C73.110,27.964 72.541,27.552 72.350,26.880 C71.324,23.263 73.964,19.483 76.822,18.787 C77.977,18.506 78.605,19.616 78.447,21.316 C78.219,23.792 76.446,26.036 75.602,28.094 C75.454,28.456 75.311,28.807 75.399,29.207 C74.664,29.799 74.377,30.805 73.976,31.634 C71.558,36.647 68.740,41.505 66.863,47.213 C66.615,47.966 66.481,49.526 65.136,49.033 C64.832,48.120 65.392,47.119 65.643,46.302 C67.576,40.029 70.859,34.468 73.366,28.701 ZM74.078,27.284 C74.946,25.113 76.268,23.396 76.619,20.709 C74.556,21.637 72.814,24.905 74.078,27.284 Z"/>
</svg>