<svg 
 xmlns="http://www.w3.org/2000/svg"
 xmlns:xlink="http://www.w3.org/1999/xlink"
 width="131px" height="80px">
<defs>
<filter filterUnits="userSpaceOnUse" id="Filter_0" x="0px" y="0px" width="131px" height="80px"  >
    <feOffset in="SourceAlpha" dx="0" dy="0" />
    <feGaussianBlur result="blurOut" stdDeviation="3" />
    <feFlood flood-color="rgb(0, 0, 0)" result="floodOut" />
    <feComposite operator="atop" in="floodOut" in2="blurOut" />
    <feComponentTransfer><feFuncA type="linear" slope="0.96"/></feComponentTransfer>
    <feMerge>
    <feMergeNode/>
    <feMergeNode in="SourceGraphic"/>
  </feMerge>
</filter>

</defs>
<g filter="url(#Filter_0)">
<path fill-rule="evenodd"  fill="rgb(255, 190, 0)"
 d="M120.742,10.232 C120.138,11.046 119.160,12.039 118.507,12.963 C118.024,13.646 117.613,14.325 117.186,14.987 C116.858,15.493 116.560,15.906 116.170,16.402 C115.656,17.057 115.224,17.947 114.646,18.830 C112.202,22.561 109.702,25.939 107.227,29.958 C106.861,30.552 106.409,31.522 105.804,31.576 C105.235,31.628 104.513,30.996 104.280,30.565 C103.301,28.751 104.395,25.700 104.382,23.787 C103.091,25.006 101.910,26.634 100.622,28.238 C100.030,28.976 99.338,29.715 98.691,30.464 C97.848,31.440 97.238,32.108 96.252,32.790 C95.897,33.036 95.188,33.533 94.423,33.296 C94.558,32.578 95.198,32.182 95.643,31.678 C96.924,30.225 98.166,28.532 99.402,26.923 C101.038,24.796 102.630,22.661 104.280,20.550 C104.879,20.539 105.089,20.141 105.804,20.247 C106.762,22.955 105.122,25.956 105.601,28.845 C106.926,27.488 107.846,25.761 108.954,24.192 C109.508,23.409 109.925,22.517 110.479,21.764 C110.635,21.552 110.856,21.456 110.987,21.258 C111.343,20.720 111.562,19.915 112.207,19.539 C113.211,17.452 114.633,15.648 115.865,13.772 C117.094,11.902 118.453,10.148 119.726,8.310 C119.965,8.108 120.373,8.077 120.844,8.107 C121.403,8.830 121.316,9.459 120.742,10.232 ZM94.626,19.033 C93.986,20.320 93.345,21.404 92.594,22.675 C92.161,23.405 91.686,24.263 91.171,25.002 C90.637,25.767 89.854,26.395 89.545,27.126 C89.130,28.108 89.165,29.081 88.834,30.059 C89.354,30.114 89.635,29.495 89.952,29.149 C90.294,28.776 90.664,28.406 90.968,27.934 C91.526,27.070 91.779,25.565 93.102,25.810 C93.535,26.074 93.557,26.774 93.509,27.126 C93.458,27.490 92.997,28.125 92.696,28.643 C92.104,29.655 91.528,30.460 90.663,31.273 C89.886,32.003 89.321,32.416 88.427,32.891 C87.594,32.777 87.124,32.300 86.700,31.779 C86.842,30.921 87.053,29.780 87.106,29.149 C87.040,28.846 86.889,29.245 86.700,29.149 C88.382,26.342 89.721,22.215 91.577,19.134 C92.090,18.285 93.009,16.801 93.813,16.403 C94.779,15.923 95.371,16.510 95.236,17.718 C95.202,18.025 94.872,18.539 94.626,19.033 ZM81.924,16.402 C79.198,17.756 77.026,19.476 75.013,21.359 L73.184,23.180 C72.864,23.507 72.436,23.756 72.270,24.091 C71.988,24.656 71.900,25.565 71.660,26.317 C70.120,31.134 68.518,36.187 66.782,40.883 C65.838,43.436 64.803,46.387 63.632,48.875 C63.136,49.926 62.446,51.327 61.599,52.415 C60.908,53.303 59.757,54.775 58.246,53.934 C58.268,53.509 58.425,53.053 58.551,52.618 C59.431,49.577 60.114,45.719 61.396,42.906 C61.416,42.089 61.709,41.193 62.006,40.276 C62.278,39.438 62.619,38.563 62.920,37.747 C63.386,36.488 63.954,35.277 64.445,34.105 C64.605,33.723 64.672,33.261 64.851,32.892 C64.990,32.605 65.400,32.178 65.664,31.678 C66.277,30.518 66.573,29.545 67.290,28.441 C68.032,27.297 68.833,26.164 69.729,25.002 C70.621,23.845 71.357,22.618 71.660,20.752 C71.788,19.964 71.605,17.941 72.777,18.021 C74.011,18.106 73.535,20.088 73.184,20.752 C73.718,20.780 73.939,20.153 74.302,19.842 C74.674,19.523 75.135,19.248 75.521,18.932 C77.029,17.698 78.684,16.330 80.602,15.391 C81.423,14.990 82.958,14.150 83.855,14.279 C84.328,14.346 84.808,14.673 84.668,15.189 C84.569,15.548 82.287,16.222 81.924,16.402 ZM69.221,27.833 C64.994,34.112 62.416,42.034 60.787,50.897 C61.521,50.269 61.905,49.337 62.311,48.470 C62.732,47.570 63.064,46.588 63.429,45.637 C65.632,39.886 67.663,33.761 69.526,27.833 L69.221,27.833 ZM61.701,31.172 C61.292,30.046 62.313,28.711 62.514,27.530 C62.296,26.931 61.634,26.974 61.599,26.417 C61.541,25.464 63.530,24.615 64.343,24.596 C64.603,26.160 64.044,27.725 63.530,29.048 C63.175,29.959 62.666,31.127 61.701,31.172 ZM57.636,35.319 C57.175,36.120 56.031,36.766 54.791,36.938 C53.471,37.121 52.270,36.994 51.234,37.342 C48.281,38.338 47.254,42.286 44.629,41.895 C45.061,40.992 45.749,40.178 46.356,39.365 C47.416,37.947 48.583,36.704 50.116,35.724 C50.598,35.416 51.104,35.158 51.844,35.016 C52.049,34.738 51.576,34.458 51.640,34.004 C52.153,32.714 53.481,31.472 55.096,30.868 C56.324,30.409 57.745,30.360 58.246,31.779 C58.348,32.067 58.375,32.534 58.348,32.993 C58.317,33.498 58.002,34.683 57.636,35.319 ZM56.315,32.892 C54.750,32.521 53.729,33.549 53.368,34.712 C54.369,34.731 55.348,34.727 56.011,34.409 C56.271,34.059 56.492,33.369 56.315,32.892 ZM37.413,39.872 C35.247,42.017 30.089,40.414 26.642,41.490 C25.678,41.791 25.238,42.442 24.406,42.805 C23.655,43.609 23.572,45.077 22.170,45.233 C21.156,44.213 22.249,42.698 22.780,42.097 C23.616,41.153 26.101,39.581 27.658,39.163 C28.538,38.927 29.703,38.863 30.605,38.860 C32.476,38.855 34.490,39.349 36.194,38.759 C36.545,37.237 35.537,36.044 34.670,35.218 C33.666,34.262 32.213,33.181 30.503,33.195 C29.844,33.200 29.101,33.777 28.471,33.701 C27.972,33.640 27.534,33.132 27.353,32.588 C28.927,30.856 31.978,30.518 34.365,31.880 C35.122,32.312 36.303,33.516 36.906,34.206 C38.011,35.473 39.201,36.922 38.227,38.759 C38.125,38.950 37.604,39.683 37.413,39.872 ZM16.683,49.785 C14.836,53.990 12.734,58.392 11.500,63.341 C11.432,63.616 11.469,63.981 11.399,64.251 C11.328,64.523 11.140,64.711 11.094,64.959 C10.982,65.560 11.014,66.176 10.891,66.779 C10.777,67.335 10.695,67.890 10.585,68.398 C10.487,68.857 10.391,69.644 10.179,70.017 C9.916,70.480 9.441,70.390 9.163,70.927 C8.770,70.569 8.799,70.032 8.756,69.512 C8.551,66.978 9.337,63.454 10.179,61.115 C11.657,57.008 13.292,53.065 14.955,49.076 C15.912,46.784 17.110,44.702 17.293,42.198 C17.355,41.345 17.258,40.463 17.089,40.074 C16.766,39.330 15.785,39.121 15.667,38.354 C15.929,37.693 17.005,37.216 17.699,36.938 C19.239,36.322 19.970,38.665 19.833,40.479 C19.588,43.731 17.913,46.984 16.683,49.785 ZM73.515,31.874 C73.080,30.674 74.125,29.101 74.281,27.912 C74.434,26.759 75.135,25.081 76.321,24.650 C76.858,25.936 75.817,28.534 75.344,29.750 C74.990,30.662 74.480,31.829 73.515,31.874 ZM78.366,33.701 C78.110,32.964 77.541,32.553 77.351,31.880 C76.324,28.263 78.964,24.483 81.822,23.787 C82.977,23.506 83.605,24.616 83.447,26.316 C83.219,28.792 81.446,31.036 80.603,33.094 C80.454,33.456 80.311,33.807 80.399,34.207 C79.664,34.798 79.377,35.805 78.976,36.635 C76.558,41.647 73.740,46.505 71.863,52.213 C71.615,52.965 71.481,54.527 70.136,54.033 C69.832,53.120 70.392,52.120 70.644,51.302 C72.576,45.029 75.859,39.468 78.366,33.701 ZM79.078,32.284 C79.946,30.113 81.268,28.395 81.619,25.710 C79.556,26.637 77.814,29.905 79.078,32.284 Z"/>
</g>
</svg>