<svg 
 xmlns="http://www.w3.org/2000/svg"
 xmlns:xlink="http://www.w3.org/1999/xlink"
 width="119px" height="69px">
<defs>
<filter filterUnits="userSpaceOnUse" id="Filter_0" x="0px" y="0px" width="119px" height="69px"  >
    <feOffset in="SourceAlpha" dx="-1.5" dy="2.598" />
    <feGaussianBlur result="blurOut" stdDeviation="1.732" />
    <feFlood flood-color="rgb(0, 0, 0)" result="floodOut" />
    <feComposite operator="atop" in="floodOut" in2="blurOut" />
    <feComponentTransfer><feFuncA type="linear" slope="0.16"/></feComponentTransfer>
    <feMerge>
    <feMergeNode/>
    <feMergeNode in="SourceGraphic"/>
  </feMerge>
</filter>
<linearGradient id="PSgrad_0" x1="0%" x2="6.976%" y1="99.756%" y2="0%">
  <stop offset="0%" stop-color="rgb(85,83,83)" stop-opacity="1" />
  <stop offset="52%" stop-color="rgb(166,160,160)" stop-opacity="1" />
</linearGradient>

</defs>
<g filter="url(#Filter_0)">
<path fill-rule="evenodd"  fill="rgb(99, 98, 96)"
 d="M116.742,2.232 C116.138,3.046 115.160,4.039 114.507,4.963 C114.024,5.646 113.613,6.325 113.186,6.987 C112.858,7.493 112.560,7.905 112.170,8.402 C111.656,9.057 111.224,9.947 110.645,10.830 C108.202,14.561 105.701,17.939 103.227,21.958 C102.861,22.552 102.409,23.522 101.804,23.577 C101.235,23.628 100.513,22.996 100.280,22.565 C99.301,20.751 100.395,17.700 100.382,15.787 C99.091,17.005 97.910,18.634 96.622,20.238 C96.029,20.976 95.338,21.715 94.691,22.464 C93.848,23.439 93.238,24.108 92.252,24.790 C91.897,25.036 91.188,25.533 90.423,25.296 C90.558,24.578 91.198,24.182 91.643,23.678 C92.924,22.225 94.166,20.531 95.402,18.923 C97.037,16.796 98.630,14.661 100.280,12.550 C100.879,12.539 101.089,12.141 101.804,12.246 C102.762,14.955 101.122,17.956 101.601,20.845 C102.926,19.488 103.846,17.761 104.954,16.191 C105.508,15.409 105.925,14.517 106.479,13.765 C106.634,13.552 106.856,13.456 106.987,13.258 C107.343,12.720 107.562,11.916 108.207,11.539 C109.211,9.451 110.633,7.648 111.865,5.772 C113.094,3.902 114.453,2.148 115.726,0.310 C115.965,0.108 116.373,0.077 116.844,0.107 C117.403,0.830 117.316,1.459 116.742,2.232 ZM90.626,11.033 C89.986,12.320 89.345,13.403 88.594,14.674 C88.161,15.405 87.686,16.263 87.171,17.001 C86.637,17.767 85.854,18.395 85.545,19.125 C85.130,20.108 85.165,21.081 84.834,22.059 C85.354,22.113 85.635,21.495 85.952,21.148 C86.294,20.776 86.664,20.406 86.968,19.935 C87.525,19.070 87.779,17.565 89.102,17.810 C89.535,18.074 89.557,18.774 89.509,19.125 C89.458,19.490 88.997,20.125 88.696,20.643 C88.104,21.655 87.528,22.460 86.663,23.273 C85.886,24.004 85.321,24.417 84.427,24.892 C83.594,24.777 83.124,24.300 82.700,23.779 C82.842,22.921 83.053,21.780 83.106,21.148 C83.040,20.846 82.889,21.245 82.700,21.148 C84.382,18.342 85.721,14.215 87.577,11.134 C88.089,10.285 89.009,8.802 89.813,8.403 C90.779,7.923 91.371,8.509 91.236,9.717 C91.202,10.025 90.872,10.539 90.626,11.033 ZM77.924,8.402 C75.198,9.756 73.026,11.476 71.013,13.359 L69.184,15.180 C68.864,15.507 68.436,15.756 68.269,16.091 C67.988,16.656 67.900,17.566 67.660,18.317 C66.120,23.134 64.518,28.187 62.782,32.883 C61.838,35.436 60.803,38.387 59.632,40.875 C59.136,41.926 58.446,43.327 57.599,44.415 C56.908,45.303 55.757,46.775 54.246,45.933 C54.268,45.508 54.425,45.053 54.551,44.618 C55.431,41.577 56.114,37.719 57.396,34.906 C57.416,34.089 57.709,33.193 58.006,32.276 C58.277,31.438 58.619,30.563 58.920,29.747 C59.386,28.487 59.954,27.277 60.445,26.105 C60.605,25.722 60.672,25.261 60.851,24.892 C60.990,24.605 61.400,24.178 61.664,23.678 C62.277,22.518 62.573,21.545 63.290,20.440 C64.032,19.297 64.833,18.164 65.729,17.001 C66.621,15.845 67.357,14.618 67.660,12.752 C67.788,11.964 67.605,9.941 68.777,10.021 C70.011,10.106 69.535,12.088 69.184,12.752 C69.718,12.780 69.939,12.153 70.302,11.842 C70.674,11.523 71.135,11.248 71.521,10.931 C73.029,9.698 74.684,8.329 76.602,7.391 C77.423,6.990 78.958,6.150 79.855,6.278 C80.328,6.346 80.808,6.673 80.668,7.189 C80.569,7.548 78.287,8.222 77.924,8.402 ZM65.221,19.834 C60.994,26.113 58.416,34.034 56.787,42.897 C57.520,42.270 57.905,41.337 58.311,40.470 C58.732,39.570 59.064,38.589 59.429,37.638 C61.632,31.886 63.663,25.761 65.526,19.834 L65.221,19.834 ZM57.701,23.172 C57.292,22.046 58.313,20.711 58.514,19.529 C58.295,18.931 57.634,18.975 57.599,18.417 C57.540,17.464 59.530,16.615 60.343,16.596 C60.603,18.160 60.044,19.724 59.530,21.048 C59.175,21.959 58.666,23.127 57.701,23.172 ZM53.636,27.319 C53.175,28.120 52.031,28.766 50.791,28.938 C49.471,29.121 48.270,28.993 47.234,29.342 C44.281,30.338 43.254,34.286 40.629,33.895 C41.061,32.992 41.749,32.178 42.356,31.366 C43.416,29.947 44.583,28.704 46.116,27.724 C46.598,27.416 47.104,27.158 47.844,27.015 C48.049,26.738 47.576,26.458 47.640,26.004 C48.153,24.714 49.481,23.471 51.096,22.868 C52.324,22.409 53.745,22.360 54.246,23.779 C54.348,24.067 54.375,24.535 54.348,24.992 C54.317,25.498 54.002,26.684 53.636,27.319 ZM52.315,24.892 C50.750,24.521 49.729,25.549 49.368,26.713 C50.369,26.731 51.348,26.727 52.010,26.409 C52.271,26.059 52.492,25.369 52.315,24.892 ZM33.413,31.871 C31.247,34.017 26.089,32.414 22.642,33.490 C21.678,33.791 21.238,34.441 20.406,34.805 C19.655,35.609 19.572,37.077 18.170,37.233 C17.156,36.213 18.249,34.698 18.780,34.097 C19.615,33.152 22.100,31.581 23.658,31.163 C24.538,30.927 25.703,30.863 26.605,30.859 C28.476,30.855 30.490,31.349 32.194,30.758 C32.545,29.237 31.537,28.044 30.670,27.218 C29.666,26.262 28.213,25.180 26.503,25.195 C25.844,25.200 25.100,25.777 24.471,25.701 C23.972,25.640 23.534,25.132 23.353,24.588 C24.927,22.856 27.978,22.518 30.365,23.879 C31.122,24.312 32.303,25.516 32.905,26.206 C34.011,27.473 35.201,28.922 34.227,30.758 C34.125,30.950 33.604,31.683 33.413,31.871 ZM12.683,41.785 C10.836,45.989 8.734,50.392 7.500,55.340 C7.431,55.615 7.469,55.981 7.399,56.251 C7.328,56.523 7.140,56.711 7.094,56.959 C6.982,57.560 7.014,58.176 6.891,58.779 C6.777,59.335 6.695,59.890 6.585,60.398 C6.487,60.856 6.391,61.644 6.179,62.017 C5.916,62.479 5.440,62.390 5.163,62.927 C4.770,62.569 4.799,62.032 4.756,61.512 C4.551,58.978 5.337,55.454 6.179,53.115 C7.657,49.008 9.292,45.064 10.955,41.076 C11.912,38.784 13.109,36.702 13.293,34.198 C13.355,33.344 13.258,32.463 13.089,32.074 C12.766,31.329 11.785,31.121 11.667,30.354 C11.929,29.693 13.005,29.216 13.699,28.937 C15.239,28.323 15.970,30.665 15.833,32.479 C15.588,35.731 13.913,38.983 12.683,41.785 ZM69.515,23.874 C69.080,22.674 70.125,21.101 70.281,19.912 C70.434,18.759 71.135,17.080 72.321,16.649 C72.858,17.936 71.817,20.534 71.344,21.750 C70.990,22.662 70.480,23.829 69.515,23.874 ZM74.366,25.701 C74.110,24.964 73.541,24.552 73.350,23.880 C72.324,20.263 74.964,16.483 77.822,15.787 C78.977,15.506 79.605,16.616 79.447,18.316 C79.219,20.792 77.446,23.036 76.603,25.094 C76.454,25.455 76.310,25.807 76.399,26.207 C75.664,26.798 75.377,27.805 74.976,28.634 C72.558,33.647 69.740,38.504 67.863,44.213 C67.615,44.966 67.481,46.526 66.136,46.033 C65.832,45.120 66.392,44.120 66.643,43.302 C68.576,37.029 71.859,31.469 74.366,25.701 ZM75.078,24.284 C75.946,22.113 77.268,20.395 77.619,17.710 C75.556,18.637 73.814,21.905 75.078,24.284 Z"/>
</g>
<path fill="url(#PSgrad_0)"
 d="M116.742,2.232 C116.138,3.046 115.160,4.039 114.507,4.963 C114.024,5.646 113.613,6.325 113.186,6.987 C112.858,7.493 112.560,7.905 112.170,8.402 C111.656,9.057 111.224,9.947 110.645,10.830 C108.202,14.561 105.701,17.939 103.227,21.958 C102.861,22.552 102.409,23.522 101.804,23.577 C101.235,23.628 100.513,22.996 100.280,22.565 C99.301,20.751 100.395,17.700 100.382,15.787 C99.091,17.005 97.910,18.634 96.622,20.238 C96.029,20.976 95.338,21.715 94.691,22.464 C93.848,23.439 93.238,24.108 92.252,24.790 C91.897,25.036 91.188,25.533 90.423,25.296 C90.558,24.578 91.198,24.182 91.643,23.678 C92.924,22.225 94.166,20.531 95.402,18.923 C97.037,16.796 98.630,14.661 100.280,12.550 C100.879,12.539 101.089,12.141 101.804,12.246 C102.762,14.955 101.122,17.956 101.601,20.845 C102.926,19.488 103.846,17.761 104.954,16.191 C105.508,15.409 105.925,14.517 106.479,13.765 C106.634,13.552 106.856,13.456 106.987,13.258 C107.343,12.720 107.562,11.916 108.207,11.539 C109.211,9.451 110.633,7.648 111.865,5.772 C113.094,3.902 114.453,2.148 115.726,0.310 C115.965,0.108 116.373,0.077 116.844,0.107 C117.403,0.830 117.316,1.459 116.742,2.232 ZM90.626,11.033 C89.986,12.320 89.345,13.403 88.594,14.674 C88.161,15.405 87.686,16.263 87.171,17.001 C86.637,17.767 85.854,18.395 85.545,19.125 C85.130,20.108 85.165,21.081 84.834,22.059 C85.354,22.113 85.635,21.495 85.952,21.148 C86.294,20.776 86.664,20.406 86.968,19.935 C87.525,19.070 87.779,17.565 89.102,17.810 C89.535,18.074 89.557,18.774 89.509,19.125 C89.458,19.490 88.997,20.125 88.696,20.643 C88.104,21.655 87.528,22.460 86.663,23.273 C85.886,24.004 85.321,24.417 84.427,24.892 C83.594,24.777 83.124,24.300 82.700,23.779 C82.842,22.921 83.053,21.780 83.106,21.148 C83.040,20.846 82.889,21.245 82.700,21.148 C84.382,18.342 85.721,14.215 87.577,11.134 C88.089,10.285 89.009,8.802 89.813,8.403 C90.779,7.923 91.371,8.509 91.236,9.717 C91.202,10.025 90.872,10.539 90.626,11.033 ZM77.924,8.402 C75.198,9.756 73.026,11.476 71.013,13.359 L69.184,15.180 C68.864,15.507 68.436,15.756 68.269,16.091 C67.988,16.656 67.900,17.566 67.660,18.317 C66.120,23.134 64.518,28.187 62.782,32.883 C61.838,35.436 60.803,38.387 59.632,40.875 C59.136,41.926 58.446,43.327 57.599,44.415 C56.908,45.303 55.757,46.775 54.246,45.933 C54.268,45.508 54.425,45.053 54.551,44.618 C55.431,41.577 56.114,37.719 57.396,34.906 C57.416,34.089 57.709,33.193 58.006,32.276 C58.277,31.438 58.619,30.563 58.920,29.747 C59.386,28.487 59.954,27.277 60.445,26.105 C60.605,25.722 60.672,25.261 60.851,24.892 C60.990,24.605 61.400,24.178 61.664,23.678 C62.277,22.518 62.573,21.545 63.290,20.440 C64.032,19.297 64.833,18.164 65.729,17.001 C66.621,15.845 67.357,14.618 67.660,12.752 C67.788,11.964 67.605,9.941 68.777,10.021 C70.011,10.106 69.535,12.088 69.184,12.752 C69.718,12.780 69.939,12.153 70.302,11.842 C70.674,11.523 71.135,11.248 71.521,10.931 C73.029,9.698 74.684,8.329 76.602,7.391 C77.423,6.990 78.958,6.150 79.855,6.278 C80.328,6.346 80.808,6.673 80.668,7.189 C80.569,7.548 78.287,8.222 77.924,8.402 ZM65.221,19.834 C60.994,26.113 58.416,34.034 56.787,42.897 C57.520,42.270 57.905,41.337 58.311,40.470 C58.732,39.570 59.064,38.589 59.429,37.638 C61.632,31.886 63.663,25.761 65.526,19.834 L65.221,19.834 ZM57.701,23.172 C57.292,22.046 58.313,20.711 58.514,19.529 C58.295,18.931 57.634,18.975 57.599,18.417 C57.540,17.464 59.530,16.615 60.343,16.596 C60.603,18.160 60.044,19.724 59.530,21.048 C59.175,21.959 58.666,23.127 57.701,23.172 ZM53.636,27.319 C53.175,28.120 52.031,28.766 50.791,28.938 C49.471,29.121 48.270,28.993 47.234,29.342 C44.281,30.338 43.254,34.286 40.629,33.895 C41.061,32.992 41.749,32.178 42.356,31.366 C43.416,29.947 44.583,28.704 46.116,27.724 C46.598,27.416 47.104,27.158 47.844,27.015 C48.049,26.738 47.576,26.458 47.640,26.004 C48.153,24.714 49.481,23.471 51.096,22.868 C52.324,22.409 53.745,22.360 54.246,23.779 C54.348,24.067 54.375,24.535 54.348,24.992 C54.317,25.498 54.002,26.684 53.636,27.319 ZM52.315,24.892 C50.750,24.521 49.729,25.549 49.368,26.713 C50.369,26.731 51.348,26.727 52.010,26.409 C52.271,26.059 52.492,25.369 52.315,24.892 ZM33.413,31.871 C31.247,34.017 26.089,32.414 22.642,33.490 C21.678,33.791 21.238,34.441 20.406,34.805 C19.655,35.609 19.572,37.077 18.170,37.233 C17.156,36.213 18.249,34.698 18.780,34.097 C19.615,33.152 22.100,31.581 23.658,31.163 C24.538,30.927 25.703,30.863 26.605,30.859 C28.476,30.855 30.490,31.349 32.194,30.758 C32.545,29.237 31.537,28.044 30.670,27.218 C29.666,26.262 28.213,25.180 26.503,25.195 C25.844,25.200 25.100,25.777 24.471,25.701 C23.972,25.640 23.534,25.132 23.353,24.588 C24.927,22.856 27.978,22.518 30.365,23.879 C31.122,24.312 32.303,25.516 32.905,26.206 C34.011,27.473 35.201,28.922 34.227,30.758 C34.125,30.950 33.604,31.683 33.413,31.871 ZM12.683,41.785 C10.836,45.989 8.734,50.392 7.500,55.340 C7.431,55.615 7.469,55.981 7.399,56.251 C7.328,56.523 7.140,56.711 7.094,56.959 C6.982,57.560 7.014,58.176 6.891,58.779 C6.777,59.335 6.695,59.890 6.585,60.398 C6.487,60.856 6.391,61.644 6.179,62.017 C5.916,62.479 5.440,62.390 5.163,62.927 C4.770,62.569 4.799,62.032 4.756,61.512 C4.551,58.978 5.337,55.454 6.179,53.115 C7.657,49.008 9.292,45.064 10.955,41.076 C11.912,38.784 13.109,36.702 13.293,34.198 C13.355,33.344 13.258,32.463 13.089,32.074 C12.766,31.329 11.785,31.121 11.667,30.354 C11.929,29.693 13.005,29.216 13.699,28.937 C15.239,28.323 15.970,30.665 15.833,32.479 C15.588,35.731 13.913,38.983 12.683,41.785 ZM69.515,23.874 C69.080,22.674 70.125,21.101 70.281,19.912 C70.434,18.759 71.135,17.080 72.321,16.649 C72.858,17.936 71.817,20.534 71.344,21.750 C70.990,22.662 70.480,23.829 69.515,23.874 ZM74.366,25.701 C74.110,24.964 73.541,24.552 73.350,23.880 C72.324,20.263 74.964,16.483 77.822,15.787 C78.977,15.506 79.605,16.616 79.447,18.316 C79.219,20.792 77.446,23.036 76.603,25.094 C76.454,25.455 76.310,25.807 76.399,26.207 C75.664,26.798 75.377,27.805 74.976,28.634 C72.558,33.647 69.740,38.504 67.863,44.213 C67.615,44.966 67.481,46.526 66.136,46.033 C65.832,45.120 66.392,44.120 66.643,43.302 C68.576,37.029 71.859,31.469 74.366,25.701 ZM75.078,24.284 C75.946,22.113 77.268,20.395 77.619,17.710 C75.556,18.637 73.814,21.905 75.078,24.284 Z"/>
</svg>