<svg 
 xmlns="http://www.w3.org/2000/svg"
 xmlns:xlink="http://www.w3.org/1999/xlink"
 width="20px" height="18px">
<path fill-rule="evenodd"  fill="rgb(255, 255, 255)"
 d="M19.837,6.699 C19.767,6.491 19.579,6.339 19.357,6.311 L13.480,5.578 L10.950,0.339 C10.855,0.141 10.649,0.014 10.425,0.014 C10.201,0.014 9.995,0.141 9.899,0.339 L7.370,5.578 L1.492,6.311 C1.270,6.339 1.082,6.491 1.013,6.699 C0.943,6.908 1.004,7.139 1.167,7.289 L5.481,11.260 L4.378,16.952 C4.336,17.166 4.427,17.389 4.608,17.517 C4.787,17.644 5.036,17.659 5.229,17.556 L10.425,14.771 L15.621,17.556 C15.817,17.661 16.060,17.646 16.242,17.517 C16.423,17.389 16.513,17.166 16.471,16.952 L15.368,11.260 L15.404,11.227 L19.682,7.289 C19.845,7.139 19.906,6.908 19.837,6.699 ZM14.639,10.758 C14.474,10.909 14.401,11.128 14.444,11.345 L15.441,16.495 L10.741,13.976 C10.548,13.873 10.300,13.873 10.109,13.976 L5.408,16.495 L6.405,11.345 C6.448,11.128 6.375,10.909 6.210,10.758 L2.307,7.165 L7.625,6.502 C7.848,6.474 8.040,6.338 8.136,6.139 L10.425,1.399 L12.713,6.139 C12.809,6.338 13.001,6.474 13.224,6.502 L18.542,7.165 L14.639,10.758 Z"/>
</svg>