<svg
 xmlns="http://www.w3.org/2000/svg"
 xmlns:xlink="http://www.w3.org/1999/xlink"
 width="22px" height="19px">
<path fill-rule="evenodd"  fill="rgb(242, 185, 47)"
 d="M21.321,7.346 C21.245,7.135 21.039,6.980 20.795,6.952 L14.348,6.207 L11.573,0.889 C11.468,0.688 11.242,0.558 10.996,0.558 C10.751,0.558 10.524,0.688 10.420,0.889 L7.645,6.207 L1.197,6.952 C0.953,6.980 0.746,7.135 0.671,7.346 C0.595,7.557 0.662,7.792 0.840,7.944 L5.573,11.976 L4.363,17.754 C4.317,17.972 4.416,18.197 4.615,18.328 C4.811,18.457 5.085,18.472 5.296,18.367 L10.996,15.540 L16.696,18.367 C16.911,18.474 17.179,18.459 17.378,18.328 C17.576,18.197 17.675,17.972 17.629,17.753 L16.419,11.976 L16.458,11.942 L21.152,7.944 C21.331,7.792 21.397,7.557 21.321,7.346 ZM15.619,11.466 C15.439,11.619 15.359,11.842 15.405,12.062 L16.499,17.290 L11.343,14.733 C11.132,14.628 10.860,14.628 10.650,14.733 L5.492,17.290 L6.586,12.062 C6.633,11.842 6.553,11.619 6.373,11.466 L2.091,7.818 L7.925,7.145 C8.170,7.117 8.380,6.979 8.486,6.777 L10.996,1.965 L13.507,6.777 C13.612,6.979 13.822,7.117 14.067,7.145 L19.901,7.818 L15.619,11.466 Z"/>
</svg>