<svg 
 xmlns="http://www.w3.org/2000/svg"
 xmlns:xlink="http://www.w3.org/1999/xlink"
 width="27px" height="22px">
<path fill-rule="evenodd"  fill="rgb(255, 255, 255)"
 d="M26.974,19.058 L26.959,19.058 L26.802,4.425 C26.802,4.035 26.478,3.720 26.079,3.720 L24.581,3.720 L24.581,2.873 C24.581,2.626 24.238,2.368 23.984,2.368 L20.440,2.368 C20.118,2.368 19.992,2.679 19.992,2.992 L19.992,3.720 L18.360,3.720 L18.360,0.621 C18.360,0.207 17.801,0.044 17.333,0.044 L9.292,-0.004 C8.843,-0.004 8.439,0.192 8.439,0.620 L8.439,3.720 L6.807,3.720 L6.807,2.948 C6.807,2.660 6.624,2.368 6.326,2.368 L2.624,2.368 C2.432,2.368 2.218,2.576 2.218,2.762 L2.218,3.720 L0.720,3.720 C0.321,3.720 -0.003,4.035 -0.003,4.423 L0.156,19.305 L0.171,19.305 L0.193,21.158 C0.193,21.472 0.304,21.999 0.720,21.999 L26.079,21.999 C26.492,21.999 26.999,21.536 26.999,21.160 L26.974,19.058 ZM20.544,2.961 L24.029,2.961 L24.029,3.769 L20.544,3.769 L20.544,2.961 ZM9.450,0.697 C9.489,0.685 9.534,0.670 9.591,0.670 L17.161,0.718 C17.215,0.718 17.260,0.731 17.292,0.742 C17.517,0.810 17.661,1.005 17.661,1.228 L17.652,3.683 L9.098,3.769 L9.089,1.181 C9.089,0.957 9.234,0.762 9.450,0.697 ZM2.771,2.961 L6.255,2.961 L6.255,3.769 L2.771,3.769 L2.771,2.961 ZM1.582,21.243 C1.238,21.159 1.064,21.036 1.063,20.874 L1.041,19.058 L1.025,19.058 L0.866,4.814 C0.866,4.780 0.872,4.749 0.881,4.718 C0.837,4.680 0.831,4.628 0.831,4.599 L0.833,4.438 L4.032,4.438 L4.053,4.600 L4.212,19.305 L4.228,19.305 L4.251,21.248 L1.582,21.243 ZM5.121,21.248 L5.095,19.058 L5.079,19.058 L4.920,4.437 L21.875,4.491 L22.037,19.305 L22.052,19.305 L22.075,21.248 L5.121,21.248 ZM25.658,21.248 L22.964,21.248 L22.936,19.058 L22.919,19.058 L22.744,4.438 L25.462,4.438 C25.533,4.438 25.933,4.578 25.933,4.812 L26.094,19.305 L26.110,19.305 L26.129,20.873 C26.129,21.083 25.922,21.248 25.658,21.248 Z"/>
</svg>